<svg xmlns="http://www.w3.org/2000/svg" width="550" height="449" viewBox="0 0 550 449">
  <g id="Group_4724" data-name="Group 4724" transform="translate(-980 -1052)">
    <rect id="Rectangle_2407" data-name="Rectangle 2407" width="550" height="449" transform="translate(980 1052)" fill="none"/>
    <g id="Standard_for_quality_control" data-name="Standard for quality control" transform="translate(-1380.789 880.969)">
      <g id="Group_4727" data-name="Group 4727" transform="translate(2437.998 197.15)">
        <path id="Path_5964" data-name="Path 5964" d="M2452.407,815.326a5.1,5.1,0,1,1,2.354-.583A5.1,5.1,0,0,1,2452.407,815.326Zm0-8.677a3.589,3.589,0,1,0,1.067.164A3.592,3.592,0,0,0,2452.4,806.649Z" transform="translate(-2447.313 -505.254)"/>
        <g id="Group_4725" data-name="Group 4725" transform="translate(5.688 319.668)">
          <path id="Path_5965" data-name="Path 5965" d="M2459.423,867.329a.751.751,0,0,1-.347-1.418l3.365-1.75a.751.751,0,1,1,.694,1.333l-3.365,1.75A.747.747,0,0,1,2459.423,867.329Z" transform="translate(-2458.67 -854.34)"/>
          <path id="Path_5966" data-name="Path 5966" d="M2482.942,855.1a.751.751,0,0,1-.347-1.418l3.366-1.75a.751.751,0,0,1,.694,1.333l-3.366,1.75A.748.748,0,0,1,2482.942,855.1Z" transform="translate(-2470.412 -848.235)"/>
          <path id="Path_5967" data-name="Path 5967" d="M2480.727,872.941a.751.751,0,0,1-.665-.4l-1.769-3.355a.751.751,0,0,1,1.329-.7l1.769,3.355a.752.752,0,0,1-.664,1.1Z" transform="translate(-2468.423 -856.34)"/>
          <path id="Path_5968" data-name="Path 5968" d="M2468.363,849.492a.752.752,0,0,1-.665-.4l-1.77-3.355a.751.751,0,0,1,1.329-.7l1.769,3.355a.752.752,0,0,1-.664,1.1Z" transform="translate(-2462.25 -844.634)"/>
        </g>
        <g id="Group_4726" data-name="Group 4726" transform="translate(296.686)">
          <path id="Path_5969" data-name="Path 5969" d="M3040.5,229.007a.752.752,0,0,1-.347-1.418l3.365-1.75a.751.751,0,0,1,.694,1.333l-3.365,1.75A.758.758,0,0,1,3040.5,229.007Z" transform="translate(-3039.745 -216.017)"/>
          <path id="Path_5970" data-name="Path 5970" d="M3064.017,216.776a.751.751,0,0,1-.348-1.418l3.365-1.75a.751.751,0,0,1,.694,1.333l-3.365,1.75A.751.751,0,0,1,3064.017,216.776Z" transform="translate(-3051.487 -209.911)"/>
          <path id="Path_5971" data-name="Path 5971" d="M3061.8,234.619a.752.752,0,0,1-.666-.4l-1.769-3.355a.751.751,0,0,1,1.329-.7l1.769,3.355a.751.751,0,0,1-.664,1.1Z" transform="translate(-3049.497 -218.018)"/>
          <path id="Path_5972" data-name="Path 5972" d="M3049.437,211.169a.752.752,0,0,1-.665-.4L3047,207.413a.751.751,0,0,1,1.329-.7l1.769,3.355a.75.75,0,0,1-.314,1.015A.742.742,0,0,1,3049.437,211.169Z" transform="translate(-3043.325 -206.311)"/>
        </g>
      </g>
      <g id="Group_4735" data-name="Group 4735" transform="translate(2452.044 196.185)">
        <g id="Group_4734" data-name="Group 4734" transform="translate(0 0)">
          <ellipse id="Ellipse_43" data-name="Ellipse 43" cx="184.998" cy="186.25" rx="184.998" ry="186.25" transform="translate(0 10.451) rotate(-1.619)" fill="#fff"/>
          <g id="Group_4733" data-name="Group 4733" transform="translate(37.83 14.539)">
            <g id="Group_4728" data-name="Group 4728" transform="translate(98.481)">
              <path id="Path_5973" data-name="Path 5973" d="M2747.68,240.468c-.728,1.144,1.636,4.857,6.128,4.73s6.717-.944,8.726,3.9-.142,21.5,2.649,27.458,7.389,9.6,10.662,6.111,2.644-12.521,6.7-14.9,18.771-11.845,19.307-19.4-4.865-13.063-18.009-14.2S2753.061,232.019,2747.68,240.468Z" transform="translate(-2747.55 -233.417)" fill="#c6e1f9"/>
            </g>
            <g id="Group_4729" data-name="Group 4729" transform="translate(42.008 174.65)">
              <path id="Path_5974" data-name="Path 5974" d="M2647.784,584.788a5.342,5.342,0,0,0-2.574,4.962c.444,6.313-1.491,22.132-6.345,27.3-6.183,6.586-3.512,18.065-3.479,22.728.066,9.471,1.093,13.656,11.327,17.893s14.2,4.381,15.2,13.405,3.156,43.931,6.406,52.891,10.03,23.478,13.494,26.775,11.379,4.959,6.15-7.717-8.393-18.621-2.98-25.94,14.3-24.165,14.87-30.593,3.83-10.292,6.8-11.13,9.273-3.279,11.081-5.593-2.116-8.615-3.4-14.236-1.378-9.013,7.853-13.8,4.376-17.473-8.447-20.505-20.886-9.971-19.591-17.174-8.791-6.163-14.876-9.386-6.056-8.555-12.793-10.906C2657.381,580.587,2651.114,582.792,2647.784,584.788Z" transform="translate(-2634.784 -582.164)" fill="#caddff"/>
            </g>
            <g id="Group_4730" data-name="Group 4730" transform="translate(176.638 6.903)">
              <path id="Path_5975" data-name="Path 5975" d="M3013.682,403.117c-3.289-4.675-3.107-12.228,4.487-22.772,5.965-8.282-3.152-16.138-7.339-19.127a1.04,1.04,0,0,1,.47-1.876c5.063-.723,16.892.663,22.82,26.91,7.667,33.949,10.091,21.962,13.527,17.892s-3.412-11.3,3.01-19.154c4.048-4.953,5.973-12.067,6.89-17.849A186.378,186.378,0,0,0,2955.028,247.2c.24,5.942-.6,26.69-24.931,18.831,0,0-15.185-6.722-10.817,22.156s15.716-2.43,18.047-3.688,8.6-3.024,6.386,16.505c0,0-.2,6.759-12.461,5.914s-14.454,5.176-14.365,8.352,1.508,11.478-5.027,17.622-4.126,21.57,4.8,16.153,14.772-21.87,23.008-23.692,16.03,8.685,23.837,5.682,3.877-16.4,7.821-16.509,12.447,7.594,11.433,13.582-13.159,9.111-9.8,16.168,9.992,4.485,12.1,9.193-9.566,10.6-19.2,4.912-10.961,3.09-15.8-.746-5.474-12.161-12.1-9.193-10.411,8.637-18.973,12.852-15.514,9.576-15.357,15.133,3.48,11.424,2.149,20.2-3.418,32.674,24.837,27.108,25.121,9.222,25.166,10.81.233,22.242,3.095,25.737,9.461,13.637.773,27.39-4.287,43.822,3.882,39.619,16.011-19.918,26.038-28.148,23.247-43.166,17.029-53.717,7.731-19.686,9.5-26.887S3016.971,407.791,3013.682,403.117Z" transform="translate(-2903.618 -247.201)" fill="#c6e1f9"/>
            </g>
            <g id="Group_4731" data-name="Group 4731" transform="translate(0 16.596)">
              <path id="Path_5976" data-name="Path 5976" d="M2566.1,301.785a39.227,39.227,0,0,1-4.28,20.691c-11.029,20.679-10.368,30.843-10.916,51.226s26.008,55.535,32.478,59.125,7.2-5.4,7-12.563-3.163-15.672-7.141-23.857-4.127-13.462-3.1-16.885,5.488-4.68,8.578-1.373,10.373,6.112,13.772,3.9c4.177-2.725,2.234-12.878,3.636-16.313s9.573-5.928,12.74-13.183,8.7-10.43,15.339-14.012,12.589-5.259,13.648-7.551-.587-7.527,1.114-13.61S2654.96,304,2653,301.042s-7.71-7.7-17.978.131-12.888,7.907-16.042,2.339,2.794-20.446,15.9-20.816,15.595-4.966,15.873-8.369-3.946-7.055-8.459-7.682-5.187,2.032-23.691,10.1a49.678,49.678,0,0,1-29.333,3.339A186.506,186.506,0,0,0,2566.1,301.785Z" transform="translate(-2550.9 -266.557)" fill="#c6e1f9"/>
            </g>
            <g id="Group_4732" data-name="Group 4732" transform="translate(283.48 205.395)">
              <path id="Path_5977" data-name="Path 5977" d="M3162.992,643.587c-2.812-.546-2,6.312-5.687,7.667s-5.189,3.275-4.063,10.125-.17,15.956-3.8,19.5-8.835,6.192-8.907,14.639-7.6,16.793-12.18,19.737-11.593,7.522-11.39,14.709c.131,4.629.177,10.549,1.374,15.069a186.312,186.312,0,0,0,48.461-91.115C3165.943,649.324,3164.6,643.9,3162.992,643.587Z" transform="translate(-3116.962 -643.556)" fill="#c6e1f9"/>
            </g>
          </g>
        </g>
        <path id="Path_5978" data-name="Path 5978" d="M3074.783,798.148a.751.751,0,0,1-.451-1.352,185.072,185.072,0,0,0,63.807-86.945.751.751,0,0,1,1.417.5A186.57,186.57,0,0,1,3075.233,798,.748.748,0,0,1,3074.783,798.148Z" transform="translate(-2774.22 -456.467)" fill="#1e88e5"/>
        <path id="Path_5979" data-name="Path 5979" d="M3212.291,595.434a.753.753,0,0,1-.729-.937,188.273,188.273,0,0,0,1.951-83.672.751.751,0,1,1,1.472-.3,189.8,189.8,0,0,1-1.967,84.342A.752.752,0,0,1,3212.291,595.434Z" transform="translate(-2842.865 -356.912)" fill="#1e88e5"/>
        <path id="Path_5980" data-name="Path 5980" d="M2583.931,274a.751.751,0,0,1-.552-1.261,184.872,184.872,0,0,1,228.532-34.7.751.751,0,1,1-.754,1.3,183.37,183.37,0,0,0-226.675,34.422A.751.751,0,0,1,2583.931,274Z" transform="translate(-2529.184 -208.772)" fill="#1e88e5"/>
      </g>
      <g id="Group_4746" data-name="Group 4746" transform="translate(2439.706 229.143)">
        <g id="Group_4740" data-name="Group 4740" transform="translate(0 0)">
          <g id="Group_4736" data-name="Group 4736" transform="translate(0 32.753)">
            <path id="Path_5981" data-name="Path 5981" d="M2491.633,633.6h197.955a8.628,8.628,0,0,0,8.8-9.751l-29.671-272.811c-.937-7.307-4.947-11.461-11.094-11.461H2459.664a8.716,8.716,0,0,0-8.942,8.331l29.992,275.941A11.208,11.208,0,0,0,2491.633,633.6Z" transform="translate(-2450.722 -337.584)" fill="#1e88e5"/>
            <path id="Path_5982" data-name="Path 5982" d="M2511.417,632.913h197.956a8.66,8.66,0,0,0,8.8-9.81L2688.5,348.632c-.937-7.352-4.947-11.531-11.094-11.531H2479.448a8.738,8.738,0,0,0-8.942,8.382L2500.5,623.1A11.233,11.233,0,0,0,2511.417,632.913Z" transform="translate(-2460.598 -336.35)" fill="#fff"/>
            <path id="Path_5983" data-name="Path 5983" d="M2621.492,642.456h0l-111.077-.106a12.016,12.016,0,0,1-11.665-10.481L2468.5,355.333a.751.751,0,1,1,1.493-.163l30.245,276.537a10.478,10.478,0,0,0,10.172,9.141l111.077.106a.751.751,0,0,1,0,1.5Z" transform="translate(-2459.597 -345.035)" fill="#1e88e5"/>
            <path id="Path_5984" data-name="Path 5984" d="M2691.906,381.123a.751.751,0,0,1-.744-.659l-4.889-39.59-.1-.079a14.913,14.913,0,0,0-9.466-3.691H2478.75a7.945,7.945,0,0,0-8.144,7.118.752.752,0,0,1-1.493-.175,9.524,9.524,0,0,1,9.637-8.445h197.959a16.3,16.3,0,0,1,10.281,3.921l.579-.413,5.084,41.171a.751.751,0,0,1-.653.838A.735.735,0,0,1,2691.906,381.123Z" transform="translate(-2459.9 -335.601)" fill="#1e88e5"/>
          </g>
          <g id="Group_4739" data-name="Group 4739" transform="translate(69.022)">
            <g id="Group_4737" data-name="Group 4737" transform="translate(0 24.136)">
              <path id="Path_5985" data-name="Path 5985" d="M2597.128,349.694h92.1a3.774,3.774,0,0,0,3.834-4.274l-2.3-21.251a4.894,4.894,0,0,0-4.758-4.274h-92.1a3.773,3.773,0,0,0-3.834,4.274l2.3,21.251A4.894,4.894,0,0,0,2597.128,349.694Z" transform="translate(-2589.297 -319.143)" fill="#8ec3f2"/>
              <path id="Path_5986" data-name="Path 5986" d="M2688.476,349.7h-92.1a5.67,5.67,0,0,1-5.5-4.944l-2.3-21.251a4.524,4.524,0,0,1,4.581-5.106h92.1a5.669,5.669,0,0,1,5.5,4.945l2.3,21.251a4.522,4.522,0,0,1-4.58,5.106Zm-95.318-29.8a3.023,3.023,0,0,0-3.087,3.442l2.3,21.251a4.131,4.131,0,0,0,4.011,3.6h92.1a3.023,3.023,0,0,0,3.087-3.442l-2.3-21.251a4.132,4.132,0,0,0-4.011-3.6Z" transform="translate(-2588.548 -318.394)" fill="#1e88e5"/>
            </g>
            <g id="Group_4738" data-name="Group 4738" transform="translate(31.799)">
              <path id="Path_5987" data-name="Path 5987" d="M2669,271.7a15.116,15.116,0,0,0-15.348,17.153l2.778,25.708a4.792,4.792,0,0,0,4.657,4.185h25.992a3.694,3.694,0,0,0,3.753-4.185l-2.778-25.708A19.6,19.6,0,0,0,2669,271.7Zm3.5,23.493a7.907,7.907,0,0,1-8.7-7.817,6.1,6.1,0,0,1,5.387-6.005,7.907,7.907,0,0,1,8.7,7.817A6.1,6.1,0,0,1,2672.5,295.191Z" transform="translate(-2652.795 -270.947)" fill="#8ec3f2"/>
              <path id="Path_5988" data-name="Path 5988" d="M2686.326,318.745h-25.992a5.567,5.567,0,0,1-5.4-4.855l-2.778-25.708a15.866,15.866,0,0,1,16.094-17.984,20.413,20.413,0,0,1,19.8,17.823l2.777,25.708a4.444,4.444,0,0,1-4.5,5.016Zm-18.08-47.045a14.365,14.365,0,0,0-14.6,16.321l2.778,25.708a4.029,4.029,0,0,0,3.911,3.514h25.992a2.944,2.944,0,0,0,3.006-3.352l-2.778-25.708A18.874,18.874,0,0,0,2668.246,271.7Zm2.6,23.55a8.529,8.529,0,0,1-5.675-2.231,8.443,8.443,0,0,1-2.876-6.409,6.872,6.872,0,0,1,6.043-6.736,8.659,8.659,0,0,1,9.547,8.576,6.871,6.871,0,0,1-6.043,6.736A7.8,7.8,0,0,1,2670.846,295.251Zm.9-.808h0Zm-2.414-13.127a6.379,6.379,0,0,0-.805.051,5.38,5.38,0,0,0-4.73,5.274,7.156,7.156,0,0,0,7.854,7.058,5.38,5.38,0,0,0,4.73-5.274,6.944,6.944,0,0,0-2.377-5.262A7.029,7.029,0,0,0,2669.333,281.315Z" transform="translate(-2652.045 -270.198)" fill="#1e88e5"/>
            </g>
          </g>
        </g>
        <g id="Group_4745" data-name="Group 4745" transform="translate(30.037 72.769)">
          <g id="Group_4743" data-name="Group 4743" transform="translate(11.084 78.45)">
            <path id="Path_5989" data-name="Path 5989" d="M2570.4,767.3a3.6,3.6,0,0,1-.379-.02,3.769,3.769,0,0,1-3.014-2.161l-3.7-7.491a2.754,2.754,0,0,1,4.94-2.438l2.142,4.342,4.856-9.31a2.754,2.754,0,0,1,4.885,2.547l-6.729,12.9-.114.159A3.56,3.56,0,0,1,2570.4,767.3Z" transform="translate(-2547.905 -660.311)" fill="#1e88e5"/>
            <path id="Path_5990" data-name="Path 5990" d="M2560.16,680.148a3.749,3.749,0,0,1-3.408-2.181l-3.7-7.491a2.754,2.754,0,1,1,4.94-2.437l2.142,4.342,4.856-9.31a2.755,2.755,0,0,1,4.885,2.547l-6.729,12.9-.115.159A3.506,3.506,0,0,1,2560.16,680.148Z" transform="translate(-2542.786 -616.802)" fill="#1e88e5"/>
            <path id="Path_5991" data-name="Path 5991" d="M2551.054,598.4a3.581,3.581,0,0,1-.38-.02,3.77,3.77,0,0,1-3.013-2.161l-3.7-7.491a2.754,2.754,0,1,1,4.94-2.437l2.143,4.342,4.855-9.31a2.755,2.755,0,0,1,4.885,2.547l-6.729,12.9-.115.16A3.558,3.558,0,0,1,2551.054,598.4Z" transform="translate(-2538.249 -575.994)" fill="#1e88e5"/>
            <path id="Path_5992" data-name="Path 5992" d="M2556.212,597.718h-16.642a5.068,5.068,0,0,1-4.92-4.421l-1.789-16.558a4.06,4.06,0,0,1,4.11-4.582h16.641a5.067,5.067,0,0,1,4.92,4.42l1.79,16.559a4.062,4.062,0,0,1-4.111,4.582Zm-19.241-24.058a2.559,2.559,0,0,0-2.617,2.918l1.789,16.559a3.531,3.531,0,0,0,3.427,3.079h16.642a2.561,2.561,0,0,0,2.617-2.918l-1.789-16.558a3.53,3.53,0,0,0-3.427-3.079Z" transform="translate(-2532.834 -572.157)"/>
            <path id="Path_5993" data-name="Path 5993" d="M2580.652,851.044a3.606,3.606,0,0,1-.38-.02,3.769,3.769,0,0,1-3.013-2.16l-3.7-7.491a2.754,2.754,0,1,1,4.94-2.437l2.142,4.342,4.856-9.31a2.754,2.754,0,0,1,4.885,2.548l-6.729,12.9-.115.16A3.557,3.557,0,0,1,2580.652,851.044Z" transform="translate(-2553.024 -702.114)" fill="#1e88e5"/>
            <g id="Group_4741" data-name="Group 4741" transform="translate(4.482 41.488)">
              <path id="Path_5994" data-name="Path 5994" d="M2565.162,680.562H2548.52a5.067,5.067,0,0,1-4.92-4.42l-1.79-16.559a4.061,4.061,0,0,1,4.11-4.581h16.641a5.069,5.069,0,0,1,4.921,4.42l1.789,16.559a4.061,4.061,0,0,1-4.11,4.581ZM2545.92,656.5a2.561,2.561,0,0,0-2.617,2.918l1.79,16.559a3.528,3.528,0,0,0,3.426,3.079h16.642a2.559,2.559,0,0,0,2.616-2.918l-1.789-16.559a3.529,3.529,0,0,0-3.427-3.079Z" transform="translate(-2541.783 -655.002)"/>
            </g>
            <path id="Path_5995" data-name="Path 5995" d="M2575.168,766.215h-16.642a5.068,5.068,0,0,1-4.921-4.42l-1.789-16.558a4.061,4.061,0,0,1,4.11-4.582h16.641a5.068,5.068,0,0,1,4.921,4.42l1.789,16.558a4.061,4.061,0,0,1-4.11,4.582Zm-19.241-24.058a2.56,2.56,0,0,0-2.617,2.918l1.789,16.558a3.531,3.531,0,0,0,3.427,3.079h16.642a2.559,2.559,0,0,0,2.616-2.918L2576,745.237a3.53,3.53,0,0,0-3.427-3.079Z" transform="translate(-2542.297 -656.272)"/>
            <g id="Group_4742" data-name="Group 4742" transform="translate(14.256 126.704)">
              <path id="Path_5996" data-name="Path 5996" d="M2584.678,850.724h-16.641a5.067,5.067,0,0,1-4.92-4.42l-1.789-16.559a4.06,4.06,0,0,1,4.109-4.582h16.642a5.067,5.067,0,0,1,4.92,4.42l1.79,16.558a4.061,4.061,0,0,1-4.111,4.582Zm-19.241-24.058a2.56,2.56,0,0,0-2.616,2.918l1.789,16.558a3.531,3.531,0,0,0,3.427,3.079h16.641a2.561,2.561,0,0,0,2.617-2.918l-1.789-16.559a3.53,3.53,0,0,0-3.427-3.079Z" transform="translate(-2561.301 -825.163)"/>
            </g>
          </g>
          <g id="Group_4744" data-name="Group 4744" transform="translate(51.38 4.979)">
            <path id="Path_5997" data-name="Path 5997" d="M2775.3,503.516h-96.46c-1.412,0-2.724-1.581-2.932-3.531s.769-3.531,2.181-3.531h96.46c1.412,0,2.724,1.581,2.932,3.531S2776.709,503.516,2775.3,503.516Z" transform="translate(-2644.539 -460.894)" fill="#8ec3f2"/>
            <path id="Path_5998" data-name="Path 5998" d="M2765.512,538.575h-82.821c-1.412,0-2.724-1.581-2.931-3.531s.769-3.531,2.181-3.531h82.821c1.412,0,2.724,1.581,2.931,3.531S2766.924,538.575,2765.512,538.575Z" transform="translate(-2646.463 -478.396)" fill="#8ec3f2"/>
            <path id="Path_5999" data-name="Path 5999" d="M2769.143,432.509h-96.46c-1.412,0-2.724-1.581-2.931-3.531s.769-3.531,2.181-3.531h96.46c1.412,0,2.724,1.581,2.931,3.531S2770.554,432.509,2769.143,432.509Z" transform="translate(-2641.466 -425.447)" fill="#8ec3f2"/>
            <path id="Path_6000" data-name="Path 6000" d="M2759.467,471.443h-82.821c-1.411,0-2.724-1.581-2.932-3.531s.769-3.531,2.181-3.531h82.821c1.411,0,2.724,1.581,2.932,3.531S2760.879,471.443,2759.467,471.443Z" transform="translate(-2643.445 -444.883)" fill="#8ec3f2"/>
            <path id="Path_6001" data-name="Path 6001" d="M2740.4,599.966H2617.222a4.014,4.014,0,0,1-3.9-3.506,3.1,3.1,0,0,1,3.145-3.506h123.175a4.015,4.015,0,0,1,3.9,3.506A3.1,3.1,0,0,1,2740.4,599.966Z" transform="translate(-2613.299 -509.068)" fill="#8ec3f2"/>
            <path id="Path_6002" data-name="Path 6002" d="M2690.626,635.383h-69.291a4.014,4.014,0,0,1-3.9-3.506,3.1,3.1,0,0,1,3.145-3.506h69.291a4.014,4.014,0,0,1,3.9,3.506A3.1,3.1,0,0,1,2690.626,635.383Z" transform="translate(-2615.352 -526.748)" fill="#8ec3f2"/>
            <path id="Path_6003" data-name="Path 6003" d="M2758.631,681.012H2625.673a4.015,4.015,0,0,1-3.9-3.506,3.1,3.1,0,0,1,3.145-3.506h132.958a4.014,4.014,0,0,1,3.9,3.506A3.1,3.1,0,0,1,2758.631,681.012Z" transform="translate(-2617.518 -549.526)" fill="#8ec3f2"/>
            <path id="Path_6004" data-name="Path 6004" d="M2743.768,717.1H2629.61a4.014,4.014,0,0,1-3.9-3.506,3.1,3.1,0,0,1,3.145-3.506H2743.01a4.015,4.015,0,0,1,3.9,3.506A3.1,3.1,0,0,1,2743.768,717.1Z" transform="translate(-2619.483 -567.544)" fill="#8ec3f2"/>
            <path id="Path_6005" data-name="Path 6005" d="M2764.914,766.475H2634.659a4.014,4.014,0,0,1-3.9-3.506,3.1,3.1,0,0,1,3.144-3.506h130.256a4.015,4.015,0,0,1,3.9,3.506A3.1,3.1,0,0,1,2764.914,766.475Z" transform="translate(-2622.003 -592.19)" fill="#8ec3f2"/>
            <path id="Path_6006" data-name="Path 6006" d="M2708.356,799.429h-69.291a4.015,4.015,0,0,1-3.9-3.506,3.1,3.1,0,0,1,3.145-3.506H2707.6a4.015,4.015,0,0,1,3.9,3.506A3.1,3.1,0,0,1,2708.356,799.429Z" transform="translate(-2624.203 -608.641)" fill="#8ec3f2"/>
            <path id="Path_6007" data-name="Path 6007" d="M2777.389,846.7H2644.431a4.015,4.015,0,0,1-3.9-3.506,3.1,3.1,0,0,1,3.145-3.506h132.958a4.014,4.014,0,0,1,3.9,3.506A3.1,3.1,0,0,1,2777.389,846.7Z" transform="translate(-2626.882 -632.238)" fill="#8ec3f2"/>
            <path id="Path_6008" data-name="Path 6008" d="M2762.526,882.791H2648.368a4.015,4.015,0,0,1-3.9-3.506,3.1,3.1,0,0,1,3.145-3.506h114.158a4.015,4.015,0,0,1,3.9,3.506A3.1,3.1,0,0,1,2762.526,882.791Z" transform="translate(-2628.847 -650.256)" fill="#8ec3f2"/>
          </g>
          <path id="Path_6009" data-name="Path 6009" d="M2578.875,475.413h-59.548a2.344,2.344,0,0,1-2.418-1.953l-6.2-55.574a2.279,2.279,0,0,1,2.419-2.382h59.548a2.344,2.344,0,0,1,2.419,1.953l6.2,55.574A2.279,2.279,0,0,1,2578.875,475.413Z" transform="translate(-2510.701 -415.505)" fill="#8ec3f2"/>
        </g>
      </g>
      <g id="Group_4751" data-name="Group 4751" transform="translate(2560.727 303.487)">
        <path id="Path_6010" data-name="Path 6010" d="M2743.659,683.653s-14.036-35.275-5.766-42.719c.433-.389,6.019-.96,11.74,4.274,5.4,4.941,10.965,15.694,10.965,15.694l1.835,24.352Z" transform="translate(-2713.799 -529.496)"/>
        <path id="Path_6011" data-name="Path 6011" d="M2773.29,912.9s5.059-23.779,9.425-38.323c7.043-23.462,22.464-50.012,22.464-50.012l78.67-15.4s19.5,27.462,28.015,74.536c0,0-16.771,14.476-44.274,20.144C2846.26,908.238,2809.061,914.724,2773.29,912.9Z" transform="translate(-2732.772 -613.596)"/>
        <g id="Group_4747" data-name="Group 4747" transform="translate(132.94 69.286)">
          <path id="Path_6012" data-name="Path 6012" d="M2962.262,578.6s5.47,1.179,9.77,7.818c8.58,13.248,21.839,37.343,43.055,40.943,31.849,5.4,51.145-33.346,48.408-42.027a23.728,23.728,0,0,0-12.089-7.909s-.079-6.056,6.455-3.187,9.149,1.117,12.069.432c5.135-1.2,16.045-13.538,20.11-15.106s2.795,1.821,2.795,1.821,3.984-4.482,6.726-2.236l-5.851,7.732s4.733-6.254,7.477-3.112L3088.944,578.1l8.972-7.045s1.248,1.375-1.1,3.814-11.885,15.74-21.02,15.74c0,0,4.92,73.382-50.027,76.362-47.208,2.56-66.431-35.522-66.431-35.522Z" transform="translate(-2958.59 -557.76)" fill="#fff"/>
          <path id="Path_6013" data-name="Path 6013" d="M3020.573,667.083a70.808,70.808,0,0,1-46.958-17.1,68.452,68.452,0,0,1-15.693-18.953.748.748,0,0,1-.08-.38l2.922-52.845a.751.751,0,0,1,.908-.693c.236.051,5.824,1.323,10.242,8.144.811,1.251,1.663,2.6,2.559,4.017,8.4,13.3,21.106,33.389,39.991,36.594,17.436,2.96,29.89-7.9,35.76-14.639,9.066-10.406,12.969-22.227,11.843-26.3a23.115,23.115,0,0,0-11.588-7.53.751.751,0,0,1-.573-.72c0-.115-.014-2.822,1.91-4.1,1.352-.9,3.235-.825,5.6.212,5.194,2.279,7.687,1.529,10.1.8.486-.146.989-.3,1.5-.417,2.7-.633,7.4-4.82,11.555-8.513,3.513-3.126,6.547-5.826,8.456-6.562,1.655-.638,2.789-.619,3.473.056a1.708,1.708,0,0,1,.414.671c1.577-1.279,4.214-2.8,6.382-1.021a.751.751,0,0,1,.123,1.035l-2.087,2.758a4.054,4.054,0,0,1,1.157-.223,3.12,3.12,0,0,1,2.522,1.138.752.752,0,0,1,.006.982l-7.33,8.576,3.023-2.374a.751.751,0,0,1,1.02.086c.07.077,1.688,1.928-1.112,4.839-.339.353-.856.968-1.511,1.748-3.755,4.467-11.437,13.606-19.262,14.193.224,5.613.821,40.4-17.378,60.952-8.413,9.5-19.649,14.694-33.4,15.439Q3022.776,667.085,3020.573,667.083Zm-61.219-36.56a69.21,69.21,0,0,0,15.289,18.358c9.658,8.285,26.231,17.885,50.34,16.58,13.328-.723,24.211-5.746,32.348-14.931,19.323-21.812,17-60.245,16.97-60.631a.751.751,0,0,1,.75-.8c7.393,0,15.456-9.592,18.9-13.688.672-.8,1.2-1.433,1.579-1.822a3.925,3.925,0,0,0,1.2-1.993l-8.068,6.335a.751.751,0,0,1-1.036-1.079l11.761-13.762a1.534,1.534,0,0,0-.851-.207c-1.834.064-4.212,2.69-4.973,3.7a.751.751,0,0,1-1.2-.906l5.338-7.053c-2.144-.715-5.021,2.473-5.052,2.508a.751.751,0,0,1-1.264-.763c.147-.4.2-.987.052-1.135-.111-.11-.647-.195-1.874.278-1.654.638-4.735,3.38-8,6.283-4.494,4-9.141,8.134-12.211,8.854-.464.109-.923.247-1.408.393-2.549.766-5.437,1.634-11.135-.867-1.279-.561-3.038-1.076-4.158-.339a3.244,3.244,0,0,0-1.2,2.271,24.4,24.4,0,0,1,11.892,8.025.765.765,0,0,1,.116.226c1.529,4.849-3.066,17.484-12.106,27.86-6.077,6.975-18.982,18.215-37.144,15.133-19.546-3.317-32.463-23.751-41.01-37.273-.894-1.413-1.742-2.756-2.549-4a17.885,17.885,0,0,0-8.444-7.217Z" transform="translate(-2957.841 -557.002)"/>
        </g>
        <path id="Path_6014" data-name="Path 6014" d="M3204.659,574.709a.751.751,0,0,1-.536-1.278l10.266-10.464a.751.751,0,1,1,1.072,1.052L3205.2,574.484A.75.75,0,0,1,3204.659,574.709Z" transform="translate(-2947.74 -490.581)"/>
        <path id="Path_6015" data-name="Path 6015" d="M3213,582.306a.751.751,0,0,1-.536-1.278l6.961-7.085A.751.751,0,1,1,3220.5,575l-6.962,7.085A.749.749,0,0,1,3213,582.306Z" transform="translate(-2951.905 -496.061)"/>
        <path id="Path_6016" data-name="Path 6016" d="M3176.437,606.279a.752.752,0,0,1-.684-1.06c.131-.289,3.271-7.075,8.422-6.017a14.846,14.846,0,0,0,7.479-.233.751.751,0,0,1,.526,1.408,16.19,16.19,0,0,1-8.306.3c-3.989-.815-6.725,5.1-6.752,5.164A.752.752,0,0,1,3176.437,606.279Z" transform="translate(-2933.651 -508.642)"/>
        <path id="Path_6017" data-name="Path 6017" d="M2740.493,617.136s96.682-27.1,116.221-23.841l6.834,45.554,12.929,34.848a28.564,28.564,0,0,1-5.6,29.2c-8.057,8.813-21.453,18.128-42.437,19.073-40.738,1.835-60.556,11.875-62.716-6.128S2761,654.66,2761,654.66C2754.49,637.48,2746.564,617.63,2740.493,617.136Z" transform="translate(-2716.399 -505.698)" fill="#1e88e5"/>
        <g id="Group_4749" data-name="Group 4749" transform="translate(0 0)">
          <path id="Path_6018" data-name="Path 6018" d="M2764.257,491.533c-4.084,4.361-9.4,5.423-11.972,5.934-5.372,1.067-28.448,3.408-44.827-13.3-16.039-16.36-18.875-44.066-10.432-50.134,6.062-4.356,16.376,3.564,25.5-3.188,4.041-2.99,2.95-5.232,7.245-8.4,7.235-5.343,16.923-3.852,24.342-2.608,13.546,2.272,13.278,6,25.212,8.4,17,3.427,26.308-2.36,29.848,2.9,2.821,4.19-.169,12.207-4.491,16.977-8.945,9.869-20.942,2.434-27.756,11.475-4.232,5.615-3.247,13-9.3,26.7A17.97,17.97,0,0,1,2764.257,491.533Z" transform="translate(-2692.382 -418.649)"/>
          <g id="Group_4748" data-name="Group 4748" transform="translate(47.435 28.466)">
            <path id="Path_6019" data-name="Path 6019" d="M2827.19,533.178c-.582-1.7-1.2-3.652-1.8-5.628,3.865,1.386,7.851,1.423,10.142.026,2.826-1.723,3.208-4.9,4.2-8.7a10.6,10.6,0,0,1,2.339-5.117,8.492,8.492,0,0,1,2.7-1.913,2.471,2.471,0,0,0,1.31-2.989l-.335-.7a46.7,46.7,0,0,1-4.522-17.542l-.687-12.018c-6.683-2.3-9.054-1.749-9.9-.668-.311.4-.786.674-.678,2.523.522,8.928-7.55,8.38-14.346,7.048s-3.861,11.017-3.861,11.017-4.42-5.195-8.842-.3c-3.168,3.507,3.552,8.7,7.616,11.358l-1.466,25.945a17.893,17.893,0,0,1-10.938,15.489l-9.522,4.121s39.254,1.244,66.479-14.281h-17.342A11.262,11.262,0,0,1,2827.19,533.178Z" transform="translate(-2787.85 -476.242)" fill="#fff"/>
            <path id="Path_6020" data-name="Path 6020" d="M2789.7,555.149c-1.166,0-1.824-.018-1.873-.02a.751.751,0,0,1-.274-1.44l9.522-4.121a17.251,17.251,0,0,0,10.486-14.842l1.442-25.514c-3.677-2.448-7.965-5.952-8.382-9.183a3.7,3.7,0,0,1,.982-3.067,6.264,6.264,0,0,1,4.737-2.346,6.627,6.627,0,0,1,3.532,1.2c-.381-2.6-.627-6.81,1.3-8.81a3.947,3.947,0,0,1,3.84-.989c4.118.807,9.175,1.447,11.738-.792,1.3-1.137,1.862-2.928,1.714-5.475-.1-1.781.29-2.394.74-2.914.033-.039.066-.076.1-.115,1.377-1.762,4.788-1.628,10.736.42a.754.754,0,0,1,.506.668l.687,12.018a45.741,45.741,0,0,0,4.45,17.26l.335.7a.667.667,0,0,1,.039.1,3.222,3.222,0,0,1-1.714,3.9,7.729,7.729,0,0,0-2.46,1.742,9.041,9.041,0,0,0-2.046,4.348l-.115.446c-.14.534-.268,1.056-.392,1.563-.782,3.192-1.457,5.947-4.147,7.588-2.211,1.349-5.72,1.511-9.4.484.488,1.578.948,3,1.37,4.234a10.465,10.465,0,0,0,9.838,7.163h17.342a.751.751,0,0,1,.372,1.4C2830.993,554.27,2797.873,555.149,2789.7,555.149Zm16.564-59.031a4.82,4.82,0,0,0-3.545,1.852,2.224,2.224,0,0,0-.607,1.867c.274,2.131,3.219,5.177,8.077,8.358a.752.752,0,0,1,.339.671l-1.467,25.945a18.76,18.76,0,0,1-11.4,16.139l-6.2,2.685c9.886-.133,38.22-1.548,59.913-12.786H2836.99a11.966,11.966,0,0,1-11.26-8.179c-.547-1.6-1.155-3.5-1.805-5.653a.751.751,0,0,1,.972-.924c3.691,1.324,7.419,1.36,9.5.092,2.161-1.318,2.739-3.677,3.47-6.663.126-.515.257-1.044.4-1.586l.112-.436a10.552,10.552,0,0,1,2.4-5,9.223,9.223,0,0,1,2.934-2.083,1.716,1.716,0,0,0,.918-2.034l-.31-.646a47.209,47.209,0,0,1-4.594-17.824l-.659-11.512c-6.315-2.11-8.091-1.387-8.587-.754-.046.058-.094.115-.143.172-.223.258-.454.525-.377,1.845.175,3-.574,5.251-2.226,6.694-3.055,2.668-8.561,2.007-13.015,1.134a2.518,2.518,0,0,0-2.468.556c-1.834,1.908-1,7.541-.518,9.551a.751.751,0,0,1-1.3.661,6.432,6.432,0,0,0-4.119-2.136Z" transform="translate(-2787.102 -475.49)"/>
          </g>
          <path id="Path_6021" data-name="Path 6021" d="M2850.477,565.454a.749.749,0,0,1-.213-.031c-7.643-2.255-11.225-12.452-11.374-12.885a.751.751,0,0,1,1.421-.488c.034.1,3.482,9.9,10.378,11.933a.751.751,0,0,1-.212,1.472Z" transform="translate(-2765.5 -484.99)"/>
        </g>
        <g id="Group_4750" data-name="Group 4750" transform="translate(15.245 89.106)">
          <path id="Path_6022" data-name="Path 6022" d="M2734.783,626.008l18.146,31.175s5.906,18.992,23.437,20.848,47.182-26.884,58.1-42.9,29.373-37.3,33.128-37.048S2896.909,613,2896.909,613s-.085,3.35-6.737,1.487l3.42,2.4s-1.853,2.27-6.616.725-12.007-4.253-12.007-4.253l7.525,5.432s-.54,2.358-4.615.866-11.506-3.1-15.413-3.1-32.827,130-86.621,122.364S2714.192,659.915,2734.783,626.008Z" transform="translate(-2723.571 -597.327)" fill="#fff"/>
          <path id="Path_6023" data-name="Path 6023" d="M2779.665,739.25a33.17,33.17,0,0,1-4.672-.333c-25.031-3.556-37.775-20.129-44.058-33.407-5.775-12.2-8.629-27.2-8.035-42.216.576-14.584,4.3-28.23,10.494-38.424a.752.752,0,0,1,.642-.361h.007a.751.751,0,0,1,.643.373l18.145,31.175a.76.76,0,0,1,.068.154c.058.185,5.977,18.543,22.8,20.324,7.487.793,18.486-4.387,30.975-14.583,10.058-8.212,20.43-19.2,26.423-28a269.13,269.13,0,0,1,19.307-24.7c7.441-8.414,12.281-12.678,14.392-12.678.034,0,.067,0,.1,0,3.817.258,27.009,13.511,29.641,15.021a.749.749,0,0,1,.377.67,2.7,2.7,0,0,1-1.141,2,4.957,4.957,0,0,1-3.174.777l.679.477a.751.751,0,0,1,.151,1.09c-.089.109-2.237,2.648-7.429.964-2.1-.68-4.687-1.59-6.928-2.4l3.118,2.25a.751.751,0,0,1,.292.777,2.517,2.517,0,0,1-1.263,1.549c-1.054.572-2.516.523-4.343-.145a57.765,57.765,0,0,0-14.951-3.054c-.815,1-2.849,7.042-5.192,14C2845.621,663.572,2820.147,739.249,2779.665,739.25Zm-45.635-112.506c-12.159,21.107-12.957,54.411-1.737,78.123,6.125,12.944,18.542,29.1,42.911,32.563a31.722,31.722,0,0,0,4.461.318c39.4,0,64.639-74.974,75.642-107.662,4.359-12.949,5.15-15.028,6.412-15.028,4.047,0,11.612,1.662,15.671,3.147,1.749.64,2.656.482,3.11.235a1.213,1.213,0,0,0,.257-.185l-6.974-5.034a.751.751,0,0,1,.7-1.313c.073.027,7.284,2.72,11.976,4.243,2.671.866,4.283.444,5.11.013l-2.578-1.809a.751.751,0,0,1,.634-1.339c3.31.927,4.691.442,5.22.07a1.413,1.413,0,0,0,.432-.473c-10.234-5.857-25.9-14.359-28.486-14.534l-.047,0c-3.066,0-20.232,18.854-32.41,36.723-10.624,15.59-38.971,43.313-57.068,43.316a16.355,16.355,0,0,1-1.73-.089c-17.2-1.821-23.574-19.869-24.047-21.285Z" transform="translate(-2722.823 -596.579)"/>
        </g>
      </g>
      <g id="Group_4753" data-name="Group 4753" transform="translate(2686.012 222.397)">
        <path id="Path_6024" data-name="Path 6024" d="M3009.036,468.719,2983.5,524.3l22.535-9.765,8.263,23.286,24.037-63.1Z" transform="translate(-2962.993 -362.554)" fill="#1e88e5"/>
        <path id="Path_6025" data-name="Path 6025" d="M3083.49,465.494l25.539,62.346,9.014-29.295,27.042,7.512-39.811-56.336Z" transform="translate(-3012.911 -353.07)" fill="#1e88e5"/>
        <g id="Group_4752" data-name="Group 4752" transform="translate(0 0)">
          <path id="Path_6026" data-name="Path 6026" d="M3013.293,258.226l8.74,14.058,12.656-10.67,3.968,16.071,15.334-6.236L3052.8,287.96l16.51-1.193-6.236,15.334,16.071,3.968-10.669,12.656,14.058,8.74-14.058,8.74,10.669,12.656-16.071,3.968,6.236,15.334-16.51-1.193,1.193,16.511-15.334-6.237-3.968,16.071-12.656-10.67-8.74,14.058-8.74-14.058-12.656,10.67-3.968-16.071-15.334,6.237,1.193-16.511-16.51,1.193,6.237-15.334-16.071-3.968,10.67-12.656-14.058-8.74,14.058-8.74-10.67-12.656,16.071-3.968-6.237-15.334,16.51,1.193-1.193-16.511,15.334,6.236,3.968-16.071,12.656,10.67Z" transform="translate(-2943.304 -257.475)" fill="#1e88e5"/>
          <path id="Path_6027" data-name="Path 6027" d="M3012.545,396.705a.751.751,0,0,1-.638-.355l-8.281-13.321-11.992,10.11a.751.751,0,0,1-1.214-.395l-3.76-15.228-14.53,5.91a.752.752,0,0,1-1.032-.75l1.131-15.645-15.645,1.13a.751.751,0,0,1-.75-1.032l5.909-14.53-15.227-3.759a.751.751,0,0,1-.394-1.213l10.109-11.992-13.321-8.281a.752.752,0,0,1,0-1.276l13.321-8.281L2946.121,305.8a.751.751,0,0,1,.394-1.213l15.227-3.759-5.909-14.53a.752.752,0,0,1,.088-.725.761.761,0,0,1,.662-.307l15.645,1.13-1.131-15.645a.751.751,0,0,1,1.032-.75l14.53,5.909,3.76-15.228a.751.751,0,0,1,1.214-.395l11.992,10.11,8.281-13.321a.751.751,0,0,1,1.275,0l8.282,13.321,11.992-10.11a.751.751,0,0,1,1.213.395l3.76,15.228,14.53-5.909a.751.751,0,0,1,1.032.75l-1.13,15.645,15.645-1.13a.763.763,0,0,1,.662.307.751.751,0,0,1,.088.725l-5.909,14.53,15.228,3.759a.751.751,0,0,1,.394,1.213L3068.859,317.8l13.321,8.281a.751.751,0,0,1,0,1.276l-13.321,8.281,10.109,11.992a.751.751,0,0,1-.394,1.213l-15.228,3.759,5.909,14.53a.751.751,0,0,1-.75,1.032l-15.645-1.13,1.13,15.645a.751.751,0,0,1-1.032.75l-14.53-5.91-3.76,15.228a.751.751,0,0,1-1.213.395l-11.992-10.11-8.282,13.321A.75.75,0,0,1,3012.545,396.705Zm-8.74-15.561a.717.717,0,0,1,.118.01.751.751,0,0,1,.52.346l8.1,13.032,8.1-13.032a.751.751,0,0,1,1.122-.178l11.732,9.891,3.678-14.9a.751.751,0,0,1,1.012-.516l14.215,5.782-1.106-15.306a.752.752,0,0,1,.8-.8l15.3,1.106-5.781-14.215a.751.751,0,0,1,.516-1.012l14.9-3.678-9.891-11.733a.751.751,0,0,1,.177-1.122l13.032-8.1-13.032-8.1a.751.751,0,0,1-.177-1.122l9.891-11.733-14.9-3.678a.75.75,0,0,1-.516-1.012l5.781-14.215-15.3,1.106a.751.751,0,0,1-.8-.8l1.106-15.305-14.215,5.781a.751.751,0,0,1-1.012-.516l-3.678-14.9-11.732,9.891a.743.743,0,0,1-.6.167.752.752,0,0,1-.521-.345l-8.1-13.032-8.1,13.032a.751.751,0,0,1-1.122.178l-11.733-9.891-3.678,14.9a.751.751,0,0,1-1.012.516l-14.215-5.781,1.106,15.305a.751.751,0,0,1-.8.8l-15.3-1.106,5.781,14.215a.75.75,0,0,1-.516,1.012l-14.9,3.678,9.891,11.733a.751.751,0,0,1-.177,1.122l-13.032,8.1,13.032,8.1a.751.751,0,0,1,.177,1.122l-9.891,11.733,14.9,3.678a.75.75,0,0,1,.516,1.012l-5.781,14.215,15.3-1.106a.762.762,0,0,1,.586.218.753.753,0,0,1,.218.585l-1.106,15.306L2986.9,375.8a.751.751,0,0,1,1.012.516l3.678,14.9,11.733-9.891A.752.752,0,0,1,3003.805,381.144Z" transform="translate(-2942.555 -256.726)"/>
        </g>
        <circle id="Ellipse_44" data-name="Ellipse 44" cx="48.325" cy="48.325" r="48.325" transform="translate(22.256 21.283)" fill="#fff"/>
      </g>
    </g>
  </g>
</svg>
