<svg xmlns="http://www.w3.org/2000/svg" width="550" height="449" viewBox="0 0 550 449">
  <g id="Group_4723" data-name="Group 4723" transform="translate(-980 -1052)">
    <rect id="Rectangle_2407" data-name="Rectangle 2407" width="550" height="449" transform="translate(980 1052)" fill="none"/>
    <g id="Contract_of_carriage" data-name="Contract of carriage" transform="translate(-281.159 887.558)">
      <path id="Path_6028" data-name="Path 6028" d="M1350.888,312.108c-8.787,19.461-21.795,56.718-16.567,103.057,6.708,59.454,39.916,106.327,72.218,132.667,107.19,87.4,303.412,30.938,329.4-51.393,4.714-14.937,3.389-29.342,1.758-47.069-5.187-56.379-32.51-73.137-50.886-133-16.723-54.479-.235-60.609-15.873-84.829-33.921-52.538-131.839-55.186-199.214-30C1445.843,211.218,1383.045,240.9,1350.888,312.108Z" transform="translate(0 0)" fill="#c6e1f9"/>
      <g id="Group_4759" data-name="Group 4759" transform="translate(1354.366 202.05)">
        <g id="Group_4756" data-name="Group 4756" transform="translate(0)">
          <path id="Path_6029" data-name="Path 6029" d="M1760.259,244.635a24.224,24.224,0,0,0-24.232-24.335L1462,220.219a24.288,24.288,0,0,0-24.24,24.329l.012,312.779-61.229-.037a30.783,30.783,0,0,0,21.492,29.316,30.334,30.334,0,0,0,9.1,1.388l274.159-.006a30.645,30.645,0,0,0,30.585-30.709l-.1-312.652Z" transform="translate(-1376.545 -219.485)" fill="#fff"/>
          <g id="Group_4755" data-name="Group 4755" transform="translate(22.151)">
            <path id="Path_6030" data-name="Path 6030" d="M1438.3,939.824a.734.734,0,0,1,0-1.468,29.95,29.95,0,0,0,29.856-29.977.734.734,0,0,1,1.468,0A31.42,31.42,0,0,1,1438.3,939.824Z" transform="translate(-1429.865 -570.589)"/>
            <path id="Path_6031" data-name="Path 6031" d="M2061.008,244.665a.734.734,0,0,1-.734-.734,25.041,25.041,0,0,1,24.964-25.061.734.734,0,1,1,0,1.468,23.572,23.572,0,0,0-23.5,23.594A.734.734,0,0,1,2061.008,244.665Z" transform="translate(-1747.911 -218.796)" fill="#1e88e5"/>
            <path id="Path_6032" data-name="Path 6032" d="M1774.947,334.6a.734.734,0,0,1-.734-.733l-.03-90a.735.735,0,0,1,.734-.734l47.738.007a23.575,23.575,0,0,0-23.487-22.867l-274.026-.08a23.578,23.578,0,0,0-23.506,23.6v27.552a.734.734,0,1,1-1.468,0l0-27.551a25.047,25.047,0,0,1,24.974-25.064l274.026.08a25.046,25.046,0,0,1,24.965,25.07.735.735,0,0,1-.734.734l-47.749-.007.03,89.266A.734.734,0,0,1,1774.947,334.6Z" transform="translate(-1461.836 -218.719)" fill="#1e88e5"/>
            <path id="Path_6033" data-name="Path 6033" d="M1476.615,971.013h0l-46.377-.045a31.126,31.126,0,0,1-7.869-1.007.734.734,0,1,1,.371-1.42,29.7,29.7,0,0,0,7.5.959l46.377.045a.734.734,0,0,1,0,1.468Z" transform="translate(-1421.82 -601.679)"/>
            <path id="Path_6034" data-name="Path 6034" d="M1556.058,971.9a.734.734,0,0,1,0-1.468l87.14,0a.734.734,0,1,1,0,1.468Z" transform="translate(-1490.007 -602.655)" fill="#1e88e5"/>
            <path id="Path_6035" data-name="Path 6035" d="M1912.587,971.89a.734.734,0,0,1,0-1.468h16.749a.734.734,0,1,1,0,1.468Z" transform="translate(-1672.105 -602.652)" fill="#1e88e5"/>
            <path id="Path_6036" data-name="Path 6036" d="M1995.4,939.8h-3.134a.734.734,0,1,1,0-1.468h3.134a29.889,29.889,0,0,0,29.734-29.975.734.734,0,1,1,1.468,0A31.358,31.358,0,0,1,1995.4,939.8Z" transform="translate(-1712.8 -570.579)" fill="#1e88e5"/>
          </g>
        </g>
        <g id="Group_4757" data-name="Group 4757" transform="translate(100.231 79.421)">
          <path id="Path_6037" data-name="Path 6037" d="M1581.413,385.716a4.676,4.676,0,0,0,4.686,4.666h191.433a4.666,4.666,0,1,0,0-9.331H1586.1A4.676,4.676,0,0,0,1581.413,385.716Z" transform="translate(-1581.413 -381.051)" fill="#8ec3f2"/>
          <path id="Path_6038" data-name="Path 6038" d="M1581.413,556.39a4.676,4.676,0,0,0,4.686,4.665h170.678a4.666,4.666,0,1,0,0-9.331H1586.1A4.676,4.676,0,0,0,1581.413,556.39Z" transform="translate(-1581.413 -468.223)" fill="#8ec3f2"/>
          <path id="Path_6039" data-name="Path 6039" d="M1654.09,865.234a4.676,4.676,0,0,0,4.686,4.665H1692.9a4.666,4.666,0,1,0,0-9.331h-34.121A4.676,4.676,0,0,0,1654.09,865.234Z" transform="translate(-1618.533 -625.965)" fill="#8ec3f2"/>
          <path id="Path_6040" data-name="Path 6040" d="M1586.1,637.061a4.675,4.675,0,0,0-4.676,4.978,4.785,4.785,0,0,0,4.837,4.355h109a4.666,4.666,0,1,0,0-9.332Z" transform="translate(-1581.413 -511.808)" fill="#8ec3f2"/>
          <path id="Path_6041" data-name="Path 6041" d="M1928.4,637.061h-46.6a4.666,4.666,0,1,0,0,9.332h46.76a4.674,4.674,0,0,0,4.675-4.978A4.785,4.785,0,0,0,1928.4,637.061Z" transform="translate(-1732.444 -511.808)" fill="#8ec3f2"/>
          <path id="Path_6042" data-name="Path 6042" d="M1867.213,593.891H1762a4.666,4.666,0,1,0,0,9.332h105.374a4.675,4.675,0,0,0,4.675-4.978A4.785,4.785,0,0,0,1867.213,593.891Z" transform="translate(-1671.255 -489.759)" fill="#8ec3f2"/>
          <path id="Path_6043" data-name="Path 6043" d="M1911.407,678.938H1834.8a4.666,4.666,0,1,0,0,9.333h76.769a4.676,4.676,0,0,0,4.676-4.978A4.786,4.786,0,0,0,1911.407,678.938Z" transform="translate(-1708.436 -533.197)" fill="#8ec3f2"/>
          <path id="Path_6044" data-name="Path 6044" d="M1586.1,593.891a4.675,4.675,0,0,0-4.676,4.978,4.786,4.786,0,0,0,4.837,4.355h54.076a4.666,4.666,0,1,0,0-9.332Z" transform="translate(-1581.413 -489.759)" fill="#8ec3f2"/>
          <path id="Path_6045" data-name="Path 6045" d="M1586.1,508.554a4.675,4.675,0,0,0-4.676,4.978,4.785,4.785,0,0,0,4.837,4.355h118.368a4.666,4.666,0,1,0,0-9.332Z" transform="translate(-1581.413 -446.173)" fill="#8ec3f2"/>
          <path id="Path_6046" data-name="Path 6046" d="M1948.486,508.554h-27.361a4.666,4.666,0,1,0,0,9.332h27.522a4.674,4.674,0,0,0,4.675-4.978A4.785,4.785,0,0,0,1948.486,508.554Z" transform="translate(-1752.528 -446.173)" fill="#8ec3f2"/>
          <path id="Path_6047" data-name="Path 6047" d="M1586.1,423.217a4.675,4.675,0,0,0-4.676,4.978,4.786,4.786,0,0,0,4.837,4.355H1626.2a4.666,4.666,0,1,0,0-9.333Z" transform="translate(-1581.413 -402.587)" fill="#8ec3f2"/>
          <path id="Path_6048" data-name="Path 6048" d="M1853.217,423.217H1734.6a4.666,4.666,0,1,0,0,9.333h118.781a4.675,4.675,0,0,0,4.675-4.978A4.785,4.785,0,0,0,1853.217,423.217Z" transform="translate(-1657.259 -402.587)" fill="#8ec3f2"/>
          <path id="Path_6049" data-name="Path 6049" d="M1586.1,466.388a4.675,4.675,0,0,0-4.676,4.978,4.786,4.786,0,0,0,4.837,4.355h49.8a4.666,4.666,0,1,0,0-9.332Z" transform="translate(-1581.413 -424.637)" fill="#8ec3f2"/>
          <path id="Path_6050" data-name="Path 6050" d="M1869.181,466.388H1765.854a4.666,4.666,0,1,0,0,9.332h103.489a4.674,4.674,0,0,0,4.675-4.978A4.785,4.785,0,0,0,1869.181,466.388Z" transform="translate(-1673.223 -424.637)" fill="#8ec3f2"/>
        </g>
        <path id="Path_6051" data-name="Path 6051" d="M1633.454,813.776a.734.734,0,0,1-.637-1.1l9.634-16.927a3.44,3.44,0,0,1,5.881-.169l3,4.634a1.971,1.971,0,0,0,3.314,0l2.985-4.611a3.439,3.439,0,0,1,5.89.185l8.366,14.889a1.972,1.972,0,0,0,3.476-.061l11.224-21.7a3.44,3.44,0,0,1,6.14.047l2.949,5.92a.734.734,0,0,1-1.314.654l-2.948-5.92a1.943,1.943,0,0,0-1.753-1.1h-.016a1.941,1.941,0,0,0-1.753,1.071l-11.224,21.7a3.44,3.44,0,0,1-6.059.106l-8.366-14.889a1.972,1.972,0,0,0-3.379-.107l-2.985,4.611a3.44,3.44,0,0,1-5.779,0l-3-4.634a1.972,1.972,0,0,0-3.373.1l-9.634,16.927A.733.733,0,0,1,1633.454,813.776Z" transform="translate(-1507.387 -508.997)" fill="#1e88e5"/>
      </g>
      <g id="Group_4772" data-name="Group 4772" transform="translate(1334.106 397.865)">
        <g id="Group_4765" data-name="Group 4765" transform="translate(0)">
          <path id="Path_6060" data-name="Path 6060" d="M1397.416,648.788c4.654-3.085,12.42-1.423,15.409,6.328,2.442,6.331-3.021,11.218-4.4,15.887-4.476,15.1,10.005,47.339.167,63.8-7.849,13.132-29.678,22.816-48.506,14.627-17.9-7.786-30.073-26.527-22.81-41.868,6.528-13.791,18.863-7.269,26.352-20.863,7.384-13.4.606-19.71,6.006-26.42C1377.016,651.1,1384.226,657.533,1397.416,648.788Z" transform="translate(-1335.136 -633.447)"/>
          <g id="Group_4761" data-name="Group 4761" transform="translate(23.461)">
            <g id="Group_4760" data-name="Group 4760" transform="translate(115.783)">
              <path id="Path_6061" data-name="Path 6061" d="M1624.693,621.951l-2.962,9.526a9.767,9.767,0,0,0,1.317,8.725l3.321,4.784a4.819,4.819,0,0,1,.72,2.717c.041,2.162-.283,5.461-.283,5.461l7.912.13s-.869-4.188-1.268-5.626a8.181,8.181,0,0,1,.274-5.586,22.212,22.212,0,0,0,1.8-11.055l-5.42,1.453a14.746,14.746,0,0,1-1.36-7.866,7.348,7.348,0,0,0-.3-2.866A1.964,1.964,0,0,0,1624.693,621.951Z" transform="translate(-1620.508 -619.723)" fill="#fff"/>
              <path id="Path_6062" data-name="Path 6062" d="M1633.955,653.262h-.012l-7.912-.13a.734.734,0,0,1-.718-.806c0-.032.319-3.282.28-5.375a4.079,4.079,0,0,0-.59-2.312l-3.32-4.784a10.529,10.529,0,0,1-1.411-9.374l2.953-9.5a2.707,2.707,0,0,1,2.523-2.024,2.612,2.612,0,0,1,2.628,1.781,8.141,8.141,0,0,1,.335,3.152,15.263,15.263,0,0,0,1.023,6.954l4.835-1.3a.734.734,0,0,1,.917.612,22.765,22.765,0,0,1-1.858,11.46,7.451,7.451,0,0,0-.233,5.083c.4,1.445,1.244,5.5,1.28,5.674a.733.733,0,0,1-.718.883Zm-7.111-1.584,6.2.1c-.277-1.307-.792-3.687-1.068-4.681a8.912,8.912,0,0,1,.315-6.09,21.651,21.651,0,0,0,1.8-9.811l-4.57,1.225a.735.735,0,0,1-.823-.338,15.391,15.391,0,0,1-1.46-8.283,6.719,6.719,0,0,0-.257-2.58,1.153,1.153,0,0,0-1.179-.8,1.22,1.22,0,0,0-1.167.941c0,.012-.007.024-.011.037l-2.962,9.526a9.066,9.066,0,0,0,1.214,8.081l3.326,4.792a5.593,5.593,0,0,1,.851,3.121C1627.089,648.473,1626.938,650.555,1626.844,651.677Zm-2.914-30.492h0Z" transform="translate(-1619.745 -618.957)"/>
            </g>
            <path id="Path_6063" data-name="Path 6063" d="M1520.572,712.4c6.911.769,27.738,10.01,39.879-2.506s12.74-29.15,12.74-29.15l11.879-1.03a61.982,61.982,0,0,1-.309,42.253c-8.66,23.211-50.378,31.374-50.378,31.374Z" transform="translate(-1453.309 -649.99)" fill="#1e88e5"/>
            <path id="Path_6064" data-name="Path 6064" d="M1465.006,749.67c-14.051-7.965-39.257-7.217-51.8-1.765-22.256,9.671-35.242,86.049-28.186,102.485,6.444,15.01,61.69,18.039,77.069,5.134,6.552-5.5,4.485-38.17,3.375-51.226q-.506-5.953-.5-11.93Z" transform="translate(-1383.089 -682.694)" fill="#1e88e5"/>
          </g>
          <g id="Group_4762" data-name="Group 4762" transform="translate(52.85 27.144)">
            <path id="Path_6065" data-name="Path 6065" d="M1448.361,690.109a.786.786,0,0,0,.818-.876c-.248-2.313-.985-6.653,1.22-8.6,2.826-2.5,7.533-6.292,9.356-3.97,1.6,2.035,3.214,6.167,7.075,7.7.37.147.407.684.242,1.047l-.809,2.059a3.017,3.017,0,0,0,.151,1.769c.536,1.284,1.774,3.962,1.534,4.525-.468,1.1-4.685,3.052-4.685,3.052l2.79,13.088c.106.5.436,1.32.922,1.2l5.151.384s-.32,7.094-11.273,9.053c-14.314,2.559-16.195-7.08-16.195-7.08s13.993-.222,7.9-15.54a1.021,1.021,0,0,0-.793-.63c-1.361-.207-5.125-.951-5.84-3.384C1445.165,691.325,1446.7,690.037,1448.361,690.109Z" transform="translate(-1443.924 -675.205)" fill="#fff"/>
            <path id="Path_6066" data-name="Path 6066" d="M1455.579,720.938c-10.689,0-12.39-8.01-12.408-8.1a.733.733,0,0,1,.709-.874c.051,0,5.2-.137,7.538-3.652,1.669-2.511,1.565-6.172-.309-10.883a.287.287,0,0,0-.222-.177c-2.068-.315-5.652-1.24-6.434-3.9a3.763,3.763,0,0,1,.439-3.555,3.228,3.228,0,0,1,2.733-1.183.056.056,0,0,0,.043-.016.059.059,0,0,0,.014-.049c-.021-.2-.047-.413-.073-.639-.3-2.612-.764-6.558,1.537-8.59,4.007-3.539,6.658-5.037,8.577-4.864a2.583,2.583,0,0,1,1.842.991,22.712,22.712,0,0,1,1.286,1.917c1.254,2,2.814,4.5,5.484,5.558a1.236,1.236,0,0,1,.688.7,1.752,1.752,0,0,1-.05,1.334l-.794,2.023a2.565,2.565,0,0,0,.145,1.218c.082.2.18.426.288.676,1.159,2.7,1.521,3.771,1.244,4.42-.462,1.082-3.01,2.447-4.522,3.179L1466,708.988a2.028,2.028,0,0,0,.236.617l.023,0,5.151.384a.734.734,0,0,1,.679.765c-.014.314-.478,7.7-11.877,9.742A26.389,26.389,0,0,1,1455.579,720.938Zm-10.724-7.582c.806,2.149,4,7.682,15.1,5.7,8.287-1.482,10.142-5.912,10.553-7.657l-4.269-.318a1.146,1.146,0,0,1-.74-.171,2.671,2.671,0,0,1-.934-1.613l-2.79-13.088a.733.733,0,0,1,.408-.818,15.762,15.762,0,0,0,4.291-2.624,19.342,19.342,0,0,0-1.214-3.315c-.11-.255-.21-.489-.294-.69a3.636,3.636,0,0,1-.142-2.355l.794-2.024a.5.5,0,0,0,.041-.15c-3.034-1.263-4.708-3.936-6.056-6.091-.421-.674-.82-1.309-1.2-1.789a1.1,1.1,0,0,0-.821-.435c-1.422-.131-3.942,1.385-7.472,4.5-1.726,1.524-1.3,5.152-1.05,7.319.027.231.052.45.074.653a1.52,1.52,0,0,1-1.579,1.687,1.777,1.777,0,0,0-1.514.621,2.451,2.451,0,0,0-.186,2.237c.573,1.952,3.86,2.654,5.246,2.865a1.758,1.758,0,0,1,1.365,1.085c2.065,5.19,2.119,9.311.161,12.247C1450.507,712.32,1446.646,713.144,1444.855,713.356Z" transform="translate(-1443.158 -674.439)"/>
          </g>
          <g id="Group_4764" data-name="Group 4764" transform="translate(37.289 102.044)">
            <g id="Group_4763" data-name="Group 4763" transform="translate(72.989 44.506)">
              <path id="Path_6067" data-name="Path 6067" d="M1564.336,921.84s8.382-2.988,14.195-1.344c0,0,.868,3.645,3.378,5.269s8.652,2.376,9.825,5.88-11.114,6.878-15.5,5.1-8.346-6.206-12.508-5.995S1564.336,921.84,1564.336,921.84Z" transform="translate(-1561.296 -919.266)" fill="#fff"/>
              <path id="Path_6068" data-name="Path 6068" d="M1578.676,937.185a9.582,9.582,0,0,1-3.476-.529,29.545,29.545,0,0,1-4.984-2.846c-2.506-1.653-4.876-3.213-7.211-3.1a2.142,2.142,0,0,1-2.063-.936c-1.439-2.248,1.4-7.931,1.987-9.047a.737.737,0,0,1,.4-.351c.351-.125,8.672-3.047,14.641-1.359a.736.736,0,0,1,.514.535c.008.033.837,3.383,3.063,4.823a17.345,17.345,0,0,0,3.151,1.357c2.844,1.033,6.067,2.2,6.971,4.907a2.638,2.638,0,0,1-.985,2.864C1588.418,935.64,1582.845,937.185,1578.676,937.185Zm-15.424-7.945c2.7,0,5.278,1.7,7.772,3.344a28.509,28.509,0,0,0,4.727,2.711c3.128,1.269,11.33-.415,13.931-2.859.527-.494.728-.941.6-1.328-.68-2.031-3.549-3.073-6.08-3.994a18.208,18.208,0,0,1-3.447-1.5,9.962,9.962,0,0,1-3.574-5.282c-4.921-1.184-11.661.873-13.085,1.341-1.255,2.475-2.618,6.222-1.917,7.315.056.087.185.289.752.262C1563.038,929.243,1563.146,929.24,1563.252,929.24Z" transform="translate(-1560.54 -918.497)"/>
            </g>
            <path id="Path_6069" data-name="Path 6069" d="M1429.925,829.031l9.769,22.649a17.657,17.657,0,0,0,10.795,9.822l37.478,12.072-.878,13.07s-49.235-4.64-57.75-10.942c-7.969-5.9-17.987-33.125-17.987-33.125Z" transform="translate(-1411.353 -828.297)" fill="#1e88e5"/>
            <path id="Path_6070" data-name="Path 6070" d="M1506.59,873.542a.722.722,0,0,1-.225-.036l-37.478-12.071a18.394,18.394,0,0,1-11.244-10.23l-9.769-22.649a.734.734,0,1,1,1.348-.581l9.769,22.649a16.925,16.925,0,0,0,10.346,9.415l37.478,12.071a.734.734,0,0,1-.225,1.433Z" transform="translate(-1429.975 -827.53)"/>
            <path id="Path_6071" data-name="Path 6071" d="M1484.6,921.582a.658.658,0,0,1-.087-.005c-18.088-2.141-40.853-5.585-46.591-9.833-2.545-1.884-5.515-6-8.829-12.222a.734.734,0,0,1,1.3-.689c3.21,6.032,6.038,9.98,8.407,11.732,5.768,4.27,31.228,7.82,45.891,9.555a.734.734,0,0,1-.086,1.463Z" transform="translate(-1420.367 -863.749)"/>
          </g>
        </g>
        <g id="Group_4766" data-name="Group 4766" transform="translate(116.735 91.846)">
          <path id="Path_6072" data-name="Path 6072" d="M1666.375,814.679c-1.443-6.065-18.436-8.066-20.322-5.216-4.378,6.616-11.893,23.208-15.909,32.338a20.319,20.319,0,0,1-8.777,9.609l-22.674,12.516c-1.207-.311-12.306-3.154-13.413-2.921-1.171.247-2.555,2.443-5.462,4.091s-5.1,2.634-4.412,3.913c.61,1.136,6.063.693,9.9-1a1.976,1.976,0,0,1,2.252.491c1.37,1.512,7.387,4.2,12.79,4.173l36.351-5.989a13.258,13.258,0,0,0,9.135-6.135C1652.777,849.272,1668.307,822.8,1666.375,814.679Z" transform="translate(-1574.524 -807.452)" fill="#fff"/>
          <path id="Path_6073" data-name="Path 6073" d="M1599.487,872.639c-5.377,0-11.643-2.628-13.262-4.414a1.235,1.235,0,0,0-1.412-.313c-3.576,1.58-9.856,2.512-10.842.678-.945-1.759,1.09-2.891,3.668-4.323.33-.183.674-.375,1.029-.576a17.98,17.98,0,0,0,3.381-2.595,5.609,5.609,0,0,1,2.292-1.575c1.11-.233,8.785,1.654,13.465,2.856L1620.224,850a19.691,19.691,0,0,0,8.459-9.261c4.078-9.267,11.574-25.805,15.97-32.448,1.411-2.133,7.326-1.72,10.6-1.139,2.323.411,9.983,2.1,11.051,6.591,1.928,8.1-12.1,32.563-20.629,46.424a13.988,13.988,0,0,1-9.641,6.474l-36.351,5.989A1.19,1.19,0,0,1,1599.487,872.639Zm.073-.734h0Zm-14.26-5.564a2.717,2.717,0,0,1,2.013.9c1.258,1.388,7.111,3.932,12.174,3.932h.012l36.294-5.979a12.52,12.52,0,0,0,8.629-5.8c14.1-22.915,21.75-39.855,20.451-45.315-.564-2.367-4.441-4.521-9.88-5.485-4.632-.821-8.522-.393-9.116.5-4.336,6.552-11.792,23-15.851,32.229a21.171,21.171,0,0,1-9.094,9.956L1598.259,863.8a.735.735,0,0,1-.538.068c-5.873-1.513-12.259-3-13.1-2.91a5.693,5.693,0,0,0-1.581,1.216,19.193,19.193,0,0,1-3.65,2.792c-.359.2-.706.4-1.04.582-1.57.872-3.348,1.861-3.088,2.345.594.548,5.243.315,8.957-1.325A2.666,2.666,0,0,1,1585.3,866.342Z" transform="translate(-1573.736 -806.685)"/>
        </g>
        <g id="Group_4771" data-name="Group 4771" transform="translate(181.532 14.575)">
          <g id="Group_4768" data-name="Group 4768" transform="translate(0 46.923)">
            <path id="Path_6074" data-name="Path 6074" d="M1819.011,798.041s-7.594-37.882-29.262-46.889-55.45-4.011-63.091,1.421-18.979,30.906-18.979,30.906l16.66,22.152s-1.869,31.581.621,52.008a8.028,8.028,0,0,0,8,7.266c5.415-.151,12.952-.44,18.264-.962,9.961-.977,30.847-.493,47.335-.249a6.211,6.211,0,0,0,6.168-7.031l-4.8-58.129Z" transform="translate(-1706.944 -745.444)" fill="#1e88e5"/>
            <path id="Path_6075" data-name="Path 6075" d="M1724.192,857.586a.734.734,0,0,1-.727-.645c-2.348-19.26-.814-48.738-.64-51.871l-16.5-21.937a.732.732,0,0,1-.084-.739c.466-1.047,11.508-25.72,19.225-31.206,7.418-5.274,41.309-10.848,63.8-1.5,21.779,9.053,29.387,45.859,29.7,47.422a.733.733,0,0,1-.7.878l-18.3.473,4.734,57.355a.734.734,0,0,1-1.463.121l-4.8-58.129a.735.735,0,0,1,.712-.794l18.19-.47c-1.293-5.645-9.372-37.493-28.637-45.5-12.757-5.3-28.33-5.189-36.475-4.649-11.351.751-22.005,3.215-25.909,5.99-6.882,4.892-17.09,26.986-18.557,30.214l16.4,21.8a.734.734,0,0,1,.146.484c-.019.315-1.836,31.749.617,51.876a.734.734,0,0,1-.64.817A.7.7,0,0,1,1724.192,857.586Z" transform="translate(-1706.178 -744.657)"/>
            <path id="Path_6076" data-name="Path 6076" d="M1731.45,867.1l41.179-2.085-15.218-45.527-41.179,2.085Z" transform="translate(-1711.313 -782.876)"/>
            <g id="Group_4767" data-name="Group 4767" transform="translate(21.754 43.655)">
              <path id="Path_6077" data-name="Path 6077" d="M1838.411,843.685l-21.311-8.3s4.716,35.3-38.271,21.067a30.315,30.315,0,0,0,.839-9.945c-.487-5.31-3.4,0-3.626,4.346s-10.214,3.094-16.249,1.69-13.787.108.353,7.03,16.984,3.371,16.984,3.371,18.809,23.793,40.406,17.443C1844.1,872.579,1838.411,843.685,1838.411,843.685Z" transform="translate(-1751.419 -834.653)" fill="#fff"/>
              <path id="Path_6078" data-name="Path 6078" d="M1809.332,881.419c-6.891,0-14.126-2.542-21.3-7.533a63.989,63.989,0,0,1-11.81-10.7c-1.545.846-5.979,1.77-17.182-3.715-8.3-4.062-8.709-6.071-8.3-7.229.756-2.125,5.456-1.867,8.433-1.175,5.291,1.23,12.3,2.042,14.637.283a1.639,1.639,0,0,0,.713-1.3c.15-2.869,1.576-7.231,3.387-7.267,1.42-.042,1.637,2.169,1.7,2.891a31.186,31.186,0,0,1-.69,9.528c13.886,4.488,24.056,4.169,30.233-.95,8.046-6.667,6.447-19.408,6.431-19.536a.734.734,0,0,1,.994-.781l21.31,8.3a.735.735,0,0,1,.454.542,41.265,41.265,0,0,1-.481,15.731c-1.776,7.672-6.845,17.685-20.907,21.82A26.963,26.963,0,0,1,1809.332,881.419Zm-32.97-19.983h0a.726.726,0,0,1,.564.29c.185.234,18.754,23.33,39.623,17.193,10.744-3.159,17.436-10.138,19.891-20.743a40.883,40.883,0,0,0,.537-14.725l-19.818-7.717c.224,3.5.181,13.65-7.06,19.649-6.689,5.543-17.55,5.879-32.281,1a.734.734,0,0,1-.475-.9,29.852,29.852,0,0,0,.814-9.676,4.772,4.772,0,0,0-.3-1.462,10.9,10.9,0,0,0-1.865,5.78,3.127,3.127,0,0,1-1.3,2.393c-3.448,2.594-13.006.635-15.852-.027-3.5-.813-6.484-.415-6.717.238-.005.015-.428,1.508,7.559,5.418,13.138,6.432,16.08,3.578,16.108,3.548A.706.706,0,0,1,1776.361,861.436Z" transform="translate(-1750.642 -833.886)"/>
            </g>
          </g>
          <g id="Group_4770" data-name="Group 4770" transform="translate(30.504)">
            <path id="Path_6079" data-name="Path 6079" d="M1787.813,684.972c1.884,1.563,5.5,3.406,8.189,1.874,2-1.14,3.009-3.885,2.784-6.959a4.1,4.1,0,0,0,3.043-.934c1.307-1.283.938-3.5.811-4.967-.587-6.76,3.28-8,2.09-12.545a10.932,10.932,0,0,0-4.418-5.959c-2.77-1.9-4.545-1.149-9.089-2.1-7.648-1.6-8.052-4.857-13.027-4.62-.287.014-7.052.431-9.113,5.242-1.677,3.913.739,8.442,3.117,10.766,3.08,3.009,5.1,1.343,8.164,3.843C1785.746,673,1782.218,680.327,1787.813,684.972Z" transform="translate(-1768.526 -648.748)"/>
            <g id="Group_4769" data-name="Group 4769" transform="translate(2.531 10.633)">
              <path id="Path_6080" data-name="Path 6080" d="M1775.55,685.516l.285-.273c1.428-1.368,2.909-2.947,3.208-4.907,1.271-8.329,8.643-11.7,9.37-4.15.183,1.906,7.127,1.455,6.4,3.5-1.887,5.336-2.006,3.932,1.125,5.7a2.613,2.613,0,0,1,1.019.19c1.592.649,2.25,2.742,1.468,4.674a4.038,4.038,0,0,1-2.358,2.346l.415,8.259a7.629,7.629,0,0,0,5.073,6.817l2.835,1s-12.526,9.143-26.141.49l1.715-.879a8.9,8.9,0,0,0,4.832-8.094l-.067-1.615a6.857,6.857,0,0,1-2.542-.084c-3.731-.888-5.166-5.08-4.806-10.4l-1.537-.732A1.139,1.139,0,0,1,1775.55,685.516Z" transform="translate(-1774.466 -671.248)" fill="#fff"/>
              <path id="Path_6081" data-name="Path 6081" d="M1789.833,712.833a23.407,23.407,0,0,1-12.74-3.81.734.734,0,0,1,.059-1.273l1.715-.879a8.217,8.217,0,0,0,4.432-7.427l-.034-.826a7.166,7.166,0,0,1-2.01-.174c-3.726-.886-5.679-4.761-5.4-10.663l-1.091-.52a1.873,1.873,0,0,1-.49-3.042h0l.285-.273c1.306-1.251,2.721-2.732,2.989-4.487.862-5.644,4.386-9.055,7.107-8.978,2.041.057,3.431,1.876,3.719,4.868.037.385,2.015.835,2.76,1,1.62.369,3.021.687,3.523,1.6a1.449,1.449,0,0,1,.081,1.213c-.276.778-.513,1.414-.709,1.938a10.164,10.164,0,0,0-.588,1.806,5.074,5.074,0,0,0,.674.352c.338.16.751.355,1.255.634a3.315,3.315,0,0,1,1.1.24c1.963.8,2.8,3.325,1.871,5.629a4.851,4.851,0,0,1-2.28,2.547l.389,7.746a6.871,6.871,0,0,0,4.585,6.162l2.835,1a.734.734,0,0,1,.189,1.285A26.582,26.582,0,0,1,1789.833,712.833ZM1779,708.454c10.17,5.749,19.628,1.524,22.946-.357l-1.394-.491a8.333,8.333,0,0,1-5.562-7.473l-.415-8.259a.734.734,0,0,1,.5-.731,3.326,3.326,0,0,0,1.915-1.927c.629-1.555.152-3.224-1.065-3.719a1.887,1.887,0,0,0-.735-.135.741.741,0,0,1-.368-.095c-.533-.3-.971-.509-1.323-.676-1.979-.936-1.736-1.585-.833-4,.194-.517.429-1.145.7-1.913-.16-.35-1.712-.7-2.546-.893-1.847-.42-3.757-.854-3.9-2.294-.213-2.215-1.051-3.506-2.3-3.541-2.1-.049-4.909,3.1-5.616,7.732-.337,2.21-1.945,3.908-3.425,5.325l-.285.273a.4.4,0,0,0-.119.357.4.4,0,0,0,.224.3l1.538.732a.735.735,0,0,1,.417.712c-.173,2.552-.105,8.6,4.244,9.636a6.137,6.137,0,0,0,2.27.071.735.735,0,0,1,.836.7l.066,1.616a9.7,9.7,0,0,1-5.23,8.777Z" transform="translate(-1773.7 -670.481)"/>
            </g>
            <path id="Path_6082" data-name="Path 6082" d="M1793.918,720.933a.734.734,0,0,1-.147-1.453,10.113,10.113,0,0,0,6.647-4.772.734.734,0,0,1,1.309.665,11.494,11.494,0,0,1-7.661,5.544A.731.731,0,0,1,1793.918,720.933Z" transform="translate(-1781.121 -682.232)"/>
          </g>
        </g>
      </g>
      <g id="Group_4775" data-name="Group 4775" transform="translate(1338.813 265.249)">
        <g id="Group_4773" data-name="Group 4773" transform="translate(0 0)">
          <path id="Path_6083" data-name="Path 6083" d="M1345.611,479.132a.734.734,0,0,1-.733-.705,163.781,163.781,0,0,1,12.817-69.627,190.859,190.859,0,0,1,40.668-60.684.734.734,0,0,1,1.046,1.029c-35.516,36.091-54.858,83.192-53.064,129.225a.734.734,0,0,1-.705.762Z" transform="translate(-1344.757 -347.896)" fill="#1e88e5"/>
          <path id="Path_6084" data-name="Path 6084" d="M1369.454,536.809a.734.734,0,0,1-.71-.551,145.866,145.866,0,0,1-.533-70.536,167.075,167.075,0,0,1,31.078-64.087.734.734,0,1,1,1.16.9c-30.806,39.784-41.844,88.392-30.284,133.359a.733.733,0,0,1-.711.917Z" transform="translate(-1354.66 -375.198)" fill="#1e88e5"/>
          <path id="Path_6085" data-name="Path 6085" d="M1449.584,389.373a.734.734,0,0,1-.708-.541l-1.776-6.5a.734.734,0,0,1,.848-.914c3.069.6,6.1,1.461,6.133,1.47a.734.734,0,0,1,.357,1.181l-4.295,5.047A.735.735,0,0,1,1449.584,389.373Zm-.753-6.277,1.095,4.009,2.645-3.109C1451.666,383.757,1450.3,383.412,1448.831,383.1Z" transform="translate(-1397.016 -365.01)" fill="#1e88e5"/>
        </g>
        <g id="Group_4774" data-name="Group 4774" transform="translate(367.978 167.68)">
          <path id="Path_6086" data-name="Path 6086" d="M2110.533,695.9a.734.734,0,0,1-.734-.734v-3.81a.734.734,0,1,1,1.468,0v3.81A.734.734,0,0,1,2110.533,695.9Z" transform="translate(-2103.481 -690.626)" fill="#1e88e5"/>
          <path id="Path_6087" data-name="Path 6087" d="M2110.533,714.047a.734.734,0,0,1-.734-.734V709.5a.734.734,0,1,1,1.468,0v3.81A.734.734,0,0,1,2110.533,714.047Z" transform="translate(-2103.481 -699.893)" fill="#1e88e5"/>
          <path id="Path_6088" data-name="Path 6088" d="M2101.415,705.059h-3.8a.734.734,0,0,1,0-1.468h3.8a.734.734,0,1,1,0,1.468Z" transform="translate(-2096.885 -697.248)" fill="#1e88e5"/>
          <path id="Path_6089" data-name="Path 6089" d="M2119.486,705.059h-3.8a.734.734,0,1,1,0-1.468h3.8a.734.734,0,1,1,0,1.468Z" transform="translate(-2106.115 -697.248)" fill="#1e88e5"/>
        </g>
      </g>
      <g id="Group_4783" data-name="Group 4783" transform="translate(1377.064 265.519)">
        <g id="Group_4776" data-name="Group 4776" transform="translate(117.583 28.412)">
          <path id="Path_6090" data-name="Path 6090" d="M1686.8,408.879l.06-.022-9.38,2.979c-4.363,1.385-13.7,7.415-12.626,10.825s12.167,2.948,16.529,1.563c0,0,9.056-2.764,9.294-2.84,2.146-.682,3-4.031,1.916-7.479C1691.513,410.489,1688.932,408.259,1686.8,408.879Z" transform="translate(-1664.035 -407.671)" fill="#fff"/>
          <ellipse id="Ellipse_45" data-name="Ellipse 45" cx="3.949" cy="6.547" rx="3.949" ry="6.547" transform="translate(19.062 2.366) rotate(-17.433)" fill="#1e88e5"/>
          <path id="Path_6091" data-name="Path 6091" d="M1686.11,428.87l-7.466,2.371c-2.972.944-8.824.98-13.462-.345a2.671,2.671,0,0,0-.33,2.028c1.073,3.4,12.167,2.948,16.529,1.563l8.71-2.766C1688.7,431.743,1687.2,430.641,1686.11,428.87Z" transform="translate(-1664.035 -417.935)" fill="#caddff"/>
          <path id="Path_6092" data-name="Path 6092" d="M1672.426,425.235c-2.829,0-5.571-.353-7.255-1.227a3.333,3.333,0,0,1-1.783-1.894c-1.306-4.146,8.7-10.345,13.1-11.744l8.993-2.856c.084-.027.176-.056.272-.081l.036-.014.08-.028v0c2.538-.7,5.453,1.714,6.654,5.522,1.228,3.893.176,7.582-2.394,8.4-.239.076-8.932,2.729-9.3,2.842A30.645,30.645,0,0,1,1672.426,425.235Zm13.77-16.407-9.259,2.94c-4.706,1.495-12.945,7.375-12.148,9.9a1.957,1.957,0,0,0,1.06,1.032c3.081,1.6,11.007,1.177,14.547.052,3.139-.958,9.109-2.781,9.294-2.84,1.729-.55,2.387-3.553,1.439-6.559-.934-2.96-3.172-5.04-4.889-4.542Z" transform="translate(-1663.272 -406.905)"/>
        </g>
        <g id="Group_4777" data-name="Group 4777" transform="translate(90.827 0)">
          <path id="Path_6093" data-name="Path 6093" d="M1654.451,396.951l-39.174-47-5.191,1.969s13.249,37.123,14.363,42.136.881,13.912.881,13.912Z" transform="translate(-1609.351 -349.213)" fill="#fff"/>
          <path id="Path_6094" data-name="Path 6094" d="M1655.1,394.927l-37.487-44.981-2.95,1.119c4.455,8.157,18.008,33.107,19.319,37.185,1.571,4.888,2.16,13.77,2.16,13.77Z" transform="translate(-1611.691 -349.213)" fill="#1e88e5"/>
          <path id="Path_6095" data-name="Path 6095" d="M1624.563,407.931a.735.735,0,0,1-.734-.753c0-.088.217-8.868-.864-13.734-1.091-4.911-14.205-41.677-14.338-42.048a.734.734,0,0,1,.431-.932l5.191-1.969a.734.734,0,0,1,.824.216l39.174,47a.733.733,0,0,1-.3,1.156l-29.121,11.012A.735.735,0,0,1,1624.563,407.931Zm-14.312-56.351c1.858,5.216,13.106,36.861,14.147,41.546.9,4.052.94,10.454.916,13l27.146-10.265-38.179-45.811Z" transform="translate(-1608.585 -348.447)"/>
        </g>
        <path id="Path_6096" data-name="Path 6096" d="M1453.978,465.106l-1.529-4.853,5.811-2.951-35.091-19.087,11.078-3.518.067.016,44.485,10.75,122.287-35.157c.092-.034,10.944-3.875,20.01,1.574.617.172,7.637,2.183,8.047,5.06.662,4.688-4.576,8.915-16.016,12.923-10.827,3.8-59.158,18.1-87,26.294a157.325,157.325,0,0,1-32.414,5.93Zm-.937-4.6,1.288,4.087,39.342-2.989a156.813,156.813,0,0,0,32.313-5.912c27.842-8.19,76.164-22.494,86.982-26.286,16.622-5.823,15.923-10.767,15.693-12.392-.374-2.631-7.651-4.646-7.724-4.666l-.062-.027c-8.868-5.351-19.529-1.585-19.635-1.546l-122.427,35.2-.063-.015-44.482-10.75-9.853,3.129,34.9,18.983Z" transform="translate(-1423.056 -379.354)" fill="#fff"/>
        <g id="Group_4778" data-name="Group 4778" transform="translate(30.234 51.224)">
          <path id="Path_6097" data-name="Path 6097" d="M1491.571,479.727l-5.336-23.436,4.723-1.645L1505.8,474.4Z" transform="translate(-1485.501 -453.913)" fill="#fff"/>
          <path id="Path_6098" data-name="Path 6098" d="M1490.805,479.695a.735.735,0,0,1-.715-.571l-5.336-23.436a.734.734,0,0,1,.474-.856l4.723-1.644a.733.733,0,0,1,.828.252l14.839,19.753a.734.734,0,0,1-.33,1.128l-14.224,5.327A.742.742,0,0,1,1490.805,479.695ZM1486.33,456l5,21.977,12.519-4.688-13.927-18.542Z" transform="translate(-1484.735 -453.146)"/>
        </g>
        <g id="Group_4779" data-name="Group 4779" transform="translate(114.981 72.874)">
          <path id="Path_6099" data-name="Path 6099" d="M1681.479,499.758c.02-.007.04-.016.06-.022l-9.38,2.979c-4.363,1.386-13.7,7.415-12.625,10.825s12.166,2.948,16.529,1.563c0,0,9.056-2.764,9.294-2.84,2.146-.682,3-4.031,1.916-7.479C1686.2,501.368,1683.614,499.138,1681.479,499.758Z" transform="translate(-1658.717 -498.551)" fill="#fff"/>
          <ellipse id="Ellipse_46" data-name="Ellipse 46" cx="3.949" cy="6.547" rx="3.949" ry="6.547" transform="translate(19.063 2.366) rotate(-17.433)" fill="#1e88e5"/>
          <path id="Path_6100" data-name="Path 6100" d="M1680.792,519.749l-7.466,2.371c-2.972.944-8.824.98-13.462-.345a2.67,2.67,0,0,0-.329,2.028c1.072,3.4,12.166,2.948,16.529,1.563l8.71-2.766C1683.383,522.622,1681.883,521.52,1680.792,519.749Z" transform="translate(-1658.718 -508.814)" fill="#c6e1f9"/>
          <path id="Path_6101" data-name="Path 6101" d="M1667.108,516.114c-2.829,0-5.572-.353-7.255-1.228a3.33,3.33,0,0,1-1.783-1.893c-1.307-4.146,8.7-10.345,13.1-11.744l8.993-2.856c.084-.026.176-.056.272-.081l.036-.014.08-.028v0c2.539-.7,5.453,1.714,6.654,5.522,1.228,3.893.176,7.582-2.394,8.4-.239.076-8.932,2.729-9.3,2.842A30.646,30.646,0,0,1,1667.108,516.114Zm13.769-16.407-9.259,2.941c-4.706,1.494-12.945,7.375-12.148,9.9a1.957,1.957,0,0,0,1.06,1.032c3.081,1.6,11.007,1.177,14.547.052,3.138-.958,9.108-2.781,9.293-2.84,1.729-.549,2.388-3.553,1.439-6.559-.934-2.96-3.173-5.04-4.888-4.542Z" transform="translate(-1657.953 -497.784)"/>
        </g>
        <g id="Group_4780" data-name="Group 4780" transform="translate(0 29.086)">
          <path id="Path_6102" data-name="Path 6102" d="M1479.452,445.955,1601.8,410.779s9.845-3.576,18.642.9c.841.428,8.283,2.676,9.1,5.535.789,2.742-.853,7.4-15.855,12.657-10.967,3.844-60.934,18.625-86.993,26.29a156.761,156.761,0,0,1-32.364,5.921l-39.536,3-1.409-4.47,6.041-3.068-35-19.035,10.465-3.323Z" transform="translate(-1423.705 -408.678)" fill="#fff"/>
          <path id="Path_6103" data-name="Path 6103" d="M1430.431,464.987l-5.993,1.9,35.079,18.851,19.933-5.4Z" transform="translate(-1423.704 -437.056)" fill="#1e88e5"/>
          <path id="Path_6104" data-name="Path 6104" d="M1655.806,418.01c.487,1.149-.867,3.279-7.579,5.626-86.313,30.206-143.831,38.987-163.858,40.493l1.042,3.307,39.536-3a156.767,156.767,0,0,0,32.364-5.921c26.059-7.665,76.025-22.446,86.993-26.29,15-5.255,16.643-9.916,15.855-12.657-.822-2.86-8.264-5.108-9.105-5.535C1651.053,414.029,1654.867,415.8,1655.806,418.01Z" transform="translate(-1454.314 -411.029)" fill="#1e88e5"/>
          <path id="Path_6105" data-name="Path 6105" d="M1808.1,409.793a24.537,24.537,0,0,0-4.185-.365c2.105,1.248,3.96,2.989,3.906,4.108-.068,1.409-2.826,3.594-4.29,4.657a1.169,1.169,0,0,0-.3,1.566l.679,1.087a1.159,1.159,0,0,0,1.646.34c3.71-2.6,6.484-5.394,6.2-7.23C1811.482,412.178,1809.712,410.747,1808.1,409.793Z" transform="translate(-1617.083 -408.679)" fill="#1e88e5"/>
          <path id="Path_6106" data-name="Path 6106" d="M1454.035,465.038a.734.734,0,0,1-.7-.513l-1.408-4.47a.734.734,0,0,1,.367-.875l4.8-2.435-33.769-18.368a.734.734,0,0,1,.128-1.344l10.465-3.323a.732.732,0,0,1,.395-.014l44.359,10.72,122.14-35.115c.682-.243,10.356-3.555,19.2.944.11.055.49.2.892.348,3.859,1.444,7.9,3.244,8.585,5.638.935,3.248-1.138,8.235-16.317,13.553-10.838,3.8-59.178,18.109-87.029,26.3a157.8,157.8,0,0,1-32.515,5.949l-39.535,3Zm-.521-4.831,1.047,3.321,38.955-2.959a156.313,156.313,0,0,0,32.212-5.893c27.837-8.188,76.151-22.49,86.957-26.279,14.841-5.2,16.014-9.6,15.392-11.762-.577-2.007-5.93-4.01-7.689-4.669-.581-.218-.868-.326-1.043-.415-8.415-4.28-17.963-.9-18.059-.863l-.048.015-122.349,35.176a.729.729,0,0,1-.375.008l-44.349-10.717-8.628,2.74,33.483,18.213a.734.734,0,0,1-.018,1.3Z" transform="translate(-1422.938 -407.898)"/>
        </g>
        <g id="Group_4781" data-name="Group 4781" transform="translate(17.314 81.732)">
          <path id="Path_6107" data-name="Path 6107" d="M1459.828,541.27l5.661-1.418L1487.253,517l-14.885,1.415Z" transform="translate(-1459.094 -516.269)" fill="#fff"/>
          <path id="Path_6108" data-name="Path 6108" d="M1459.062,541.238a.734.734,0,0,1-.643-1.087l12.541-22.852a.734.734,0,0,1,.574-.378l14.885-1.414a.734.734,0,0,1,.6,1.237l-21.765,22.849a.733.733,0,0,1-.353.205l-5.661,1.418A.737.737,0,0,1,1459.062,541.238Zm13-22.892-11.545,21.038,3.824-.958,20.263-21.273Z" transform="translate(-1458.328 -515.503)"/>
        </g>
        <g id="Group_4782" data-name="Group 4782" transform="translate(63.335 62.043)">
          <path id="Path_6109" data-name="Path 6109" d="M1626.876,476.76l-63.554,75.591-9.429,1.43s28.031-42.555,31.578-48.549,7.5-19.191,7.5-19.191Z" transform="translate(-1553.159 -476.026)" fill="#fff"/>
          <path id="Path_6110" data-name="Path 6110" d="M1603.4,501.763c-3.324,5.573-30.443,41.517-36.771,51.074l3.2-.485,63.554-75.591-22.374,6.162C1609.7,486.986,1606.4,496.725,1603.4,501.763Z" transform="translate(-1559.663 -476.026)" fill="#1e88e5"/>
          <path id="Path_6111" data-name="Path 6111" d="M1553.126,553.749a.734.734,0,0,1-.612-1.138c.28-.425,28.061-42.609,31.559-48.519,3.462-5.847,7.39-18.9,7.429-19.028a.735.735,0,0,1,.509-.5l33.9-9.281a.734.734,0,0,1,.755,1.18l-63.554,75.591a.733.733,0,0,1-.452.253l-9.429,1.43A.7.7,0,0,1,1553.126,553.749Zm39.664-67.874c-.7,2.274-4.2,13.471-7.454,18.964-3.154,5.328-25.846,39.841-30.691,47.2l7.527-1.141,61.861-73.578Z" transform="translate(-1552.393 -475.26)"/>
        </g>
      </g>
      <g id="Group_4815" data-name="Group 4815" transform="translate(1631.34 322.92)">
        <g id="Group_4810" data-name="Group 4810" transform="translate(0 33.582)">
          <ellipse id="Ellipse_47" data-name="Ellipse 47" cx="16.438" cy="15.881" rx="16.438" ry="15.881" transform="translate(0 32.559) rotate(-82.041)" fill="#fff"/>
          <path id="Path_6133" data-name="Path 6133" d="M1961.934,571.427a16.042,16.042,0,0,1-8.045-2.172,16.754,16.754,0,0,1-7.866-10.493,17.589,17.589,0,0,1-.471-6,.734.734,0,1,1,1.461.136,16.154,16.154,0,0,0,.432,5.5,15.3,15.3,0,0,0,7.178,9.584,14.577,14.577,0,0,0,11.32,1.418,15.936,15.936,0,0,0,10.823-19.283,15.3,15.3,0,0,0-7.178-9.584,14.571,14.571,0,0,0-11.319-1.418,15.376,15.376,0,0,0-8.863,6.7.734.734,0,0,1-1.244-.778,16.84,16.84,0,0,1,9.71-7.338,16.029,16.029,0,0,1,12.45,1.56,16.756,16.756,0,0,1,7.866,10.493,17.412,17.412,0,0,1-11.849,21.058A16.266,16.266,0,0,1,1961.934,571.427Z" transform="translate(-1944.101 -535.781)"/>
          <g id="Group_4809" data-name="Group 4809" transform="translate(12.464 8.605)">
            <path id="Path_6134" data-name="Path 6134" d="M1975.159,571.536l-.56-2.2a9.048,9.048,0,0,1-4.07.078l-.016-2.9a7.939,7.939,0,0,0,3.985-.029c1.28-.36,2.025-1.115,1.79-2.041-.223-.88-1.083-1.233-2.892-1.345-2.614-.158-4.547-.855-5.119-3.1-.519-2.037.467-4.025,2.745-5.186l-.56-2.2,2.2-.618.519,2.037a8.1,8.1,0,0,1,3.45-.151l.015,2.8a7.463,7.463,0,0,0-3.433.122c-1.459.411-1.766,1.191-1.6,1.839.194.764,1.1,1.029,3.2,1.233,2.919.221,4.32,1.191,4.851,3.275.524,2.06-.442,4.216-2.906,5.405l.6,2.361Z" transform="translate(-1968.142 -551.999)" fill="#1e88e5"/>
          </g>
        </g>
        <g id="Group_4812" data-name="Group 4812" transform="translate(38.614 0)">
          <ellipse id="Ellipse_48" data-name="Ellipse 48" cx="20.39" cy="19.698" rx="20.39" ry="19.698" transform="matrix(0.12, -0.993, 0.993, 0.12, 0, 40.483)" fill="#fff"/>
          <path id="Path_6135" data-name="Path 6135" d="M2045.046,511.062a19.727,19.727,0,0,1-9.54-2.472,20.6,20.6,0,0,1-9.934-12.7,21.646,21.646,0,0,1-.73-7.365.734.734,0,0,1,1.465.107,20.2,20.2,0,0,0,.68,6.867,19.147,19.147,0,0,0,9.228,11.809,18.248,18.248,0,0,0,14.21,1.484c10.073-3.056,15.929-14,13.053-24.4a19.147,19.147,0,0,0-9.228-11.81,18.25,18.25,0,0,0-14.21-1.484,19.247,19.247,0,0,0-10.92,8.618.734.734,0,0,1-1.261-.753,20.714,20.714,0,0,1,11.755-9.27,19.7,19.7,0,0,1,15.344,1.6,20.6,20.6,0,0,1,9.935,12.7c3.086,11.161-3.213,22.914-14.041,26.2A20,20,0,0,1,2045.046,511.062Z" transform="translate(-2023.221 -467.327)"/>
          <g id="Group_4811" data-name="Group 4811" transform="translate(15.064 10.394)">
            <path id="Path_6136" data-name="Path 6136" d="M2061.4,511.179l-.75-2.712a11.222,11.222,0,0,1-5.045.2l-.094-3.593a9.845,9.845,0,0,0,4.942-.138c1.578-.479,2.483-1.434,2.167-2.577-.3-1.085-1.375-1.5-3.621-1.594-3.246-.129-5.661-.944-6.427-3.713-.695-2.513.477-5,3.272-6.5l-.75-2.713,2.712-.823.694,2.513a10.04,10.04,0,0,1,4.274-.275l.089,3.47a9.248,9.248,0,0,0-4.254.239c-1.8.546-2.159,1.522-1.937,2.321.26.942,1.395,1.248,4,1.448,3.625.2,5.389,1.367,6.1,3.937.7,2.541-.441,5.24-3.467,6.777l.805,2.912Z" transform="translate(-2052.381 -487.015)" fill="#1e88e5"/>
          </g>
        </g>
        <g id="Group_4814" data-name="Group 4814" transform="translate(30.262 66.04)">
          <ellipse id="Ellipse_49" data-name="Ellipse 49" cx="16.394" cy="15.924" rx="16.394" ry="15.924" transform="translate(0 18.697) rotate(-34.768)" fill="#fff"/>
          <path id="Path_6137" data-name="Path 6137" d="M2032.409,645.852a16.619,16.619,0,0,1-9.38-2.863,16.143,16.143,0,0,1-6.864-10.56,16.815,16.815,0,0,1,2.893-12.789,17.514,17.514,0,0,1,4.255-4.238.734.734,0,1,1,.842,1.2,16.037,16.037,0,0,0-3.9,3.884,15.354,15.354,0,0,0-2.648,11.68,14.688,14.688,0,0,0,6.244,9.607,15.819,15.819,0,0,0,21.645-4.17,15.356,15.356,0,0,0,2.648-11.68,14.689,14.689,0,0,0-6.244-9.607,15.314,15.314,0,0,0-10.821-2.456.734.734,0,1,1-.209-1.453,16.773,16.773,0,0,1,11.854,2.694,16.145,16.145,0,0,1,6.864,10.56,16.812,16.812,0,0,1-2.893,12.788A17.531,17.531,0,0,1,2032.409,645.852Z" transform="translate(-2010.33 -606.616)"/>
          <g id="Group_4813" data-name="Group 4813" transform="translate(14.778 13.98)">
            <path id="Path_6138" data-name="Path 6138" d="M2036.105,645.154l1.309-1.85a9.092,9.092,0,0,1-2.689-3.067l2.191-1.885a7.986,7.986,0,0,0,2.6,3.034c1.1.748,2.157.831,2.708.052.524-.74.237-1.627-.847-3.085-1.57-2.1-2.291-4.036-.953-5.925,1.212-1.714,3.361-2.244,5.715-1.25l1.31-1.85,1.892,1.286-1.213,1.713a8.142,8.142,0,0,1,2.344,2.545l-2.117,1.82a7.506,7.506,0,0,0-2.312-2.551c-1.255-.852-2.046-.583-2.432-.037-.455.642-.068,1.51,1.132,3.249,1.719,2.379,1.887,4.08.646,5.833-1.226,1.733-3.49,2.387-5.986,1.268L2038,646.44Z" transform="translate(-2034.725 -629.328)" fill="#1e88e5"/>
          </g>
        </g>
      </g>
    </g>
  </g>
</svg>
