<svg xmlns="http://www.w3.org/2000/svg" width="550" height="449" viewBox="0 0 550 449">
  <g id="Group_4721" data-name="Group 4721" transform="translate(-980 -1052)">
    <rect id="Rectangle_2407" data-name="Rectangle 2407" width="550" height="449" transform="translate(980 1052)" fill="none"/>
    <g id="Logistics_hub" data-name="Logistics hub" transform="translate(-287.285 892.492)">
      <g id="Group_4667" data-name="Group 4667" transform="translate(1347.398 185.167)">
        <g id="Group_4661" data-name="Group 4661">
          <g id="Group_4653" data-name="Group 4653" transform="translate(56.977 0)">
            <path id="Path_5808" data-name="Path 5808" d="M1475.189,274.38c.937-.312,87.479-87.713,87.479-87.713l33.53,15.456H1568.6l-61.861,61.861-31.554,16.15Z" transform="translate(-1474.439 -185.918)" fill="#fff"/>
            <path id="Path_5809" data-name="Path 5809" d="M1474.438,280.134a.75.75,0,0,1-.75-.749v-5.755a.749.749,0,0,1,.362-.642c2.177-1.722,58.02-57.993,87.334-87.6a.751.751,0,0,1,.847-.153l33.53,15.456a.749.749,0,0,1-.314,1.43h-27.283l-61.642,61.642a.741.741,0,0,1-.188.137l-31.554,16.15A.753.753,0,0,1,1474.438,280.134Zm.749-6.178v4.2l30.358-15.538,61.778-61.778a.75.75,0,0,1,.53-.219h24.177l-29.951-13.806c-2.954,2.983-23.057,23.28-43.019,43.367C1483.891,265.575,1476.787,272.532,1475.188,273.956Zm-.989-1.037h0Zm0,0h0Z" transform="translate(-1473.689 -185.167)" fill="#1e88e5"/>
          </g>
          <g id="Group_4654" data-name="Group 4654" transform="translate(39.617 23.858)">
            <path id="Path_5810" data-name="Path 5810" d="M1440.447,279.225v-7.479l20.481-37.332v44.811Z" transform="translate(-1439.697 -233.664)" fill="#fff"/>
            <path id="Path_5811" data-name="Path 5811" d="M1460.177,279.223H1439.7a.749.749,0,0,1-.749-.75V271a.745.745,0,0,1,.092-.36l20.481-37.332a.749.749,0,0,1,1.406.361v44.81A.749.749,0,0,1,1460.177,279.223Zm-19.731-1.5h18.982V236.587l-18.982,34.6Z" transform="translate(-1438.947 -232.914)" fill="#1e88e5"/>
          </g>
          <g id="Group_4655" data-name="Group 4655" transform="translate(39.617 100.486)">
            <rect id="Rectangle_2394" data-name="Rectangle 2394" width="20.481" height="35.941" transform="translate(0.749 0.75)" fill="#8ec3f2"/>
            <path id="Path_5812" data-name="Path 5812" d="M1460.177,423.709H1439.7a.749.749,0,0,1-.749-.749V387.019a.749.749,0,0,1,.749-.75h20.481a.749.749,0,0,1,.75.75V422.96A.749.749,0,0,1,1460.177,423.709Zm-19.731-1.5h18.982V387.768h-18.982Z" transform="translate(-1438.947 -386.269)" fill="#1e88e5"/>
          </g>
          <g id="Group_4656" data-name="Group 4656" transform="translate(74.912 126.568)">
            <rect id="Rectangle_2395" data-name="Rectangle 2395" width="57.022" height="15.264" transform="translate(16.013 0.75) rotate(90)" fill="#fff"/>
            <path id="Path_5813" data-name="Path 5813" d="M1525.6,496.988h-15.264a.749.749,0,0,1-.75-.749V439.217a.75.75,0,0,1,.75-.75H1525.6a.749.749,0,0,1,.749.75v57.022A.749.749,0,0,1,1525.6,496.988Zm-14.514-1.5h13.765V439.966h-13.765Z" transform="translate(-1509.582 -438.467)" fill="#1e88e5"/>
          </g>
          <g id="Group_4657" data-name="Group 4657" transform="translate(9.539 126.734)">
            <rect id="Rectangle_2396" data-name="Rectangle 2396" width="57.022" height="15.264" transform="translate(16.013 0.749) rotate(90)" fill="#fff"/>
            <path id="Path_5814" data-name="Path 5814" d="M1394.766,497.32H1379.5a.75.75,0,0,1-.75-.749V439.548a.75.75,0,0,1,.75-.749h15.264a.749.749,0,0,1,.75.749V496.57A.749.749,0,0,1,1394.766,497.32Zm-14.514-1.5h13.765V440.3h-13.765Z" transform="translate(-1378.753 -438.799)" fill="#1e88e5"/>
          </g>
          <g id="Group_4658" data-name="Group 4658" transform="translate(0 61.19)">
            <rect id="Rectangle_2397" data-name="Rectangle 2397" width="60.098" height="32.277" transform="translate(0.749 0.75)" fill="#fff"/>
            <path id="Path_5815" data-name="Path 5815" d="M1420.509,341.4h-60.1a.749.749,0,0,1-.75-.749V308.375a.749.749,0,0,1,.75-.749h60.1a.749.749,0,0,1,.75.749v32.278A.749.749,0,0,1,1420.509,341.4Zm-59.348-1.5h58.6V309.125h-58.6Z" transform="translate(-1359.662 -307.626)" fill="#1e88e5"/>
          </g>
          <rect id="Rectangle_2398" data-name="Rectangle 2398" width="14.224" height="14.224" transform="translate(12.559 70.966)" fill="#8ec3f2"/>
          <rect id="Rectangle_2399" data-name="Rectangle 2399" width="14.224" height="14.224" transform="translate(36.87 70.966)" fill="#8ec3f2"/>
          <g id="Group_4659" data-name="Group 4659" transform="translate(0 93.468)">
            <rect id="Rectangle_2400" data-name="Rectangle 2400" width="72.241" height="13.959" transform="translate(0.749 0.749)" fill="#8ec3f2"/>
            <path id="Path_5816" data-name="Path 5816" d="M1432.651,387.68h-72.24a.749.749,0,0,1-.75-.75V372.973a.749.749,0,0,1,.75-.75h72.24a.749.749,0,0,1,.75.75v13.958A.749.749,0,0,1,1432.651,387.68Zm-71.491-1.5H1431.9V373.722h-70.741Z" transform="translate(-1359.662 -372.223)" fill="#1e88e5"/>
          </g>
          <g id="Group_4660" data-name="Group 4660" transform="translate(9.539 116.328)">
            <rect id="Rectangle_2401" data-name="Rectangle 2401" width="80.635" height="20.481" transform="translate(0.75 0.75)" fill="#8ec3f2"/>
            <path id="Path_5817" data-name="Path 5817" d="M1460.138,439.953H1379.5a.75.75,0,0,1-.75-.75V418.723a.75.75,0,0,1,.75-.75h80.636a.75.75,0,0,1,.75.75V439.2A.749.749,0,0,1,1460.138,439.953Zm-79.886-1.5h79.137V419.472h-79.137Z" transform="translate(-1378.753 -417.973)" fill="#1e88e5"/>
          </g>
          <path id="Path_5818" data-name="Path 5818" d="M1480.684,210.524a.75.75,0,0,1-.2-1.471l84.359-23.858a.749.749,0,1,1,.408,1.442L1480.889,210.5A.741.741,0,0,1,1480.684,210.524Z" transform="translate(-1419.837 -185.167)" fill="#1e88e5"/>
          <rect id="Rectangle_2402" data-name="Rectangle 2402" width="8.227" height="12.695" transform="translate(174.623 20.577)" fill="#1e88e5"/>
          <path id="Path_5819" data-name="Path 5819" d="M1712.963,245.55a4.846,4.846,0,0,1-4.841-4.84.75.75,0,0,1,1.5,0,3.341,3.341,0,1,0,3.342-3.342.749.749,0,0,1-.749-.75v-19.77a.749.749,0,1,1,1.5,0v19.079a4.841,4.841,0,0,1-.75,9.623Z" transform="translate(-1534.005 -200.643)" fill="#1e88e5"/>
        </g>
        <g id="Group_4666" data-name="Group 4666" transform="translate(116.785 38.835)">
          <g id="Group_4664" data-name="Group 4664" transform="translate(0 29.833)">
            <g id="Group_4662" data-name="Group 4662" transform="translate(81.825)">
              <path id="Path_5820" data-name="Path 5820" d="M1816.418,399.017H1758.64V324.093l57.778,1.466Z" transform="translate(-1757.891 -323.344)" fill="#8ec3f2"/>
              <path id="Path_5821" data-name="Path 5821" d="M1815.668,399.016H1757.89a.75.75,0,0,1-.75-.749V323.343a.75.75,0,0,1,.227-.537.738.738,0,0,1,.542-.212l57.777,1.466a.749.749,0,0,1,.73.749v73.457A.749.749,0,0,1,1815.668,399.016Zm-57.027-1.5h56.278V325.54l-56.278-1.428Z" transform="translate(-1757.141 -322.593)" fill="#1e88e5"/>
            </g>
            <path id="Path_5822" data-name="Path 5822" d="M1775.352,397.784a.749.749,0,0,1-.75-.749V338.708a.75.75,0,0,1,1.5,0v58.326A.75.75,0,0,1,1775.352,397.784Z" transform="translate(-1684.052 -330.281)" fill="#1e88e5"/>
            <path id="Path_5823" data-name="Path 5823" d="M1795.719,426.985a.75.75,0,0,1-.75-.75V397.073a.75.75,0,1,1,1.5,0v29.163A.75.75,0,0,1,1795.719,426.985Z" transform="translate(-1694.242 -359.482)" fill="#1e88e5"/>
            <path id="Path_5824" data-name="Path 5824" d="M1816.221,438.33a.75.75,0,0,1-.75-.75V419.749a.749.749,0,1,1,1.5,0v17.832A.75.75,0,0,1,1816.221,438.33Z" transform="translate(-1704.5 -370.827)" fill="#1e88e5"/>
            <path id="Path_5825" data-name="Path 5825" d="M1795.719,361.877a.75.75,0,0,1-.75-.75V352.5a.75.75,0,0,1,1.5,0v8.623A.75.75,0,0,1,1795.719,361.877Z" transform="translate(-1694.242 -337.184)" fill="#1e88e5"/>
            <path id="Path_5826" data-name="Path 5826" d="M1676.709,399.017V324.093l-81.825,11.095v66.4Z" transform="translate(-1594.134 -323.344)" fill="#fff"/>
            <path id="Path_5827" data-name="Path 5827" d="M1594.134,401.587a.749.749,0,0,1-.75-.749v-66.4a.75.75,0,0,1,.649-.742l81.825-11.095a.749.749,0,0,1,.85.742v74.923a.75.75,0,0,1-.726.749l-81.826,2.571Zm.749-66.494v64.971l80.327-2.524V324.2Zm81.076,63.174h0Z" transform="translate(-1593.384 -322.593)" fill="#1e88e5"/>
            <g id="Group_4663" data-name="Group 4663" transform="translate(7.898 8.345)">
              <path id="Path_5828" data-name="Path 5828" d="M1740.931,398.452a.75.75,0,0,1-.75-.749v-57.66a.75.75,0,0,1,1.5,0V397.7A.749.749,0,0,1,1740.931,398.452Z" transform="translate(-1674.728 -339.293)" fill="#8ec3f2"/>
              <path id="Path_5829" data-name="Path 5829" d="M1722.218,399.7a.75.75,0,0,1-.75-.75V342.534a.75.75,0,0,1,1.5,0v56.415A.75.75,0,0,1,1722.218,399.7Z" transform="translate(-1665.366 -340.54)" fill="#8ec3f2"/>
              <path id="Path_5830" data-name="Path 5830" d="M1703.5,401.663a.749.749,0,0,1-.75-.749V345.027a.749.749,0,1,1,1.5,0v55.886A.749.749,0,0,1,1703.5,401.663Z" transform="translate(-1656.003 -341.787)" fill="#8ec3f2"/>
              <path id="Path_5831" data-name="Path 5831" d="M1684.791,402.91a.75.75,0,0,1-.75-.75V347.52a.75.75,0,0,1,1.5,0v54.641A.749.749,0,0,1,1684.791,402.91Z" transform="translate(-1646.64 -343.034)" fill="#8ec3f2"/>
              <path id="Path_5832" data-name="Path 5832" d="M1666.08,379.442a.75.75,0,0,1-.75-.75V350.011a.75.75,0,0,1,1.5,0v28.681A.749.749,0,0,1,1666.08,379.442Z" transform="translate(-1637.279 -344.281)" fill="#8ec3f2"/>
              <path id="Path_5833" data-name="Path 5833" d="M1666.08,446.864a.749.749,0,0,1-.75-.749V435.371a.75.75,0,1,1,1.5,0v10.744A.749.749,0,0,1,1666.08,446.864Z" transform="translate(-1637.279 -386.988)" fill="#8ec3f2"/>
              <path id="Path_5834" data-name="Path 5834" d="M1647.366,370.5a.749.749,0,0,1-.75-.75V352.5a.749.749,0,1,1,1.5,0V369.75A.749.749,0,0,1,1647.366,370.5Z" transform="translate(-1627.916 -345.528)" fill="#8ec3f2"/>
              <path id="Path_5835" data-name="Path 5835" d="M1628.654,371.557a.75.75,0,0,1-.75-.75V355a.75.75,0,1,1,1.5,0v15.811A.749.749,0,0,1,1628.654,371.557Z" transform="translate(-1618.554 -346.775)" fill="#8ec3f2"/>
              <path id="Path_5836" data-name="Path 5836" d="M1628.654,444.643a.75.75,0,0,1-.75-.749V428.083a.75.75,0,1,1,1.5,0v15.811A.749.749,0,0,1,1628.654,444.643Z" transform="translate(-1618.554 -383.341)" fill="#8ec3f2"/>
              <path id="Path_5837" data-name="Path 5837" d="M1609.941,409.323a.75.75,0,0,1-.75-.75V357.489a.75.75,0,1,1,1.5,0v51.085A.749.749,0,0,1,1609.941,409.323Z" transform="translate(-1609.191 -348.022)" fill="#8ec3f2"/>
            </g>
          </g>
          <g id="Group_4665" data-name="Group 4665" transform="translate(0)">
            <path id="Path_5838" data-name="Path 5838" d="M1741.558,300.211a.749.749,0,0,1-.619-.326l-16.311-23.85a.749.749,0,1,1,1.237-.846l16.312,23.851a.749.749,0,0,1-.2,1.041A.74.74,0,0,1,1741.558,300.211Z" transform="translate(-1658.983 -268.879)" fill="#1e88e5"/>
            <path id="Path_5839" data-name="Path 5839" d="M1669.9,305.491a.75.75,0,0,1-.561-1.247l19.227-21.671a.749.749,0,1,1,1.121.995l-19.227,21.671A.747.747,0,0,1,1669.9,305.491Z" transform="translate(-1631.294 -272.61)" fill="#1e88e5"/>
            <path id="Path_5840" data-name="Path 5840" d="M1594.135,305.315a.75.75,0,0,1-.418-1.373l61.2-40.928a.749.749,0,0,1,.694-.073l78.4,31.157a.749.749,0,0,1-.553,1.393l-78.036-31.011-60.874,40.709A.743.743,0,0,1,1594.135,305.315Z" transform="translate(-1593.384 -262.888)" fill="#1e88e5"/>
          </g>
        </g>
      </g>
      <g id="Group_4681" data-name="Group 4681" transform="translate(1494.903 254.711)">
        <g id="Group_4670" data-name="Group 4670" transform="translate(0 87.885)">
          <g id="Group_4668" data-name="Group 4668" transform="translate(81.501 0)">
            <path id="Path_5841" data-name="Path 5841" d="M1877.572,576.653h-58.1V501.73l58.1,1.466Z" transform="translate(-1818.72 -500.98)" fill="#8ec3f2"/>
            <path id="Path_5842" data-name="Path 5842" d="M1876.822,576.652h-58.1a.749.749,0,0,1-.75-.749V500.979a.75.75,0,0,1,.769-.749l58.1,1.466a.75.75,0,0,1,.731.749V575.9A.749.749,0,0,1,1876.822,576.652Zm-57.353-1.5h56.6V503.176l-56.6-1.428Z" transform="translate(-1817.97 -500.23)" fill="#1e88e5"/>
          </g>
          <path id="Path_5843" data-name="Path 5843" d="M1737.864,576.653V501.73l-81.5,6.362v64.457Z" transform="translate(-1655.614 -500.98)" fill="#fff"/>
          <path id="Path_5844" data-name="Path 5844" d="M1737.113,576.652h-.037l-81.5-4.1a.75.75,0,0,1-.712-.749V507.341a.75.75,0,0,1,.692-.747l81.5-6.362a.751.751,0,0,1,.808.748V575.9a.75.75,0,0,1-.75.749Zm-80.751-5.566,80,4.028V501.789l-80,6.245Z" transform="translate(-1654.863 -500.229)" fill="#1e88e5"/>
          <g id="Group_4669" data-name="Group 4669" transform="translate(18.024 7.79)">
            <path id="Path_5845" data-name="Path 5845" d="M1803.163,532.271a.75.75,0,0,1-.75-.749V516.569a.75.75,0,0,1,1.5,0v14.952A.75.75,0,0,1,1803.163,532.271Z" transform="translate(-1746.71 -515.82)" fill="#8ec3f2"/>
            <path id="Path_5846" data-name="Path 5846" d="M1784.115,533.456a.75.75,0,0,1-.75-.749V518.937a.75.75,0,0,1,1.5,0v13.769A.75.75,0,0,1,1784.115,533.456Z" transform="translate(-1737.179 -517.005)" fill="#8ec3f2"/>
            <path id="Path_5847" data-name="Path 5847" d="M1765.851,531.32a.749.749,0,0,1-.749-.75V518.937a.749.749,0,1,1,1.5,0V530.57A.75.75,0,0,1,1765.851,531.32Z" transform="translate(-1728.042 -517.005)" fill="#8ec3f2"/>
            <path id="Path_5848" data-name="Path 5848" d="M1746.8,529.784a.749.749,0,0,1-.749-.75v-9.308a.749.749,0,1,1,1.5,0v9.308A.75.75,0,0,1,1746.8,529.784Z" transform="translate(-1718.511 -517.4)" fill="#8ec3f2"/>
            <path id="Path_5849" data-name="Path 5849" d="M1710.668,530.969a.749.749,0,0,1-.75-.75v-8.125a.75.75,0,0,1,1.5,0v8.125A.75.75,0,0,1,1710.668,530.969Z" transform="translate(-1700.432 -518.584)" fill="#8ec3f2"/>
            <path id="Path_5850" data-name="Path 5850" d="M1691.683,528.151a.75.75,0,0,1-.75-.75v-5.307a.75.75,0,0,1,1.5,0V527.4A.75.75,0,0,1,1691.683,528.151Z" transform="translate(-1690.934 -518.584)" fill="#8ec3f2"/>
          </g>
        </g>
        <g id="Group_4680" data-name="Group 4680" transform="translate(91.171)">
          <g id="Group_4675" data-name="Group 4675">
            <g id="Group_4671" data-name="Group 4671" transform="translate(94.407)">
              <path id="Path_5851" data-name="Path 5851" d="M2094.421,412.291H2027.76V325.847l66.662,1.692Z" transform="translate(-2027.01 -325.097)" fill="#8ec3f2"/>
              <path id="Path_5852" data-name="Path 5852" d="M2093.671,412.29H2027.01a.75.75,0,0,1-.75-.75V325.1a.749.749,0,0,1,.226-.537.739.739,0,0,1,.542-.213l66.661,1.692a.749.749,0,0,1,.731.749V411.54A.75.75,0,0,1,2093.671,412.29Zm-65.912-1.5h65.163V327.518l-65.163-1.654Z" transform="translate(-2026.26 -324.346)" fill="#1e88e5"/>
            </g>
            <path id="Path_5853" data-name="Path 5853" d="M1933.23,412.291V325.847l-94.407,12.8v75.279Z" transform="translate(-1838.073 -325.097)" fill="#fff"/>
            <path id="Path_5854" data-name="Path 5854" d="M1838.072,415.256a.749.749,0,0,1-.75-.75V337.9a.75.75,0,0,1,.649-.743l94.407-12.8a.75.75,0,0,1,.85.743v82.07a.749.749,0,0,1-.692.747l-94.407,7.341Zm.75-76.7V413.7l92.908-7.224V325.954Zm93.658,68.614h0Z" transform="translate(-1837.323 -324.346)" fill="#1e88e5"/>
            <g id="Group_4674" data-name="Group 4674" transform="translate(9.113 9.628)">
              <g id="Group_4672" data-name="Group 4672" transform="translate(95.847)">
                <path id="Path_5855" data-name="Path 5855" d="M2048.129,408.394a.75.75,0,0,1-.75-.75V344.363a.75.75,0,0,1,1.5,0v63.281A.75.75,0,0,1,2048.129,408.394Z" transform="translate(-2047.38 -343.614)" fill="#1e88e5"/>
                <path id="Path_5856" data-name="Path 5856" d="M2070.513,408.394a.749.749,0,0,1-.749-.75V344.363a.749.749,0,1,1,1.5,0v63.281A.75.75,0,0,1,2070.513,408.394Z" transform="translate(-2058.58 -343.614)" fill="#1e88e5"/>
                <path id="Path_5857" data-name="Path 5857" d="M2092.9,388.768a.749.749,0,0,1-.75-.749V346.04a.749.749,0,1,1,1.5,0v41.978A.749.749,0,0,1,2092.9,388.768Z" transform="translate(-2069.778 -344.453)" fill="#1e88e5"/>
                <path id="Path_5858" data-name="Path 5858" d="M2115.281,410.071a.75.75,0,0,1-.75-.749V346.04a.75.75,0,1,1,1.5,0v63.281A.75.75,0,0,1,2115.281,410.071Z" transform="translate(-2080.977 -344.453)" fill="#1e88e5"/>
                <path id="Path_5859" data-name="Path 5859" d="M2137.664,410.071a.75.75,0,0,1-.75-.749V346.04a.75.75,0,1,1,1.5,0v63.281A.75.75,0,0,1,2137.664,410.071Z" transform="translate(-2092.176 -344.453)" fill="#1e88e5"/>
              </g>
              <g id="Group_4673" data-name="Group 4673">
                <path id="Path_5860" data-name="Path 5860" d="M2007.441,410.07a.75.75,0,0,1-.75-.749V344.363a.75.75,0,0,1,1.5,0V409.32A.749.749,0,0,1,2007.441,410.07Z" transform="translate(-1931.175 -343.614)" fill="#8ec3f2"/>
                <path id="Path_5861" data-name="Path 5861" d="M1985.853,412.918a.75.75,0,0,1-.75-.75V347.24a.749.749,0,1,1,1.5,0v64.929A.75.75,0,0,1,1985.853,412.918Z" transform="translate(-1920.374 -345.053)" fill="#8ec3f2"/>
                <path id="Path_5862" data-name="Path 5862" d="M1964.261,415.24a.75.75,0,0,1-.75-.75V350.115a.75.75,0,1,1,1.5,0V414.49A.75.75,0,0,1,1964.261,415.24Z" transform="translate(-1909.571 -346.491)" fill="#8ec3f2"/>
                <path id="Path_5863" data-name="Path 5863" d="M1942.672,401.65a.75.75,0,0,1-.75-.75v-47.91a.75.75,0,0,1,1.5,0V400.9A.749.749,0,0,1,1942.672,401.65Z" transform="translate(-1898.769 -347.93)" fill="#8ec3f2"/>
                <path id="Path_5864" data-name="Path 5864" d="M1921.082,419.9a.75.75,0,0,1-.75-.75V355.867a.75.75,0,0,1,1.5,0v63.279A.75.75,0,0,1,1921.082,419.9Z" transform="translate(-1887.968 -349.369)" fill="#8ec3f2"/>
                <path id="Path_5865" data-name="Path 5865" d="M1899.49,466.428a.75.75,0,0,1-.75-.749V448.872a.749.749,0,1,1,1.5,0v16.806A.75.75,0,0,1,1899.49,466.428Z" transform="translate(-1877.165 -395.902)" fill="#8ec3f2"/>
                <path id="Path_5866" data-name="Path 5866" d="M1899.49,387.384a.749.749,0,0,1-.75-.75V358.741a.749.749,0,1,1,1.5,0v27.893A.749.749,0,0,1,1899.49,387.384Z" transform="translate(-1877.165 -350.808)" fill="#8ec3f2"/>
                <path id="Path_5867" data-name="Path 5867" d="M1877.9,474.518a.75.75,0,0,1-.75-.749V463.48a.75.75,0,0,1,1.5,0v10.288A.749.749,0,0,1,1877.9,474.518Z" transform="translate(-1866.363 -403.211)" fill="#8ec3f2"/>
                <path id="Path_5868" data-name="Path 5868" d="M1877.9,402.937a.75.75,0,0,1-.75-.75v-40.57a.75.75,0,0,1,1.5,0v40.57A.749.749,0,0,1,1877.9,402.937Z" transform="translate(-1866.363 -352.247)" fill="#8ec3f2"/>
                <path id="Path_5869" data-name="Path 5869" d="M1856.311,426.394a.75.75,0,0,1-.75-.749V364.492a.75.75,0,0,1,1.5,0v61.152A.75.75,0,0,1,1856.311,426.394Z" transform="translate(-1855.561 -353.685)" fill="#8ec3f2"/>
              </g>
            </g>
          </g>
          <g id="Group_4679" data-name="Group 4679" transform="translate(0 82.002)">
            <g id="Group_4676" data-name="Group 4676" transform="translate(94.033)">
              <path id="Path_5870" data-name="Path 5870" d="M2094.047,576.4H2027.01V489.956l67.037,1.692Z" transform="translate(-2026.261 -489.206)" fill="#8ec3f2"/>
              <path id="Path_5871" data-name="Path 5871" d="M2093.3,576.4H2026.26a.75.75,0,0,1-.75-.749V489.205a.748.748,0,0,1,.226-.537.761.761,0,0,1,.542-.213l67.036,1.692a.749.749,0,0,1,.73.749v84.753A.75.75,0,0,1,2093.3,576.4Zm-66.287-1.5h65.537V491.628l-65.537-1.654Z" transform="translate(-2025.511 -488.456)" fill="#1e88e5"/>
            </g>
            <g id="Group_4677" data-name="Group 4677" transform="translate(104.961 11.05)">
              <path id="Path_5872" data-name="Path 5872" d="M2048.129,547.221a.75.75,0,0,1-.75-.749V511.321a.75.75,0,1,1,1.5,0v35.151A.75.75,0,0,1,2048.129,547.221Z" transform="translate(-2047.38 -510.571)" fill="#1e88e5"/>
              <path id="Path_5873" data-name="Path 5873" d="M2070.513,548.7a.749.749,0,0,1-.749-.75v-36.63a.749.749,0,1,1,1.5,0v36.63A.749.749,0,0,1,2070.513,548.7Z" transform="translate(-2058.58 -510.571)" fill="#1e88e5"/>
              <path id="Path_5874" data-name="Path 5874" d="M2092.9,576.19a.75.75,0,0,1-.75-.75V513a.749.749,0,1,1,1.5,0V575.44A.749.749,0,0,1,2092.9,576.19Z" transform="translate(-2069.778 -511.41)" fill="#1e88e5"/>
              <path id="Path_5875" data-name="Path 5875" d="M2115.281,577.028a.75.75,0,0,1-.75-.749V513a.75.75,0,0,1,1.5,0v63.281A.75.75,0,0,1,2115.281,577.028Z" transform="translate(-2080.977 -511.41)" fill="#1e88e5"/>
              <path id="Path_5876" data-name="Path 5876" d="M2137.664,596.084a.75.75,0,0,1-.75-.75V551.086a.75.75,0,0,1,1.5,0v44.248A.75.75,0,0,1,2137.664,596.084Z" transform="translate(-2092.176 -530.467)" fill="#1e88e5"/>
            </g>
            <path id="Path_5877" data-name="Path 5877" d="M1932.856,576.4V489.956l-94.033,7.341v74.368Z" transform="translate(-1838.073 -489.206)" fill="#fff"/>
            <g id="Group_4678" data-name="Group 4678" transform="translate(9.113 7.505)">
              <path id="Path_5878" data-name="Path 5878" d="M2007.441,542.94a.75.75,0,0,1-.75-.749V504.225a.75.75,0,0,1,1.5,0V542.19A.749.749,0,0,1,2007.441,542.94Z" transform="translate(-1931.175 -503.475)" fill="#8ec3f2"/>
              <path id="Path_5879" data-name="Path 5879" d="M1985.853,525.4a.75.75,0,0,1-.75-.75V507.1a.749.749,0,1,1,1.5,0v17.547A.75.75,0,0,1,1985.853,525.4Z" transform="translate(-1920.374 -504.914)" fill="#8ec3f2"/>
              <path id="Path_5880" data-name="Path 5880" d="M1964.261,542.913a.75.75,0,0,1-.75-.75V509.976a.75.75,0,1,1,1.5,0v32.188A.75.75,0,0,1,1964.261,542.913Z" transform="translate(-1909.571 -506.352)" fill="#8ec3f2"/>
              <path id="Path_5881" data-name="Path 5881" d="M1942.672,542.692a.75.75,0,0,1-.75-.75V511.851a.75.75,0,0,1,1.5,0v30.091A.75.75,0,0,1,1942.672,542.692Z" transform="translate(-1898.769 -507.291)" fill="#8ec3f2"/>
              <path id="Path_5882" data-name="Path 5882" d="M1921.082,542.207a.75.75,0,0,1-.75-.75V513.726a.75.75,0,0,1,1.5,0v27.731A.75.75,0,0,1,1921.082,542.207Z" transform="translate(-1887.968 -508.229)" fill="#8ec3f2"/>
              <path id="Path_5883" data-name="Path 5883" d="M1899.49,551.828a.75.75,0,0,1-.75-.75V538.356a.749.749,0,1,1,1.5,0v12.723A.75.75,0,0,1,1899.49,551.828Z" transform="translate(-1877.165 -520.552)" fill="#8ec3f2"/>
              <path id="Path_5884" data-name="Path 5884" d="M1877.9,539.59a.75.75,0,0,1-.75-.75V516.478a.75.75,0,0,1,1.5,0v22.362A.749.749,0,0,1,1877.9,539.59Z" transform="translate(-1866.363 -509.606)" fill="#8ec3f2"/>
              <path id="Path_5885" data-name="Path 5885" d="M1856.311,538.089a.75.75,0,0,1-.75-.749V517.353a.75.75,0,0,1,1.5,0V537.34A.749.749,0,0,1,1856.311,538.089Z" transform="translate(-1855.561 -510.044)" fill="#8ec3f2"/>
            </g>
            <path id="Path_5886" data-name="Path 5886" d="M1932.106,576.4h-.038l-94.033-4.735a.75.75,0,0,1-.712-.749V496.546a.75.75,0,0,1,.691-.748l94.033-7.34a.75.75,0,0,1,.808.747V575.65a.75.75,0,0,1-.75.749Zm-93.284-6.2,92.534,4.659V490.016l-92.534,7.223Z" transform="translate(-1837.323 -488.456)" fill="#1e88e5"/>
          </g>
        </g>
      </g>
      <g id="Group_4684" data-name="Group 4684" transform="translate(1335.149 341.939)">
        <path id="Path_5887" data-name="Path 5887" d="M1364.823,715.615h12.383v-215.2l-37.481,9.812a377.578,377.578,0,0,0,25.1,205.389Z" transform="translate(-1335.149 -499.664)" fill="#fff"/>
        <path id="Path_5888" data-name="Path 5888" d="M1381.038,715.614h-12.383a.75.75,0,0,1,0-1.5h11.634V500.635l-36.541,9.566a.75.75,0,0,1-.38-1.451l37.481-9.811a.749.749,0,0,1,.939.725v215.2A.749.749,0,0,1,1381.038,715.614Z" transform="translate(-1338.981 -498.914)"/>
        <g id="Group_4683" data-name="Group 4683" transform="translate(41.308)">
          <path id="Path_5889" data-name="Path 5889" d="M1740.711,715.615H1419.318v-215.2l321.393,49.861Z" transform="translate(-1418.569 -499.664)" fill="#8ec3f2"/>
          <g id="Group_4682" data-name="Group 4682" transform="translate(18.056 17.451)">
            <path id="Path_5890" data-name="Path 5890" d="M1453.954,598.382V764.631h90.8V610.261Z" transform="translate(-1453.954 -566.131)" fill="#1e88e5"/>
            <path id="Path_5891" data-name="Path 5891" d="M1544.755,565.312V548.483l-90.8-14.644v18.255Z" transform="translate(-1453.954 -533.839)" fill="#1e88e5"/>
            <path id="Path_5892" data-name="Path 5892" d="M1888.908,655.285V793.1h69.327V664.354Z" transform="translate(-1671.572 -594.601)" fill="#1e88e5"/>
            <path id="Path_5893" data-name="Path 5893" d="M1958.236,629.013V615.4l-69.327-11.231v14.75Z" transform="translate(-1671.572 -569.027)" fill="#1e88e5"/>
            <path id="Path_5894" data-name="Path 5894" d="M1682.683,628.305V779.6h80.99V638.9Z" transform="translate(-1568.392 -581.103)" fill="#1e88e5"/>
            <path id="Path_5895" data-name="Path 5895" d="M1763.673,598.994V583.882l-80.99-13.121V587.2Z" transform="translate(-1568.392 -552.312)" fill="#1e88e5"/>
          </g>
          <path id="Path_5896" data-name="Path 5896" d="M1453.391,715.614h-34.824a.75.75,0,0,1-.75-.75v-215.2a.749.749,0,0,1,.865-.74l321.393,49.861a.749.749,0,0,1,.635.74V594a.75.75,0,0,1-1.5,0V550.167l-319.894-49.628V714.115h34.075a.75.75,0,0,1,0,1.5Z" transform="translate(-1417.818 -498.914)"/>
        </g>
      </g>
      <g id="Group_4701" data-name="Group 4701" transform="translate(1536.04 442.342)">
        <g id="Group_4685" data-name="Group 4685" transform="translate(70.73 94.844)">
          <path id="Path_5897" data-name="Path 5897" d="M1889.35,889.662h-6.1c-2.492,0-4.512,5.943-4.512,13.247s2.02,13.251,4.512,13.251h6.1c2.491,0,4.511-5.945,4.511-13.249S1891.841,889.662,1889.35,889.662Z" transform="translate(-1878.741 -889.662)" fill="#5479f7"/>
        </g>
        <path id="Path_5898" data-name="Path 5898" d="M1872.587,840.25v-88.8l-122.076,15.715v67.659Z" transform="translate(-1743.855 -725.668)" fill="#1e88e5"/>
        <path id="Path_5899" data-name="Path 5899" d="M1963.307,883.462l3.812,3.563-1.036,24.058a2.422,2.422,0,0,0,2.411,2.535h21.519V883.534Z" transform="translate(-1850.321 -791.716)" fill="#1e88e5"/>
        <rect id="Rectangle_2403" data-name="Rectangle 2403" width="71.178" height="91.785" transform="translate(108.708 0.749)" fill="#8ec3f2"/>
        <path id="Path_5900" data-name="Path 5900" d="M2025.173,793.135H2013.8a.75.75,0,0,1,0-1.5h10.628V701.35h-69.679v91.035a.75.75,0,0,1-1.5,0V700.6a.75.75,0,0,1,.75-.75h71.178a.75.75,0,0,1,.75.75v91.785A.75.75,0,0,1,2025.173,793.135Z" transform="translate(-1845.288 -699.851)" fill="#1e88e5"/>
        <g id="Group_4686" data-name="Group 4686" transform="translate(122.638 100.442)">
          <path id="Path_5901" data-name="Path 5901" d="M1994.881,900.866h-7.044c-2.879,0-5.212,6.861-5.212,15.3s2.333,15.3,5.212,15.3h7.044c2.878,0,5.212-6.863,5.212-15.3S1997.759,900.866,1994.881,900.866Z" transform="translate(-1982.624 -900.866)" fill="#1e88e5"/>
          <ellipse id="Ellipse_30" data-name="Ellipse 30" cx="5.212" cy="15.28" rx="5.212" ry="15.28" transform="translate(0 0.109)" fill="#8ec3f2"/>
        </g>
        <g id="Group_4687" data-name="Group 4687" transform="translate(179.974 99.696)">
          <path id="Path_5902" data-name="Path 5902" d="M2109.893,899.372h-7.045c-2.878,0-5.211,6.861-5.211,15.3s2.333,15.3,5.211,15.3h7.045c2.878,0,5.212-6.863,5.212-15.3S2112.772,899.372,2109.893,899.372Z" transform="translate(-2097.503 -899.372)" fill="#1e88e5"/>
          <ellipse id="Ellipse_31" data-name="Ellipse 31" cx="5.212" cy="15.28" rx="5.212" ry="15.28" transform="translate(0 0.043)" fill="#8ec3f2"/>
        </g>
        <path id="Path_5903" data-name="Path 5903" d="M1962.793,756.544l-.207,63.778,2.4,2.024a3.732,3.732,0,0,1,1.32,3.014l-.99,22.974a1.717,1.717,0,0,0,1.706,1.8c.735,0,1.42,0,1.42-.028,0-14.347,2.695-26.11,6.181-26.11s6.312,11.63,6.312,25.977c0,.05,8.345.149,8.345.149v-93.3Z" transform="translate(-1849.961 -728.216)" fill="#fff"/>
        <g id="Group_4688" data-name="Group 4688" transform="translate(139.031 27.675)">
          <path id="Path_5904" data-name="Path 5904" d="M2075.794,756.736H2016.93v93.48h63.851a3.461,3.461,0,0,0,3.45-3.473V816.771a142.09,142.09,0,0,0-2.187-24.828Z" transform="translate(-2016.181 -755.987)" fill="#8ec3f2"/>
          <path id="Path_5905" data-name="Path 5905" d="M2080.031,850.216h-63.851a.75.75,0,0,1-.75-.75v-93.48a.749.749,0,0,1,.75-.75h58.863a.749.749,0,0,1,.738.618l6.25,35.206a143.21,143.21,0,0,1,2.2,24.959v29.973A4.216,4.216,0,0,1,2080.031,850.216Zm-63.1-1.5h63.1a2.715,2.715,0,0,0,2.7-2.723V816.021a141.762,141.762,0,0,0-2.175-24.7l-6.14-34.587H2016.93Z" transform="translate(-2015.431 -755.237)" fill="#1e88e5"/>
        </g>
        <g id="Group_4689" data-name="Group 4689" transform="translate(125.539 46.717)">
          <path id="Path_5906" data-name="Path 5906" d="M1993.539,817.733l3.1.534a1.679,1.679,0,0,0,1.958-1.662V797.237a2.384,2.384,0,0,0-2.376-2.391h-4.3a1.991,1.991,0,0,0-1.984,2v16.582A4.363,4.363,0,0,0,1993.539,817.733Z" transform="translate(-1989.18 -794.096)" fill="#c6e1f9"/>
          <path id="Path_5907" data-name="Path 5907" d="M1996.169,818.29a2.446,2.446,0,0,1-.411-.035l-3.1-.534a5.1,5.1,0,0,1-4.231-5.047V796.092a2.743,2.743,0,0,1,2.733-2.746h4.3a3.137,3.137,0,0,1,3.125,3.141v19.367a2.43,2.43,0,0,1-2.424,2.436Zm-5.007-23.445a1.242,1.242,0,0,0-1.234,1.247v16.582a3.6,3.6,0,0,0,2.987,3.57h0l3.1.534a.905.905,0,0,0,.748-.2.941.941,0,0,0,.333-.721V796.487a1.636,1.636,0,0,0-1.626-1.642Z" transform="translate(-1988.43 -793.346)" fill="#1e88e5"/>
        </g>
        <path id="Path_5908" data-name="Path 5908" d="M1846.648,793.135V701.351L1738.69,714.378v78.855Z" transform="translate(-1737.94 -700.601)" fill="#fff"/>
        <g id="Group_4690" data-name="Group 4690" transform="translate(112.292 5.797)">
          <path id="Path_5909" data-name="Path 5909" d="M2041.033,734.649H1963.42L1966.9,718.3a6.99,6.99,0,0,1,6.952-5.345h58.493a5.367,5.367,0,0,1,5.368,4.215Z" transform="translate(-1962.671 -712.203)" fill="#fff"/>
          <path id="Path_5910" data-name="Path 5910" d="M2040.282,734.648h-77.613a.75.75,0,0,1-.733-.905l3.483-16.353a7.761,7.761,0,0,1,7.684-5.938H2031.6a6.11,6.11,0,0,1,6.1,4.825l3.318,17.482a.75.75,0,0,1-.737.889Zm-76.687-1.5h75.782l-3.149-16.592a4.612,4.612,0,0,0-4.632-3.606H1973.1a6.257,6.257,0,0,0-6.219,4.751Z" transform="translate(-1961.92 -711.452)" fill="#1e88e5"/>
        </g>
        <g id="Group_4691" data-name="Group 4691" transform="translate(118.453 5.797)">
          <path id="Path_5911" data-name="Path 5911" d="M2043.883,717.168a5.366,5.366,0,0,0-5.367-4.216h-58.493a7.379,7.379,0,0,0-4.274,1.351l25.373,20.346H2047.2Z" transform="translate(-1975 -712.203)" fill="#8ec3f2"/>
          <path id="Path_5912" data-name="Path 5912" d="M2046.451,734.648h-46.079a.751.751,0,0,1-.469-.164l-25.374-20.346a.75.75,0,0,1,.035-1.2,8.086,8.086,0,0,1,4.708-1.489h58.493a6.11,6.11,0,0,1,6.1,4.825h0l3.318,17.482a.75.75,0,0,1-.736.889Zm-45.815-1.5h44.91l-3.15-16.592a4.611,4.611,0,0,0-4.631-3.605h-58.493a6.639,6.639,0,0,0-2.966.689Z" transform="translate(-1974.249 -711.453)" fill="#1e88e5"/>
        </g>
        <g id="Group_4692" data-name="Group 4692" transform="translate(142.881 44.918)">
          <path id="Path_5913" data-name="Path 5913" d="M2029.1,791.245h45.847a4.468,4.468,0,0,1,4.392,3.713l3.9,22.357a3.518,3.518,0,0,1-3.449,4.134h-51.646a3.513,3.513,0,0,1-3.5-3.525v-22.19A4.474,4.474,0,0,1,2029.1,791.245Z" transform="translate(-2023.886 -790.495)" fill="#8ec3f2"/>
          <path id="Path_5914" data-name="Path 5914" d="M2059.291,829.72a14.225,14.225,0,0,0-10.153-4.292h-24.593v9.6a3.5,3.5,0,0,0,3.547,3.464h51.647a3.493,3.493,0,0,0,3.449-4.1l-.071-.374h-13.673A14.226,14.226,0,0,1,2059.291,829.72Z" transform="translate(-2023.841 -807.598)" fill="#c6e1f9"/>
          <path id="Path_5915" data-name="Path 5915" d="M2079.034,821.447h-51.646a4.268,4.268,0,0,1-4.252-4.274v-22.19a5.23,5.23,0,0,1,5.209-5.239h45.847a5.208,5.208,0,0,1,5.131,4.334l3.9,22.356a4.281,4.281,0,0,1-.941,3.5A4.234,4.234,0,0,1,2079.034,821.447Zm-50.689-30.2a3.729,3.729,0,0,0-3.71,3.74v22.19a2.767,2.767,0,0,0,2.753,2.775h51.646a2.739,2.739,0,0,0,2.1-.98,2.786,2.786,0,0,0,.612-2.276l-3.9-22.356a3.712,3.712,0,0,0-3.654-3.092Z" transform="translate(-2023.136 -789.745)" fill="#1e88e5"/>
        </g>
        <g id="Group_4693" data-name="Group 4693" transform="translate(84.819 96.979)">
          <path id="Path_5916" data-name="Path 5916" d="M1918.856,894.144h-6.85c-2.8,0-5.068,6.72-5.068,14.926s2.269,14.93,5.068,14.93h6.85c2.8,0,5.068-6.722,5.068-14.928S1921.656,894.144,1918.856,894.144Z" transform="translate(-1906.938 -894.04)" fill="#5479f7"/>
          <ellipse id="Ellipse_32" data-name="Ellipse 32" cx="5.068" cy="14.859" rx="5.068" ry="14.859" transform="translate(0)" fill="#99b9ff"/>
        </g>
        <g id="Group_4694" data-name="Group 4694" transform="translate(11.686 94.936)">
          <path id="Path_5917" data-name="Path 5917" d="M1770.794,890.409h-5.873c-2.4,0-4.344,5.558-4.344,12.5s1.945,12.5,4.344,12.5h5.873c2.4,0,4.344-5.56,4.344-12.5S1773.193,890.409,1770.794,890.409Z" transform="translate(-1760.577 -890.128)" fill="#5479f7"/>
          <ellipse id="Ellipse_33" data-name="Ellipse 33" cx="4.345" cy="12.571" rx="4.345" ry="12.571" transform="translate(0)" fill="#99b9ff"/>
        </g>
        <g id="Group_4695" data-name="Group 4695" transform="translate(22.809 95.682)">
          <path id="Path_5918" data-name="Path 5918" d="M1793.055,891.9h-5.872c-2.4,0-4.345,5.558-4.345,12.5s1.945,12.5,4.345,12.5h5.872c2.4,0,4.345-5.56,4.345-12.5S1795.454,891.9,1793.055,891.9Z" transform="translate(-1782.838 -891.621)" fill="#5479f7"/>
          <ellipse id="Ellipse_34" data-name="Ellipse 34" cx="4.345" cy="12.571" rx="4.345" ry="12.571" fill="#99b9ff"/>
        </g>
        <g id="Group_4696" data-name="Group 4696" transform="translate(34.023 95.773)">
          <path id="Path_5919" data-name="Path 5919" d="M1815.89,891.9h-6.1c-2.492,0-4.511,5.943-4.511,13.247s2.02,13.25,4.511,13.25h6.1c2.491,0,4.511-5.944,4.511-13.249S1818.381,891.9,1815.89,891.9Z" transform="translate(-1805.281 -891.712)" fill="#5479f7"/>
          <ellipse id="Ellipse_35" data-name="Ellipse 35" cx="4.511" cy="13.226" rx="4.511" ry="13.226" transform="translate(0)" fill="#99b9ff"/>
        </g>
        <g id="Group_4699" data-name="Group 4699" transform="translate(145.171 103.176)">
          <g id="Group_4697" data-name="Group 4697" transform="translate(0 0.502)">
            <path id="Path_5920" data-name="Path 5920" d="M2040.082,916.1H2031.8a2.589,2.589,0,0,1-2.58-2.6v-4.66h6.548a5.236,5.236,0,0,1,4.937,3.52l.666,1.905A1.374,1.374,0,0,1,2040.082,916.1Z" transform="translate(-2028.47 -908.091)" fill="#caddff"/>
            <path id="Path_5921" data-name="Path 5921" d="M2039.332,916.1h-8.283a3.342,3.342,0,0,1-3.329-3.346v-4.66a.75.75,0,0,1,.75-.75h6.548a5.993,5.993,0,0,1,5.645,4.022l.666,1.905a2.123,2.123,0,0,1-2,2.829Zm-10.113-7.257v3.911a1.841,1.841,0,0,0,1.83,1.848h8.283a.607.607,0,0,0,.5-.26.624.624,0,0,0,.081-.575l-.666-1.905a4.492,4.492,0,0,0-4.23-3.018Z" transform="translate(-2027.72 -907.34)" fill="#1e88e5"/>
          </g>
          <g id="Group_4698" data-name="Group 4698" transform="translate(43.962)">
            <path id="Path_5922" data-name="Path 5922" d="M2118.567,915.093h8.282a2.588,2.588,0,0,0,2.58-2.6v-4.661h-6.548a5.236,5.236,0,0,0-4.938,3.52l-.665,1.905A1.374,1.374,0,0,0,2118.567,915.093Z" transform="translate(-2116.451 -907.086)" fill="#caddff"/>
            <path id="Path_5923" data-name="Path 5923" d="M2126.1,915.092h-8.283a2.124,2.124,0,0,1-2-2.829l.666-1.905a5.993,5.993,0,0,1,5.645-4.022h6.548a.75.75,0,0,1,.75.75v4.661A3.342,3.342,0,0,1,2126.1,915.092Zm-3.969-7.257a4.494,4.494,0,0,0-4.23,3.018l-.666,1.906a.625.625,0,0,0,.082.575.606.606,0,0,0,.5.26h8.283a1.841,1.841,0,0,0,1.83-1.847v-3.911Z" transform="translate(-2115.702 -906.336)" fill="#1e88e5"/>
          </g>
        </g>
        <path id="Path_5924" data-name="Path 5924" d="M2082.5,928.609h-21.793a3.118,3.118,0,0,1-2.71-1.582l-.962-1.692a.862.862,0,0,1,.743-1.29h27.651a.862.862,0,0,1,.743,1.29l-.963,1.692A3.118,3.118,0,0,1,2082.5,928.609Z" transform="translate(-1897.161 -812.021)" fill="#1e88e5"/>
        <path id="Path_5925" data-name="Path 5925" d="M1986.787,818.841h0a5.348,5.348,0,0,1-5.348-5.349v-7.916a4.111,4.111,0,0,1,4.111-4.111h1.207a1.884,1.884,0,0,1,1.883,1.883v13.639A1.853,1.853,0,0,1,1986.787,818.841Z" transform="translate(-1859.394 -750.691)" fill="#1e88e5"/>
        <path id="Rectangle_2404" data-name="Rectangle 2404" d="M.906,0H2.718A2.932,2.932,0,0,1,5.649,2.932V14.261a4.468,4.468,0,0,1-4.468,4.468h0A1.181,1.181,0,0,1,0,17.548V.906A.906.906,0,0,1,.906,0Z" transform="translate(207.732 50.156)" fill="#1e88e5"/>
        <g id="Group_4700" data-name="Group 4700" transform="translate(144.141 86.074)">
          <path id="Path_5926" data-name="Path 5926" d="M2084.006,872.11h-57.743a.606.606,0,0,0-.6.609v3.787a2.315,2.315,0,0,0,2.307,2.323h1.741a2.307,2.307,0,0,1,2.092,1.342l1.806,3.9a9.585,9.585,0,0,0,8.693,5.577h27.415a9.585,9.585,0,0,0,8.693-5.578l1.8-3.9a2.307,2.307,0,0,1,2.092-1.343h0a2.315,2.315,0,0,0,2.308-2.323v-3.787A.606.606,0,0,0,2084.006,872.11Z" transform="translate(-2025.658 -872.11)" fill="#1e88e5"/>
        </g>
        <path id="Path_5927" data-name="Path 5927" d="M1737.939,793.232a.75.75,0,0,1-.75-.75V713.628a.749.749,0,0,1,.66-.744l107.958-13.028a.748.748,0,0,1,.839.744V792.2a.749.749,0,0,1-.747.749l-107.958.287ZM1845.9,792.2h0Zm-107.208-77.9v77.438l106.459-.283v-90Z" transform="translate(-1737.19 -699.851)" fill="#1e88e5"/>
      </g>
      <g id="Group_4720" data-name="Group 4720" transform="translate(1406.714 429.507)">
        <g id="Group_4702" data-name="Group 4702" transform="translate(82.456 110.61)">
          <path id="Path_5928" data-name="Path 5928" d="M1655.775,895.527h-7.119c-2.909,0-5.267,6.938-5.267,15.467s2.358,15.471,5.267,15.471h7.119c2.909,0,5.267-6.94,5.267-15.469S1658.684,895.527,1655.775,895.527Z" transform="translate(-1643.389 -895.527)" fill="#1e88e5"/>
        </g>
        <path id="Path_5929" data-name="Path 5929" d="M1636.2,837.836V734.159l-142.531,18.348V831.5Z" transform="translate(-1486.027 -704.18)" fill="#1e88e5"/>
        <path id="Path_5930" data-name="Path 5930" d="M1742.124,888.288l4.451,4.159-1.21,28.09a2.828,2.828,0,0,0,2.815,2.959H1773.3V888.372Z" transform="translate(-1610.333 -781.295)" fill="#1e88e5"/>
        <rect id="Rectangle_2405" data-name="Rectangle 2405" width="83.104" height="107.164" transform="translate(126.797 0.75)" fill="#8ec3f2"/>
        <path id="Path_5931" data-name="Path 5931" d="M1814.482,782.826H1801.2a.749.749,0,0,1,0-1.5h12.535V675.663h-81.605V782.077a.75.75,0,0,1-1.5,0V674.913a.75.75,0,0,1,.75-.75h83.1a.75.75,0,0,1,.75.75V782.077A.75.75,0,0,1,1814.482,782.826Z" transform="translate(-1604.581 -674.164)"/>
        <g id="Group_4704" data-name="Group 4704" transform="translate(142.311 116.162)">
          <path id="Path_5932" data-name="Path 5932" d="M1778.987,908.608h-8.225c-3.361,0-6.086,8.01-6.086,17.864s2.725,17.867,6.086,17.867h8.225c3.361,0,6.085-8.012,6.085-17.865S1782.348,908.608,1778.987,908.608Z" transform="translate(-1763.928 -907.623)" fill="#1e88e5"/>
          <g id="Group_4703" data-name="Group 4703">
            <ellipse id="Ellipse_36" data-name="Ellipse 36" cx="6.085" cy="17.84" rx="6.085" ry="17.84" transform="translate(0.749 0.75)" fill="#8ec3f2"/>
            <path id="Path_5933" data-name="Path 5933" d="M1770.012,943.817c-4.439,0-6.834-9.578-6.834-18.59s2.4-18.59,6.834-18.59,6.834,9.578,6.834,18.59S1774.451,943.817,1770.012,943.817Zm0-35.681c-2.523,0-5.335,7.019-5.335,17.091s2.812,17.091,5.335,17.091,5.336-7.019,5.336-17.091S1772.536,908.136,1770.012,908.136Z" transform="translate(-1763.178 -906.637)"/>
          </g>
        </g>
        <g id="Group_4705" data-name="Group 4705" transform="translate(210.062 116.04)">
          <path id="Path_5934" data-name="Path 5934" d="M1913.271,906.863h-8.225c-3.361,0-6.085,8.011-6.085,17.863s2.724,17.868,6.085,17.868h8.225c3.361,0,6.085-8.013,6.085-17.865S1916.632,906.863,1913.271,906.863Z" transform="translate(-1898.864 -906.628)" fill="#1e88e5"/>
          <ellipse id="Ellipse_37" data-name="Ellipse 37" cx="6.134" cy="17.983" rx="6.134" ry="17.983" fill="#8ec3f2"/>
        </g>
        <path id="Path_5935" data-name="Path 5935" d="M1741.525,740.1l-.242,74.464,2.8,2.363a4.356,4.356,0,0,1,1.541,3.518l-1.155,26.824a2,2,0,0,0,1.991,2.1c.858,0,1.657-.005,1.657-.032,0-16.751,3.146-30.484,7.217-30.484s7.37,13.578,7.37,30.329c0,.059,9.743.174,9.743.174V740.421Z" transform="translate(-1609.912 -707.156)" fill="#fff"/>
        <g id="Group_4706" data-name="Group 4706" transform="translate(162.325 32.312)">
          <path id="Path_5936" data-name="Path 5936" d="M1873.459,740.329h-68.726V849.472h74.55a4.04,4.04,0,0,0,4.027-4.054v-35a165.906,165.906,0,0,0-2.552-28.989Z" transform="translate(-1803.982 -739.579)" fill="#8ec3f2"/>
          <path id="Path_5937" data-name="Path 5937" d="M1878.53,849.471h-74.55a.75.75,0,0,1-.75-.75V739.578a.75.75,0,0,1,.75-.75h68.727a.75.75,0,0,1,.738.619l7.3,41.1a167.006,167.006,0,0,1,2.565,29.12v35A4.8,4.8,0,0,1,1878.53,849.471Zm-73.8-1.5h73.8a3.3,3.3,0,0,0,3.278-3.3v-35a165.535,165.535,0,0,0-2.541-28.858l-7.187-40.486h-67.35Z" transform="translate(-1803.231 -738.829)"/>
        </g>
        <path id="Path_5938" data-name="Path 5938" d="M1777.421,811.546l3.615.623a1.96,1.96,0,0,0,2.286-1.941V787.616a2.783,2.783,0,0,0-2.774-2.792h-5.026a2.324,2.324,0,0,0-2.316,2.331v19.36A5.094,5.094,0,0,0,1777.421,811.546Z" transform="translate(-1625.884 -729.529)" fill="#c6e1f9"/>
        <path id="Path_5939" data-name="Path 5939" d="M1605.918,782.827V675.663l-126.047,15.21v92.067Z" transform="translate(-1479.121 -674.914)" fill="#fff"/>
        <g id="Group_4707" data-name="Group 4707" transform="translate(131.107 6.768)">
          <path id="Path_5940" data-name="Path 5940" d="M1832.873,714.542h-90.617l4.066-19.093a8.162,8.162,0,0,1,8.117-6.24h68.293A6.266,6.266,0,0,1,1829,694.13Z" transform="translate(-1741.506 -688.459)" fill="#fff"/>
          <path id="Path_5941" data-name="Path 5941" d="M1832.122,714.541h-90.617a.75.75,0,0,1-.733-.906l4.066-19.093a8.935,8.935,0,0,1,8.85-6.833h68.293a7.007,7.007,0,0,1,7,5.531l3.874,20.411a.75.75,0,0,1-.736.889Zm-89.691-1.5h88.786l-3.706-19.522a5.509,5.509,0,0,0-5.531-4.312h-68.293a7.431,7.431,0,0,0-7.384,5.646Z" transform="translate(-1740.756 -687.709)"/>
        </g>
        <g id="Group_4708" data-name="Group 4708" transform="translate(138.3 6.768)">
          <path id="Path_5942" data-name="Path 5942" d="M1836.2,694.131a6.267,6.267,0,0,0-6.267-4.922H1761.64a8.618,8.618,0,0,0-4.99,1.577l29.625,23.756h53.8Z" transform="translate(-1755.901 -688.459)" fill="#8ec3f2"/>
          <path id="Path_5943" data-name="Path 5943" d="M1839.323,714.541h-53.8a.753.753,0,0,1-.469-.165l-29.624-23.756a.749.749,0,0,1,.035-1.2,9.317,9.317,0,0,1,5.424-1.715h68.293a7.007,7.007,0,0,1,7,5.531h0l3.874,20.411a.75.75,0,0,1-.737.889Zm-53.536-1.5h52.631l-3.7-19.522h0a5.509,5.509,0,0,0-5.531-4.312H1760.89a7.87,7.87,0,0,0-3.693.907Z" transform="translate(-1755.15 -687.709)"/>
        </g>
        <g id="Group_4709" data-name="Group 4709" transform="translate(166.821 52.444)">
          <path id="Path_5944" data-name="Path 5944" d="M1818.935,780.62h53.528a5.217,5.217,0,0,1,5.129,4.335l4.552,26.1a4.108,4.108,0,0,1-4.027,4.827h-60.3a4.1,4.1,0,0,1-4.089-4.116V785.861A5.224,5.224,0,0,1,1818.935,780.62Z" transform="translate(-1812.979 -779.87)" fill="#8ec3f2"/>
          <path id="Path_5945" data-name="Path 5945" d="M1854.191,825.541a16.606,16.606,0,0,0-11.854-5.011h-28.714v11.207a4.087,4.087,0,0,0,4.141,4.044h60.3a4.079,4.079,0,0,0,4.027-4.792l-.082-.437h-15.964A16.609,16.609,0,0,1,1854.191,825.541Z" transform="translate(-1812.926 -799.838)" fill="#c6e1f9"/>
          <path id="Path_5946" data-name="Path 5946" d="M1877.367,815.883h-60.3a4.857,4.857,0,0,1-4.838-4.865V785.11a5.98,5.98,0,0,1,5.956-5.991h53.529a5.957,5.957,0,0,1,5.867,4.956l4.552,26.1a4.871,4.871,0,0,1-1.07,3.981A4.818,4.818,0,0,1,1877.367,815.883Zm-59.182-35.265a4.48,4.48,0,0,0-4.457,4.492v25.907a3.357,3.357,0,0,0,3.339,3.366h60.3a3.324,3.324,0,0,0,2.548-1.19,3.375,3.375,0,0,0,.741-2.759l-4.552-26.1a4.46,4.46,0,0,0-4.39-3.715Z" transform="translate(-1812.229 -779.119)"/>
        </g>
        <g id="Group_4710" data-name="Group 4710" transform="translate(98.905 113.103)">
          <path id="Path_5947" data-name="Path 5947" d="M1690.226,900.759h-8c-3.268,0-5.917,7.846-5.917,17.428s2.649,17.432,5.917,17.432h8c3.268,0,5.917-7.848,5.917-17.43S1693.494,900.759,1690.226,900.759Z" transform="translate(-1676.31 -900.638)" fill="#1e88e5"/>
          <ellipse id="Ellipse_38" data-name="Ellipse 38" cx="5.917" cy="17.349" rx="5.917" ry="17.349" transform="translate(0)" fill="#8ec3f2"/>
        </g>
        <g id="Group_4711" data-name="Group 4711" transform="translate(13.519 110.717)">
          <path id="Path_5948" data-name="Path 5948" d="M1517.355,896.4H1510.5c-2.8,0-5.073,6.489-5.073,14.6s2.271,14.6,5.073,14.6h6.857c2.8,0,5.072-6.491,5.072-14.6S1520.156,896.4,1517.355,896.4Z" transform="translate(-1505.426 -896.07)" fill="#1e88e5"/>
          <ellipse id="Ellipse_39" data-name="Ellipse 39" cx="5.072" cy="14.678" rx="5.072" ry="14.678" transform="translate(0)" fill="#8ec3f2"/>
        </g>
        <g id="Group_4712" data-name="Group 4712" transform="translate(26.506 111.589)">
          <path id="Path_5949" data-name="Path 5949" d="M1543.346,898.143h-6.857c-2.8,0-5.072,6.489-5.072,14.6s2.271,14.6,5.072,14.6h6.857c2.8,0,5.072-6.491,5.072-14.6S1546.147,898.143,1543.346,898.143Z" transform="translate(-1531.417 -897.814)" fill="#1e88e5"/>
          <ellipse id="Ellipse_40" data-name="Ellipse 40" cx="5.072" cy="14.678" rx="5.072" ry="14.678" fill="#8ec3f2"/>
        </g>
        <g id="Group_4713" data-name="Group 4713" transform="translate(39.599 111.694)">
          <path id="Path_5950" data-name="Path 5950" d="M1570.008,898.143h-7.12c-2.909,0-5.267,6.938-5.267,15.467s2.358,15.471,5.267,15.471h7.12c2.908,0,5.267-6.94,5.267-15.469S1572.916,898.143,1570.008,898.143Z" transform="translate(-1557.621 -897.92)" fill="#1e88e5"/>
          <ellipse id="Ellipse_41" data-name="Ellipse 41" cx="5.267" cy="15.442" rx="5.267" ry="15.442" fill="#8ec3f2"/>
        </g>
        <g id="Group_4716" data-name="Group 4716" transform="translate(169.495 120.463)">
          <g id="Group_4714" data-name="Group 4714" transform="translate(0 0.586)">
            <path id="Path_5951" data-name="Path 5951" d="M1831.763,926.392h-9.671a3.022,3.022,0,0,1-3.012-3.032v-5.441h7.646a6.114,6.114,0,0,1,5.765,4.11l.777,2.225A1.6,1.6,0,0,1,1831.763,926.392Z" transform="translate(-1818.33 -917.169)" fill="#caddff"/>
            <path id="Path_5952" data-name="Path 5952" d="M1831.012,926.391h-9.671a3.776,3.776,0,0,1-3.762-3.782v-5.441a.75.75,0,0,1,.75-.75h7.646a6.873,6.873,0,0,1,6.472,4.612l.777,2.225a2.355,2.355,0,0,1-2.212,3.135Zm-11.933-8.474v4.692a2.275,2.275,0,0,0,2.263,2.282h9.671a.833.833,0,0,0,.686-.357.855.855,0,0,0,.111-.785l-.777-2.225a5.373,5.373,0,0,0-5.057-3.608Z" transform="translate(-1817.58 -916.418)"/>
          </g>
          <g id="Group_4715" data-name="Group 4715" transform="translate(51.329)">
            <path id="Path_5953" data-name="Path 5953" d="M1923.4,925.219h9.671a3.022,3.022,0,0,0,3.012-3.032v-5.441h-7.645a6.113,6.113,0,0,0-5.765,4.11l-.778,2.225A1.6,1.6,0,0,0,1923.4,925.219Z" transform="translate(-1921.054 -915.996)" fill="#caddff"/>
            <path id="Path_5954" data-name="Path 5954" d="M1932.32,925.218h-9.671a2.354,2.354,0,0,1-2.212-3.135l.777-2.225a6.873,6.873,0,0,1,6.472-4.612h7.645a.75.75,0,0,1,.75.75v5.442A3.776,3.776,0,0,1,1932.32,925.218Zm-4.633-8.474a5.372,5.372,0,0,0-5.057,3.608l-.777,2.225a.854.854,0,0,0,.11.785.833.833,0,0,0,.687.356h9.671a2.275,2.275,0,0,0,2.262-2.282v-4.692Z" transform="translate(-1920.305 -915.245)"/>
          </g>
        </g>
        <path id="Path_5955" data-name="Path 5955" d="M1881.293,941h-25.445a3.641,3.641,0,0,1-3.164-1.847l-1.124-1.976a1.006,1.006,0,0,1,.867-1.506h32.285a1.006,1.006,0,0,1,.867,1.506l-1.124,1.976A3.642,3.642,0,0,1,1881.293,941Z" transform="translate(-1665.02 -805.002)" fill="#1e88e5"/>
        <g id="Group_4717" data-name="Group 4717" transform="translate(141.619 58.407)">
          <path id="Rectangle_2406" data-name="Rectangle 2406" d="M4.8,0h1.41a2.2,2.2,0,0,1,2.2,2.2V18.123a2.163,2.163,0,0,1-2.163,2.163h0A6.244,6.244,0,0,1,0,14.042V4.8A4.8,4.8,0,0,1,4.8,0Z" transform="translate(0.75 0.749)" fill="#1e88e5"/>
          <path id="Path_5956" data-name="Path 5956" d="M1768.962,812.839h-.678a6.5,6.5,0,0,1-6.491-6.491V796.217a5.168,5.168,0,0,1,5.163-5.163h1.974a2.774,2.774,0,0,1,2.771,2.771V810.1A2.742,2.742,0,0,1,1768.962,812.839Zm-2.006-20.286a3.667,3.667,0,0,0-3.664,3.664v10.131a5,5,0,0,0,4.992,4.992h.678a1.241,1.241,0,0,0,1.239-1.24V793.825a1.273,1.273,0,0,0-1.272-1.272Z" transform="translate(-1761.793 -791.054)"/>
        </g>
        <path id="Path_5957" data-name="Path 5957" d="M1963.89,812.975h0a1.379,1.379,0,0,1-1.379-1.379V792.166a1.058,1.058,0,0,1,1.058-1.058h2.115a3.423,3.423,0,0,1,3.423,3.423v13.227A5.217,5.217,0,0,1,1963.89,812.975Z" transform="translate(-1720.598 -732.673)" fill="#1e88e5"/>
        <g id="Group_4719" data-name="Group 4719" transform="translate(168.167 100.37)">
          <path id="Path_5958" data-name="Path 5958" d="M1883.046,875.034h-67.418a.708.708,0,0,0-.706.711v4.421a2.7,2.7,0,0,0,2.694,2.712h2.033a2.694,2.694,0,0,1,2.442,1.568L1824.2,889a11.192,11.192,0,0,0,10.15,6.512h32.008a11.192,11.192,0,0,0,10.15-6.513l2.107-4.556a2.694,2.694,0,0,1,2.442-1.568h0a2.7,2.7,0,0,0,2.694-2.712v-4.421A.708.708,0,0,0,1883.046,875.034Z" transform="translate(-1814.922 -875.034)" fill="#1e88e5"/>
          <g id="Group_4718" data-name="Group 4718" transform="translate(8.124 3.776)">
            <path id="Path_5959" data-name="Path 5959" d="M1886.084,884.089H1831.93a.75.75,0,1,1,0-1.5h54.155a.75.75,0,1,1,0,1.5Z" transform="translate(-1831.18 -882.59)"/>
            <path id="Path_5960" data-name="Path 5960" d="M1885.962,893.182h-44.226a.75.75,0,0,1,0-1.5h44.226a.75.75,0,0,1,0,1.5Z" transform="translate(-1836.086 -887.139)"/>
            <path id="Path_5961" data-name="Path 5961" d="M1884.679,902.275h-33.912a.75.75,0,0,1,0-1.5h33.912a.75.75,0,0,1,0,1.5Z" transform="translate(-1840.605 -891.689)"/>
          </g>
        </g>
        <path id="Path_5962" data-name="Path 5962" d="M1479.121,782.94a.75.75,0,0,1-.75-.75V690.123a.749.749,0,0,1,.66-.744l126.047-15.211a.75.75,0,0,1,.839.745V781.855a.749.749,0,0,1-.748.749l-126.047.335Zm126.047-1.085h0Zm-125.3-91.067v90.651l124.548-.331V675.758Z" transform="translate(-1478.371 -674.163)"/>
      </g>
      <circle id="Ellipse_42" data-name="Ellipse 42" cx="7.689" cy="7.689" r="7.689" transform="translate(1620.757 242.502) rotate(-80.783)" fill="#fff"/>
    </g>
  </g>
</svg>
