<svg xmlns="http://www.w3.org/2000/svg" width="24" height="24" viewBox="0 0 24 24">
  <g id="arrow" transform="translate(-26.865 1466.865) rotate(-90)">
    <rect id="Rectangle_1879" data-name="Rectangle 1879" width="24" height="24" transform="translate(1442.865 26.865)" fill="none"/>
    <path id="Path_5701" data-name="Path 5701" d="M819.756-1217.4l-9.272-9.273a1.53,1.53,0,0,1-.452-1.09,1.533,1.533,0,0,1,.452-1.091,1.531,1.531,0,0,1,1.09-.452,1.53,1.53,0,0,1,1.09.453l8.182,8.181,8.182-8.181a1.532,1.532,0,0,1,1.091-.453,1.53,1.53,0,0,1,1.09.453,1.532,1.532,0,0,1,.452,1.09,1.53,1.53,0,0,1-.452,1.09l-9.272,9.273a1.532,1.532,0,0,1-1.091.452A1.536,1.536,0,0,1,819.756-1217.4Z" transform="translate(634.018 1261.989)" fill="#80868b"/>
  </g>
</svg>
