<svg xmlns="http://www.w3.org/2000/svg" width="285" height="285" viewBox="0 0 285 285">
  <g id="collapsible" transform="translate(-330 -1147)">
    <rect id="Rectangle_2293" data-name="Rectangle 2293" width="285" height="285" rx="20" transform="translate(330 1147)" fill="#fff"/>
    <g id="Group_4509" data-name="Group 4509" transform="translate(0 -9)">
      <rect id="Rectangle_2310" data-name="Rectangle 2310" width="245" height="4" rx="2" transform="translate(350 1176)" fill="#f1f3f4"/>
      <rect id="Rectangle_2327" data-name="Rectangle 2327" width="245" height="4" rx="2" transform="translate(350 1212)" fill="#f1f3f4"/>
      <rect id="Rectangle_2329" data-name="Rectangle 2329" width="245" height="4" rx="2" transform="translate(350 1248)" fill="#f1f3f4"/>
      <rect id="Rectangle_2311" data-name="Rectangle 2311" width="190" height="4" rx="2" transform="translate(350 1194)" fill="#f1f3f4"/>
      <rect id="Rectangle_2326" data-name="Rectangle 2326" width="190" height="4" rx="2" transform="translate(350 1230)" fill="#f1f3f4"/>
      <rect id="Rectangle_2360" data-name="Rectangle 2360" width="190" height="4" rx="2" transform="translate(350 1410)" fill="#f1f3f4"/>
    </g>
    <g id="Group_4508" data-name="Group 4508" transform="translate(350.214 1287.75)">
      <g id="Rectangle_1674" data-name="Rectangle 1674" transform="translate(-0.214 -22.75)" fill="#fff" stroke="#0e1013" stroke-width="2">
        <rect width="245" height="111" rx="10" stroke="none"/>
        <rect x="1" y="1" width="243" height="109" rx="9" fill="none"/>
      </g>
      <rect id="Rectangle_1694" data-name="Rectangle 1694" width="225" height="57" rx="4" transform="translate(9.786 4.25)" fill="#aef2c9"/>
      <g id="Group_4563" data-name="Group 4563" transform="translate(-149.529 -334.02)">
        <g id="arrow-down-s-fill_1_" data-name="arrow-down-s-fill (1)" transform="translate(266.912 373.289)">
          <path id="Path_4784" data-name="Path 4784" d="M0,0H10.251V10.251H0Z" transform="translate(0 0)" fill="none"/>
          <path id="Path_4785" data-name="Path 4785" d="M10.393,14.393,6,10h8.787Z" transform="translate(-5.395 -6.466)" fill="#0e1013"/>
        </g>
        <g id="mouse-line" transform="translate(259 350)">
          <path id="Path_4786" data-name="Path 4786" d="M0,0H25.629V25.629H0Z" fill="none"/>
          <path id="Path_6624" data-name="Path 6624" d="M-4047.667-720.723a8.987,8.987,0,0,1-4.554-.906,6.233,6.233,0,0,1-2.6-2.6,9,9,0,0,1-.9-4.552v-6.107a8.985,8.985,0,0,1,.906-4.554,6.24,6.24,0,0,1,2.6-2.6,8.981,8.981,0,0,1,4.551-.906h1.834a8.985,8.985,0,0,1,4.554.907,6.227,6.227,0,0,1,2.6,2.6,8.981,8.981,0,0,1,.907,4.552v6.106a8.987,8.987,0,0,1-.908,4.554,6.232,6.232,0,0,1-2.6,2.6,8.992,8.992,0,0,1-4.553.905Zm-3.135-18.67a3.247,3.247,0,0,0-1.366,1.365,6.205,6.205,0,0,0-.553,3.137v6.106a6.2,6.2,0,0,0,.552,3.135,3.238,3.238,0,0,0,1.367,1.368,6.21,6.21,0,0,0,3.135.552h1.834a6.223,6.223,0,0,0,3.136-.552,3.255,3.255,0,0,0,1.366-1.365,6.207,6.207,0,0,0,.553-3.138v-6.106a6.21,6.21,0,0,0-.552-3.136,3.253,3.253,0,0,0-1.365-1.366,6.216,6.216,0,0,0-3.137-.552h-1.835A6.2,6.2,0,0,0-4050.8-739.393Zm2.55,6.924v-6.21h3.006v6.21Z" transform="translate(4059.564 744.651)" fill="#0e1013"/>
        </g>
      </g>
    </g>
  </g>
</svg>
