<svg xmlns="http://www.w3.org/2000/svg" width="80" height="80" viewBox="0 0 80 80">
  <g id="xerc" transform="translate(-371.514 -5438.771)">
    <rect id="Rectangle_66" data-name="Rectangle 66" width="80" height="80" transform="translate(371.514 5438.771)" fill="none"/>
    <g id="new-car" transform="translate(375.241 5442.332)">
      <path id="Path_5718" data-name="Path 5718" d="M-799.365-2980.681a4.7,4.7,0,0,1-3.311-1.354,4.668,4.668,0,0,1-1.4-3.36v-1.664h-28.265v1.664a4.7,4.7,0,0,1-1.354,3.311,4.672,4.672,0,0,1-3.36,1.4h-4.555a4.7,4.7,0,0,1-3.311-1.354,4.668,4.668,0,0,1-1.4-3.36v-5.284a12.513,12.513,0,0,1-2.961-7.925v-7.288a10.4,10.4,0,0,1,1.577-5.649h-2.329a3.693,3.693,0,0,1-3.689-3.688v-1.366a3.7,3.7,0,0,1,1.1-2.588,3.7,3.7,0,0,1,2.588-1.1h2.164a6.248,6.248,0,0,1,4.689,2.163l4.416-9.149a6.83,6.83,0,0,1,6.381-4.288h13.074a17.128,17.128,0,0,1-.82-5.307,17.47,17.47,0,0,1,1.4-6.87,17.744,17.744,0,0,1,3.8-5.626,17.732,17.732,0,0,1,5.626-3.8,17.463,17.463,0,0,1,6.869-1.4,17.444,17.444,0,0,1,6.872,1.4,17.8,17.8,0,0,1,5.638,3.814,18.01,18.01,0,0,1,5.3,12.589v.006a17.544,17.544,0,0,1-2.872,9.654,17.8,17.8,0,0,1-6.974,6.177l1.449,2.9a6.048,6.048,0,0,1,4.709-2.15h2.049a3.756,3.756,0,0,1,3.687,3.657v1.4a3.693,3.693,0,0,1-3.688,3.688h-2.552a14.924,14.924,0,0,1,.721,1.326l.008.017a10.8,10.8,0,0,1,.956,4.306v7.287a11.776,11.776,0,0,1-2.96,7.819v5.277a4.7,4.7,0,0,1-1.354,3.311,4.672,4.672,0,0,1-3.36,1.4Zm-1.436-4.828a1.533,1.533,0,0,0,1.55,1.55h4.555a1.515,1.515,0,0,0,1.55-1.436v-2.8a9.885,9.885,0,0,1-4.4,1.019H-800.8Zm-42.36,0a1.533,1.533,0,0,0,1.55,1.55h4.555a1.533,1.533,0,0,0,1.55-1.55v-1.778h-3.258a9.9,9.9,0,0,1-4.4-1.018Zm-2.961-20.5v7.287c0,3.993,2.957,8.268,7.358,8.268h41.222c4.057,0,7.357-3.709,7.357-8.268v-.5h.113v-6.788a7.509,7.509,0,0,0-.635-2.976,8.7,8.7,0,0,0-1.466-2.1h-51.857A7.129,7.129,0,0,0-846.122-3006.005Zm10.334-19.988-.009.025-.012.022c-3.914,8.178-5.176,10.755-5.683,11.7h46.659c-.383-.77-.957-1.96-1.517-3.122-.451-.936-.947-1.965-1.207-2.487a15.921,15.921,0,0,1-4.883.688,17.485,17.485,0,0,1-15.445-9.11h-14.5A3.567,3.567,0,0,0-835.789-3025.994Zm44.5,10.88c-.033.054-.063.1-.092.15a1.451,1.451,0,0,0,.1.145h5.012a.4.4,0,0,0,.411-.411v-1.48a.4.4,0,0,0-.411-.41h-2.049A3.415,3.415,0,0,0-791.285-3015.114Zm-59.164-1.482v1.366a.4.4,0,0,0,.411.411h4.962c.035-.049.07-.1.1-.142.015-.019.03-.04.045-.059a3.464,3.464,0,0,0-3.061-2.1h-2.049A.517.517,0,0,0-850.45-3016.6Zm33.707-20.27a14.434,14.434,0,0,0,14.417,14.418,14.434,14.434,0,0,0,14.417-14.418,14.491,14.491,0,0,0-14.531-14.417A14.377,14.377,0,0,0-816.743-3036.865Zm-23.077,37.736a6.482,6.482,0,0,1-2.7-.589,2.552,2.552,0,0,1-1.3-2.416v-2.62a3.186,3.186,0,0,1,.911-2.258,3.094,3.094,0,0,1,2.216-.917,3.341,3.341,0,0,1,.66.067l.011,0,6.149,1.366a5.008,5.008,0,0,1,3.921,4.789v.368c0,1.382-1.039,2.208-2.777,2.208Zm-.837-3.349c.618.023,1.92.043,3.728.043,1.719,0,2.991-.017,3.667-.04a1.819,1.819,0,0,0-1.177-.994l-6.218-1.356Zm36.048,3.108a2.135,2.135,0,0,1-1.748-2.418v-.015a4.749,4.749,0,0,1,3.808-4.69l6.273-1.368a3.391,3.391,0,0,1,.666-.067,3.234,3.234,0,0,1,2.368,1.011,2.753,2.753,0,0,1,.753,2.068v2.6a2.647,2.647,0,0,1-1.224,2.449,5.147,5.147,0,0,1-2.693.556c-.482,0-1.127.006-1.81.013-.858.007-1.83.016-2.745.016A18.817,18.817,0,0,1-804.609-2999.371Zm2.74-3.985a1.589,1.589,0,0,0-1.064.949c2.641,0,6.1-.024,7.282-.074v-2.232Z" transform="translate(854.427 3054.06)" fill="#0e1013"/>
      <path id="Path_5717" data-name="Path 5717" d="M-850.183-3035.277v-.75a4.8,4.8,0,0,1-3.544-4.654,1.34,1.34,0,0,1,1.386-1.386,1.387,1.387,0,0,1,1.386,1.386,2.062,2.062,0,0,0,.772,1.585v-4.019a4.8,4.8,0,0,1-3.544-4.655,4.691,4.691,0,0,1,1.128-3.082,5.1,5.1,0,0,1,2.417-1.558v-.765a1.341,1.341,0,0,1,1.386-1.386,1.388,1.388,0,0,1,1.386,1.386v.751a4.8,4.8,0,0,1,3.544,4.654,1.341,1.341,0,0,1-1.386,1.386,1.388,1.388,0,0,1-1.386-1.386,2.094,2.094,0,0,0-.772-1.649v4.082a4.8,4.8,0,0,1,3.544,4.655,4.7,4.7,0,0,1-1.127,3.082,5.1,5.1,0,0,1-2.417,1.558v.765a1.341,1.341,0,0,1-1.386,1.386A1.388,1.388,0,0,1-850.183-3035.277Zm2.772-3.786a2.152,2.152,0,0,0,.772-1.618,2.159,2.159,0,0,0-.772-1.686Zm-3.544-8.707a2.253,2.253,0,0,0,.772,1.643v-3.262A2.159,2.159,0,0,0-850.955-3047.77Z" transform="translate(900.785 3061.421)" fill="#1e88e5"/>
    </g>
  </g>
</svg>
