<svg xmlns="http://www.w3.org/2000/svg" width="285" height="285" viewBox="0 0 285 285">
  <g id="kubbanner" transform="translate(-330 -1147)">
    <rect id="Rectangle_2293" data-name="Rectangle 2293" width="285" height="285" rx="20" transform="translate(330 1147)" fill="#fff"/>
    <g id="Group_4509" data-name="Group 4509" transform="translate(0 -9)">
      <rect id="Rectangle_2310" data-name="Rectangle 2310" width="145" height="4" rx="2" transform="translate(350 1176)" fill="#f1f3f4"/>
      <rect id="Rectangle_2327" data-name="Rectangle 2327" width="145" height="4" rx="2" transform="translate(350 1212)" fill="#f1f3f4"/>
      <rect id="Rectangle_2329" data-name="Rectangle 2329" width="145" height="4" rx="2" transform="translate(350 1248)" fill="#f1f3f4"/>
      <rect id="Rectangle_2331" data-name="Rectangle 2331" width="145" height="4" rx="2" transform="translate(350 1284)" fill="#f1f3f4"/>
      <rect id="Rectangle_2343" data-name="Rectangle 2343" width="145" height="4" rx="2" transform="translate(350 1338)" fill="#f1f3f4"/>
      <rect id="Rectangle_2333" data-name="Rectangle 2333" width="145" height="4" rx="2" transform="translate(350 1320)" fill="#f1f3f4"/>
      <rect id="Rectangle_2341" data-name="Rectangle 2341" width="145" height="4" rx="2" transform="translate(350 1374)" fill="#f1f3f4"/>
      <rect id="Rectangle_2345" data-name="Rectangle 2345" width="145" height="4" rx="2" transform="translate(350 1410)" fill="#f1f3f4"/>
      <rect id="Rectangle_2311" data-name="Rectangle 2311" width="105" height="4" rx="2" transform="translate(350 1194)" fill="#f1f3f4"/>
      <rect id="Rectangle_2326" data-name="Rectangle 2326" width="105" height="4" rx="2" transform="translate(350 1230)" fill="#f1f3f4"/>
      <rect id="Rectangle_2328" data-name="Rectangle 2328" width="105" height="4" rx="2" transform="translate(350 1266)" fill="#f1f3f4"/>
      <rect id="Rectangle_2330" data-name="Rectangle 2330" width="105" height="4" rx="2" transform="translate(350 1302)" fill="#f1f3f4"/>
      <rect id="Rectangle_2342" data-name="Rectangle 2342" width="105" height="4" rx="2" transform="translate(350 1356)" fill="#f1f3f4"/>
      <rect id="Rectangle_2344" data-name="Rectangle 2344" width="105" height="4" rx="2" transform="translate(350 1392)" fill="#f1f3f4"/>
    </g>
    <g id="Group_4511" data-name="Group 4511" transform="translate(165 96)">
      <rect id="Rectangle_2425" data-name="Rectangle 2425" width="80" height="4" rx="2" transform="translate(350 1107)" fill="#f1f3f4"/>
      <rect id="Rectangle_2428" data-name="Rectangle 2428" width="80" height="4" rx="2" transform="translate(350 1071)" fill="#f1f3f4"/>
      <rect id="Rectangle_2427" data-name="Rectangle 2427" width="80" height="4" rx="2" transform="translate(350 1143)" fill="#f1f3f4"/>
      <rect id="Rectangle_2420" data-name="Rectangle 2420" width="55" height="4" rx="2" transform="translate(350 1161)" fill="#f1f3f4"/>
      <rect id="Rectangle_2424" data-name="Rectangle 2424" width="55" height="4" rx="2" transform="translate(350 1089)" fill="#f1f3f4"/>
      <rect id="Rectangle_2426" data-name="Rectangle 2426" width="55" height="4" rx="2" transform="translate(350 1125)" fill="#f1f3f4"/>
    </g>
    <g id="Group_4526" data-name="Group 4526" transform="translate(0 108)">
      <g id="Rectangle_2312" data-name="Rectangle 2312" transform="translate(515 1167)" fill="#fff" stroke="#0e1013" stroke-width="2">
        <rect width="80" height="130" rx="10" stroke="none"/>
        <rect x="1" y="1" width="78" height="128" rx="9" fill="none"/>
      </g>
      <rect id="Rectangle_2348" data-name="Rectangle 2348" width="60" height="110" rx="5" transform="translate(525 1177)" fill="#aef2c9"/>
      <g id="_3d" data-name="3d" transform="translate(534.633 1196.906)">
        <path id="Path_6546" data-name="Path 6546" d="M339.935,206.795a1.194,1.194,0,0,0-1.177,2.077c2.689,1.523,4.248,3.4,4.248,5.277,0,3.267-4.491,6.354-11.057,7.683a1.194,1.194,0,1,0,.473,2.34c7.83-1.586,12.97-5.52,12.97-10.024C345.393,211.371,343.4,208.759,339.935,206.795Z" transform="translate(-304.659 -175.474)" fill="#0e1013"/>
        <path id="Path_6547" data-name="Path 6547" d="M14.4,224.42v4.048a1.193,1.193,0,0,0,1.855.993l7.16-4.773a1.193,1.193,0,0,0,0-1.986l-7.16-4.773a1.193,1.193,0,0,0-1.855.993v3.057c-6.977-1.2-12.013-4.37-12.013-7.83,0-1.88,1.56-3.754,4.248-5.277a1.194,1.194,0,1,0-1.177-2.077C1.99,208.759,0,211.371,0,214.148,0,219.01,5.795,223.064,14.4,224.42Z" transform="translate(0 -175.474)" fill="#0e1013"/>
        <path id="Path_6548" data-name="Path 6548" d="M155.089,20.633l-9.013-4.507a1.2,1.2,0,0,0-1.068,0l-9.014,4.507,9.547,4.773Z" transform="translate(-125.175)" fill="#0e1013"/>
        <path id="Path_6549" data-name="Path 6549" d="M280.547,111.469v-11.2L271,105.047V116.98l8.887-4.444A1.194,1.194,0,0,0,280.547,111.469Z" transform="translate(-249.44 -77.568)" fill="#0e1013"/>
        <path id="Path_6550" data-name="Path 6550" d="M121,111.474a1.194,1.194,0,0,0,.66,1.068l8.887,4.444V105.051L121,100.278Z" transform="translate(-111.373 -77.573)" fill="#0e1013"/>
      </g>
    </g>
  </g>
</svg>
