<svg xmlns="http://www.w3.org/2000/svg" width="285" height="285" viewBox="0 0 285 285">
  <g id="ecommerce" transform="translate(-330 -1147)">
    <rect id="Rectangle_2293" data-name="Rectangle 2293" width="285" height="285" rx="20" transform="translate(330 1147)" fill="#fff"/>
    <g id="Group_4509" data-name="Group 4509" transform="translate(0 -9)">
      <rect id="Rectangle_2310" data-name="Rectangle 2310" width="145" height="4" rx="2" transform="translate(350 1176)" fill="#f1f3f4"/>
      <rect id="Rectangle_2327" data-name="Rectangle 2327" width="145" height="4" rx="2" transform="translate(350 1212)" fill="#f1f3f4"/>
      <rect id="Rectangle_2329" data-name="Rectangle 2329" width="145" height="4" rx="2" transform="translate(350 1248)" fill="#f1f3f4"/>
      <rect id="Rectangle_2331" data-name="Rectangle 2331" width="145" height="4" rx="2" transform="translate(350 1284)" fill="#f1f3f4"/>
      <rect id="Rectangle_2343" data-name="Rectangle 2343" width="145" height="4" rx="2" transform="translate(350 1338)" fill="#f1f3f4"/>
      <rect id="Rectangle_2333" data-name="Rectangle 2333" width="145" height="4" rx="2" transform="translate(350 1320)" fill="#f1f3f4"/>
      <rect id="Rectangle_2341" data-name="Rectangle 2341" width="145" height="4" rx="2" transform="translate(350 1374)" fill="#f1f3f4"/>
      <rect id="Rectangle_2345" data-name="Rectangle 2345" width="145" height="4" rx="2" transform="translate(350 1410)" fill="#f1f3f4"/>
      <rect id="Rectangle_2311" data-name="Rectangle 2311" width="105" height="4" rx="2" transform="translate(350 1194)" fill="#f1f3f4"/>
      <rect id="Rectangle_2326" data-name="Rectangle 2326" width="105" height="4" rx="2" transform="translate(350 1230)" fill="#f1f3f4"/>
      <rect id="Rectangle_2328" data-name="Rectangle 2328" width="105" height="4" rx="2" transform="translate(350 1266)" fill="#f1f3f4"/>
      <rect id="Rectangle_2330" data-name="Rectangle 2330" width="105" height="4" rx="2" transform="translate(350 1302)" fill="#f1f3f4"/>
      <rect id="Rectangle_2342" data-name="Rectangle 2342" width="105" height="4" rx="2" transform="translate(350 1356)" fill="#f1f3f4"/>
      <rect id="Rectangle_2344" data-name="Rectangle 2344" width="105" height="4" rx="2" transform="translate(350 1392)" fill="#f1f3f4"/>
    </g>
    <g id="Group_4511" data-name="Group 4511" transform="translate(165 96)">
      <rect id="Rectangle_2417" data-name="Rectangle 2417" width="80" height="4" rx="2" transform="translate(350 1179)" fill="#f1f3f4"/>
      <rect id="Rectangle_2335" data-name="Rectangle 2335" width="80" height="4" rx="2" transform="translate(350 1215)" fill="#f1f3f4"/>
      <rect id="Rectangle_2337" data-name="Rectangle 2337" width="80" height="4" rx="2" transform="translate(350 1251)" fill="#f1f3f4"/>
      <rect id="Rectangle_2346" data-name="Rectangle 2346" width="80" height="4" rx="2" transform="translate(350 1287)" fill="#f1f3f4"/>
      <rect id="Rectangle_2418" data-name="Rectangle 2418" width="55" height="4" rx="2" transform="translate(350 1197)" fill="#f1f3f4"/>
      <rect id="Rectangle_2334" data-name="Rectangle 2334" width="55" height="4" rx="2" transform="translate(350 1233)" fill="#f1f3f4"/>
      <rect id="Rectangle_2336" data-name="Rectangle 2336" width="55" height="4" rx="2" transform="translate(350 1269)" fill="#f1f3f4"/>
      <rect id="Rectangle_2347" data-name="Rectangle 2347" width="55" height="4" rx="2" transform="translate(350 1305)" fill="#f1f3f4"/>
    </g>
    <g id="Group_4526" data-name="Group 4526">
      <g id="Rectangle_2312" data-name="Rectangle 2312" transform="translate(515 1167)" fill="#fff" stroke="#0e1013" stroke-width="2">
        <rect width="80" height="80" rx="10" stroke="none"/>
        <rect x="1" y="1" width="78" height="78" rx="9" fill="none"/>
      </g>
      <rect id="Rectangle_2348" data-name="Rectangle 2348" width="60" height="60" rx="5" transform="translate(525 1177)" fill="#aef2c9"/>
      <rect id="Rectangle_2253" data-name="Rectangle 2253" width="44.839" height="16.096" rx="2" transform="translate(532.581 1207.658)" fill="#0e1013"/>
      <path id="Path_6542" data-name="Path 6542" d="M4.56,4.228C7,4.228,8.67,2.694,8.67.436a3.411,3.411,0,0,0-3.5-3.571A2.662,2.662,0,0,0,2.8-1.969H2.76L3-4.883H8.028V-6.654H1.255L.731-.531H2.723A2.128,2.128,0,0,1,4.59-1.512,1.9,1.9,0,0,1,6.545.5a1.882,1.882,0,0,1-1.97,1.97A1.847,1.847,0,0,1,2.62.945H.562C.628,2.871,2.273,4.228,4.56,4.228Zm9.517,0c2.678,0,4.3-2.147,4.3-5.585S16.741-6.9,14.078-6.9,9.769-4.788,9.769-1.349,11.4,4.228,14.078,4.228Zm0-1.785c-1.269,0-2.044-1.372-2.044-3.792,0-2.4.789-3.763,2.044-3.763s2.036,1.358,2.036,3.763C16.114,1.078,15.347,2.443,14.078,2.443ZM24.458,5V4.051c2.317-.2,3.623-1.365,3.623-3.239,0-1.6-.944-2.582-2.833-3l-.789-.155V-5.09A1.5,1.5,0,0,1,25.831-3.7h2.051c-.03-1.7-1.358-2.907-3.423-3.091V-7.812h-1.04V-6.8c-2.213.177-3.512,1.343-3.512,3.15,0,1.535.952,2.56,2.73,2.973l.782.184V2.384A1.637,1.637,0,0,1,21.8.952h-2.11c.007,1.808,1.417,2.973,3.733,3.106V5Zm1.535-3.955c0,.782-.568,1.284-1.535,1.343v-2.7C25.506-.1,25.993.333,25.993,1.048ZM22.039-3.836A1.324,1.324,0,0,1,23.418-5.1v2.545C22.518-2.744,22.039-3.187,22.039-3.836Z" transform="translate(540.872 1198.058)" fill="#0e1013"/>
      <path id="Path_6543" data-name="Path 6543" d="M-17.352-.962C-17.312.255-16.319,1-14.761,1c1.608,0,2.627-.795,2.627-2.052,0-.988-.566-1.545-1.864-1.823l-.786-.166c-.746-.171-1.06-.4-1.06-.795,0-.481.449-.8,1.118-.8s1.159.332,1.2.88h1.271c-.022-1.172-.97-1.949-2.479-1.949-1.446,0-2.479.79-2.479,1.985,0,.948.588,1.554,1.783,1.81l.844.184c.781.175,1.091.409,1.091.831,0,.476-.494.822-1.217.822s-1.275-.35-1.338-.885ZM-11.821.884h1.311V-1.923A1.043,1.043,0,0,1-9.436-3.041.94.94,0,0,1-8.435-2V.884h1.311V-2.277A1.69,1.69,0,0,0-8.906-4.132a1.628,1.628,0,0,0-1.6.957h-.027V-5.906h-1.289ZM-4.462.97A2.311,2.311,0,0,0-2.023-1.59,2.321,2.321,0,0,0-4.462-4.146,2.325,2.325,0,0,0-6.9-1.59,2.313,2.313,0,0,0-4.462.97Zm0-1.01c-.692,0-1.109-.566-1.109-1.549S-5.153-3.14-4.462-3.14s1.1.575,1.1,1.549S-3.77-.041-4.462-.041ZM1.074-4.119a1.639,1.639,0,0,0-1.536.9H-.489V-4.06H-1.782v6.5H-.471V.053h.027A1.612,1.612,0,0,0,1.092.943C2.331.943,3.1-.018,3.1-1.59S2.327-4.119,1.074-4.119Zm-.436,4C-.031-.117-.475-.7-.475-1.586S-.031-3.059.638-3.059,1.761-2.48,1.761-1.59,1.316-.117.638-.117Zm5.615,1V-3.36h.04L9.325.884h1.123V-5.6H9.15v4.222H9.114L6.087-5.6H4.955V.884ZM13.226.97a2.311,2.311,0,0,0,2.439-2.56,2.321,2.321,0,0,0-2.439-2.555A2.325,2.325,0,0,0,10.787-1.59,2.313,2.313,0,0,0,13.226.97Zm0-1.01c-.692,0-1.109-.566-1.109-1.549s.418-1.549,1.109-1.549,1.1.575,1.1,1.549S13.917-.041,13.226-.041Zm9.528-4.02H21.461L20.693-.369h-.027l-.9-3.692H18.51L17.616-.369h-.027L16.826-4.06h-1.32L16.826.884H18.2l.9-3.521h.027L20.046.884h1.392Z" transform="translate(551.827 1218.271)" fill="#fff"/>
    </g>
  </g>
</svg>
