<svg xmlns="http://www.w3.org/2000/svg" width="20" height="20" viewBox="0 0 20 20">
  <g id="user" transform="translate(-1442.31 -26.31)">
    <rect id="Rectangle_1879" data-name="Rectangle 1879" width="20" height="20" transform="translate(1442.31 26.31)" fill="none"/>
    <g id="logout" transform="translate(1443.587 27.6)">
      <g id="Group_4824" data-name="Group 4824" transform="translate(0.014)">
        <g id="Group_4823" data-name="Group 4823" transform="translate(0)">
          <path id="Path_6141" data-name="Path 6141" d="M305.882,151.965a.734.734,0,0,0-.157-.237l-2.177-2.177a.726.726,0,0,0-1.026,1.026l.938.938h-4.055a.726.726,0,0,0,0,1.452h4.054l-.938.938a.726.726,0,1,0,1.026,1.026l2.177-2.177a.719.719,0,0,0,.157-.237A.727.727,0,0,0,305.882,151.965Z" transform="translate(-288.518 -144.258)" fill="#0e1013"/>
          <path id="Path_6142" data-name="Path 6142" d="M12.353,10.162a.726.726,0,0,0-.726.726v3.629h-2.9V2.9a.727.727,0,0,0-.518-.7L5.686,1.452h5.942V5.081a.726.726,0,1,0,1.452,0V.726A.726.726,0,0,0,12.353,0H.74A.647.647,0,0,0,.665.014.717.717,0,0,0,.357.121C.341.131.322.132.307.144S.3.156.293.16A.719.719,0,0,0,.1.39a.593.593,0,0,0-.02.061.688.688,0,0,0-.057.17.452.452,0,0,0,0,.063C.023.7.014.711.014.726V15.242a.725.725,0,0,0,.584.711l7.258,1.452A.676.676,0,0,0,8,17.42a.726.726,0,0,0,.726-.726v-.726h3.629a.726.726,0,0,0,.726-.726V10.887A.726.726,0,0,0,12.353,10.162Z" transform="translate(-0.014)" fill="#0e1013"/>
        </g>
      </g>
    </g>
  </g>
</svg>
