<svg xmlns="http://www.w3.org/2000/svg" width="285" height="285" viewBox="0 0 285 285">
  <g id="expandable" transform="translate(-330 -1147)">
    <rect id="Rectangle_2293" data-name="Rectangle 2293" width="285" height="285" rx="20" transform="translate(330 1147)" fill="#fff"/>
    <g id="Group_4509" data-name="Group 4509" transform="translate(0 88)">
      <rect id="Rectangle_2327" data-name="Rectangle 2327" width="245" height="4" rx="2" transform="translate(350 1212)" fill="#f1f3f4"/>
      <rect id="Rectangle_2329" data-name="Rectangle 2329" width="245" height="4" rx="2" transform="translate(350 1248)" fill="#f1f3f4"/>
      <rect id="Rectangle_2331" data-name="Rectangle 2331" width="245" height="4" rx="2" transform="translate(350 1284)" fill="#f1f3f4"/>
      <rect id="Rectangle_2333" data-name="Rectangle 2333" width="245" height="4" rx="2" transform="translate(350 1320)" fill="#f1f3f4"/>
      <rect id="Rectangle_2326" data-name="Rectangle 2326" width="190" height="4" rx="2" transform="translate(350 1230)" fill="#f1f3f4"/>
      <rect id="Rectangle_2328" data-name="Rectangle 2328" width="190" height="4" rx="2" transform="translate(350 1266)" fill="#f1f3f4"/>
      <rect id="Rectangle_2330" data-name="Rectangle 2330" width="190" height="4" rx="2" transform="translate(350 1302)" fill="#f1f3f4"/>
    </g>
    <g id="Group_4573" data-name="Group 4573" transform="translate(350.214 1189.75)">
      <g id="Rectangle_1674" data-name="Rectangle 1674" transform="translate(-0.214 -22.75)" fill="#fff" stroke="#0e1013" stroke-width="2">
        <rect width="245" height="111" rx="10" stroke="none"/>
        <rect x="1" y="1" width="243" height="109" rx="9" fill="none"/>
      </g>
      <rect id="Rectangle_1694" data-name="Rectangle 1694" width="225" height="57" rx="4" transform="translate(9.786 -12.75)" fill="#aef2c9"/>
      <g id="fullscreen-line" transform="translate(108.339 1.803)">
        <path id="Path_4780" data-name="Path 4780" d="M0,0H27.893V27.893H0Z" fill="none"/>
        <path id="Union_1" data-name="Union 1" d="M16.271,22.066V18.595H20.92V13.946h3.472v8.12ZM0,22.066v-8.12H3.471v4.649H8.121v3.471ZM20.92,8.119V3.471H16.271V0h8.121V8.119ZM0,8.119V0H8.121V3.471H3.471V8.119Z" transform="translate(1.751 2.913)" fill="#0e1013"/>
      </g>
    </g>
  </g>
</svg>
