<svg xmlns="http://www.w3.org/2000/svg" width="20" height="20" viewBox="0 0 20 20">
  <g id="fb" transform="translate(-0.557 -0.558)">
    <rect id="Rectangle_1784" data-name="Rectangle 1784" width="20" height="20" transform="translate(0.558 0.558)" fill="none"/>
    <g id="usa_1_" data-name="usa (1)" transform="translate(1.775 1.775)">
      <path id="Path_5756" data-name="Path 5756" d="M8.783,17.565A8.783,8.783,0,1,0,0,8.783,8.783,8.783,0,0,0,8.783,17.565Z" transform="translate(0 0)" fill="#f0f0f0"/>
      <g id="Group_4560" data-name="Group 4560" transform="translate(0 0)">
        <path id="Path_5757" data-name="Path 5757" d="M24.785,57.773h-7.88V55.48H22.76a8.779,8.779,0,0,1,2.025,2.293Zm1.3,4.586H16.91V60.067h8.87A8.792,8.792,0,0,1,26.083,62.359ZM17.3,71.142a8.724,8.724,0,0,0,5.465-1.907H11.836A8.721,8.721,0,0,0,17.3,71.142Zm7.494-4.2H9.806a8.69,8.69,0,0,1-.986-2.293H25.78A8.685,8.685,0,0,1,24.794,66.946Z" transform="translate(-8.517 -53.577)" fill="#d80027" fill-rule="evenodd"/>
        <path id="Path_5758" data-name="Path 5758" d="M4.077,1.367H4.069v.005Zm0,0h.794L4.123,1.9l.283.878L3.66,2.245l-.742.537.244-.758a8.785,8.785,0,0,0-1.7,1.9h.259l-.473.343-.215.377.224.7L.835,5.037l-.293.681.244.765h.926l-.736.542.283.878L.513,7.368l-.439.322A8.135,8.135,0,0,0,0,8.782H8.783V0A8.743,8.743,0,0,0,4.077,1.367ZM4.4,7.9l.007.005h0Zm-.282-.873L4.4,7.9l-.745-.532-.747.537L3.2,7.027,2.449,6.49h.926l.283-.878.283.878h.926ZM4.128,4.47l.283.878-.747-.537-.747.537L3.2,4.47l-.747-.537h.926l.283-.878.283.878h.926Zm2.688,2.9.747.537L7.28,7.027l.748-.537H7.1l-.283-.878-.283.878H5.609l.747.537-.283.878Zm.463-2.9.283.878-.747-.537-.747.537.283-.878-.747-.537h.926l.283-.878.283.878h.926Zm.283-1.679L7.28,1.913l.748-.537H7.1L6.818.5l-.283.878H5.609l.747.537-.283.878.747-.537Z" transform="translate(0 0)" fill="#0052b4" fill-rule="evenodd"/>
      </g>
    </g>
  </g>
</svg>
