<svg xmlns="http://www.w3.org/2000/svg" width="285" height="285" viewBox="0 0 285 285">
  <g id="floating" transform="translate(-330 -1147)">
    <rect id="Rectangle_2293" data-name="Rectangle 2293" width="285" height="285" rx="20" transform="translate(330 1147)" fill="#fff"/>
    <g id="Group_4584" data-name="Group 4584" transform="translate(0 96)">
      <rect id="Rectangle_2350" data-name="Rectangle 2350" width="60" height="4" rx="2" transform="translate(350 1107)" fill="#f1f3f4"/>
      <rect id="Rectangle_2438" data-name="Rectangle 2438" width="60" height="4" rx="2" transform="translate(350 1143)" fill="#f1f3f4"/>
      <rect id="Rectangle_2443" data-name="Rectangle 2443" width="60" height="4" rx="2" transform="translate(350 1179)" fill="#f1f3f4"/>
      <rect id="Rectangle_2445" data-name="Rectangle 2445" width="60" height="4" rx="2" transform="translate(350 1215)" fill="#f1f3f4"/>
      <rect id="Rectangle_2447" data-name="Rectangle 2447" width="60" height="4" rx="2" transform="translate(350 1251)" fill="#f1f3f4"/>
      <rect id="Rectangle_2354" data-name="Rectangle 2354" width="60" height="4" rx="2" transform="translate(350 1071)" fill="#f1f3f4"/>
      <rect id="Rectangle_2346" data-name="Rectangle 2346" width="60" height="4" rx="2" transform="translate(350 1287)" fill="#f1f3f4"/>
      <rect id="Rectangle_2355" data-name="Rectangle 2355" width="35" height="4" rx="2" transform="translate(350 1089)" fill="#f1f3f4"/>
      <rect id="Rectangle_2439" data-name="Rectangle 2439" width="35" height="4" rx="2" transform="translate(350 1125)" fill="#f1f3f4"/>
      <rect id="Rectangle_2441" data-name="Rectangle 2441" width="35" height="4" rx="2" transform="translate(350 1161)" fill="#f1f3f4"/>
      <rect id="Rectangle_2442" data-name="Rectangle 2442" width="35" height="4" rx="2" transform="translate(350 1197)" fill="#f1f3f4"/>
      <rect id="Rectangle_2444" data-name="Rectangle 2444" width="35" height="4" rx="2" transform="translate(350 1233)" fill="#f1f3f4"/>
      <rect id="Rectangle_2446" data-name="Rectangle 2446" width="35" height="4" rx="2" transform="translate(350 1269)" fill="#f1f3f4"/>
      <rect id="Rectangle_2347" data-name="Rectangle 2347" width="35" height="4" rx="2" transform="translate(350 1305)" fill="#f1f3f4"/>
    </g>
    <g id="Group_4585" data-name="Group 4585" transform="translate(185 96)">
      <rect id="Rectangle_2350-2" data-name="Rectangle 2350" width="60" height="4" rx="2" transform="translate(350 1107)" fill="#f1f3f4"/>
      <rect id="Rectangle_2438-2" data-name="Rectangle 2438" width="60" height="4" rx="2" transform="translate(350 1143)" fill="#f1f3f4"/>
      <rect id="Rectangle_2443-2" data-name="Rectangle 2443" width="60" height="4" rx="2" transform="translate(350 1179)" fill="#f1f3f4"/>
      <rect id="Rectangle_2445-2" data-name="Rectangle 2445" width="60" height="4" rx="2" transform="translate(350 1215)" fill="#f1f3f4"/>
      <rect id="Rectangle_2447-2" data-name="Rectangle 2447" width="60" height="4" rx="2" transform="translate(350 1251)" fill="#f1f3f4"/>
      <rect id="Rectangle_2354-2" data-name="Rectangle 2354" width="60" height="4" rx="2" transform="translate(350 1071)" fill="#f1f3f4"/>
      <rect id="Rectangle_2346-2" data-name="Rectangle 2346" width="60" height="4" rx="2" transform="translate(350 1287)" fill="#f1f3f4"/>
      <rect id="Rectangle_2355-2" data-name="Rectangle 2355" width="35" height="4" rx="2" transform="translate(350 1089)" fill="#f1f3f4"/>
      <rect id="Rectangle_2439-2" data-name="Rectangle 2439" width="35" height="4" rx="2" transform="translate(350 1125)" fill="#f1f3f4"/>
      <rect id="Rectangle_2441-2" data-name="Rectangle 2441" width="35" height="4" rx="2" transform="translate(350 1161)" fill="#f1f3f4"/>
      <rect id="Rectangle_2442-2" data-name="Rectangle 2442" width="35" height="4" rx="2" transform="translate(350 1197)" fill="#f1f3f4"/>
      <rect id="Rectangle_2444-2" data-name="Rectangle 2444" width="35" height="4" rx="2" transform="translate(350 1233)" fill="#f1f3f4"/>
      <rect id="Rectangle_2446-2" data-name="Rectangle 2446" width="35" height="4" rx="2" transform="translate(350 1269)" fill="#f1f3f4"/>
      <rect id="Rectangle_2347-2" data-name="Rectangle 2347" width="35" height="4" rx="2" transform="translate(350 1305)" fill="#f1f3f4"/>
    </g>
    <g id="Group_4526" data-name="Group 4526" transform="translate(-77 88)">
      <g id="Rectangle_2312" data-name="Rectangle 2312" transform="translate(515 1167)" fill="#fff" stroke="#0e1013" stroke-width="2">
        <rect width="80" height="80" rx="10" stroke="none"/>
        <rect x="1" y="1" width="78" height="78" rx="9" fill="none"/>
      </g>
      <g id="Rectangle_2448" data-name="Rectangle 2448" transform="translate(505 1158)" fill="#fff" stroke="#0e1013" stroke-width="2">
        <rect width="80" height="80" rx="10" stroke="none"/>
        <rect x="1" y="1" width="78" height="78" rx="9" fill="none"/>
      </g>
      <rect id="Rectangle_2348" data-name="Rectangle 2348" width="60" height="60" rx="5" transform="translate(515 1168)" fill="#aef2c9"/>
    </g>
  </g>
</svg>
