<svg xmlns="http://www.w3.org/2000/svg" width="80" height="80" viewBox="0 0 80 80">
  <g id="rahatsuretli" transform="translate(-371.514 -5438.771)">
    <rect id="Rectangle_66" data-name="Rectangle 66" width="80" height="80" transform="translate(371.514 5438.771)" fill="none"/>
    <g id="tap" transform="translate(388.567 5440.573)">
      <path id="Path_5704" data-name="Path 5704" d="M113.039,7.461V1.492a1.492,1.492,0,0,0-2.984,0V7.461a1.492,1.492,0,1,0,2.984,0Zm0,0" transform="translate(-93.633)" fill="#1e88e5"/>
      <path id="Path_5705" data-name="Path 5705" d="M174.02,17.058l4.221-4.222a1.492,1.492,0,1,0-2.111-2.11l-4.221,4.221a1.492,1.492,0,0,0,2.111,2.111Zm0,0" transform="translate(-145.886 -8.754)" fill="#1e88e5"/>
      <path id="Path_5706" data-name="Path 5706" d="M25,17.058a1.492,1.492,0,1,0,2.111-2.111l-4.221-4.221a1.492,1.492,0,0,0-2.111,2.11Zm0,0" transform="translate(-17.307 -8.754)" fill="#1e88e5"/>
      <path id="Path_5707" data-name="Path 5707" d="M.616,115.746c.425,1.285,2.093,5.078,2.977,6.979a141.493,141.493,0,0,0,8.512,15.653,8.559,8.559,0,0,1,1.332,4.59,1.492,1.492,0,0,0,1.492,1.492H38.8a1.492,1.492,0,0,0,1.492-1.492v-.04a9.138,9.138,0,0,1,1.142-4.41,39.55,39.55,0,0,0,4.827-18.247v-6.4a5.218,5.218,0,0,0-7.461-4.716V107.9a5.221,5.221,0,0,0-7.714-4.589,5.22,5.22,0,0,0-7.208-3.113V85.222a5.222,5.222,0,0,0-10.445,0v29.667c-2.412-5.046-2.228-4.676-2.313-4.8A6.179,6.179,0,0,0,3.086,107.9a5.941,5.941,0,0,0-2.47,7.842Zm3.92-5.234a3.215,3.215,0,0,1,4.051,1.149c5.436,11.37,5.052,10.627,5.288,10.863a1.493,1.493,0,0,0,2.547-1.055V85.222a2.238,2.238,0,0,1,4.476,0v27.9a1.492,1.492,0,0,0,2.984,0v-8.207a2.238,2.238,0,0,1,4.476,0v8.207a1.492,1.492,0,0,0,2.984,0V107.9a2.238,2.238,0,0,1,4.476,0c.009,5.464.007,6.041,0,8.207a1.492,1.492,0,1,0,2.984,0v-2.238a2.238,2.238,0,1,1,4.476,0v6.4a36.428,36.428,0,0,1-4.454,16.8,12.145,12.145,0,0,0-1.426,4.4H16.327a11.55,11.55,0,0,0-1.7-4.694A133.447,133.447,0,0,1,3.308,114.462a2.974,2.974,0,0,1,1.228-3.951Zm0,0" transform="translate(0 -68.062)" fill="#0e1013"/>
    </g>
  </g>
</svg>
