<svg xmlns="http://www.w3.org/2000/svg" width="44" height="44" viewBox="0 0 44 44">
  <g id="auc" transform="translate(-1442.829 -26.829)">
    <rect id="Rectangle_1879" data-name="Rectangle 1879" width="44" height="44" transform="translate(1442.829 26.829)" fill="none"/>
    <path id="Path_5698" data-name="Path 5698" d="M948.6-649.346a2.773,2.773,0,0,1-2.77-2.77v-1.68a2.773,2.773,0,0,1,2.77-2.77h18.482a2.774,2.774,0,0,1,2.77,2.77v1.68a2.774,2.774,0,0,1-2.77,2.77Zm-.59-4.451v1.68a.591.591,0,0,0,.59.59h18.482a.591.591,0,0,0,.59-.59v-1.68a.591.591,0,0,0-.59-.59H948.6A.591.591,0,0,0,948.009-653.8Zm31.758-4.077c-1.166-1.166-7.3-7.918-11.5-12.82a17.674,17.674,0,0,1-1.764,1.3,7.222,7.222,0,0,1-1.364.715,2.74,2.74,0,0,1-.8,2.084l-1.18,1.18a2.75,2.75,0,0,1-1.95.807,2.745,2.745,0,0,1-1.952-.807l-5.9-5.9a2.733,2.733,0,0,1-.806-1.949,2.738,2.738,0,0,1,.808-1.951l1.18-1.179a2.744,2.744,0,0,1,2.083-.8,7.379,7.379,0,0,1,.713-1.365,23.286,23.286,0,0,1,3.094-3.723,23.293,23.293,0,0,1,3.725-3.1,7.474,7.474,0,0,1,1.374-.718,2.739,2.739,0,0,1,.8-2.083l1.179-1.18a2.741,2.741,0,0,1,1.95-.807,2.739,2.739,0,0,1,1.95.807l5.9,5.9a2.737,2.737,0,0,1,.807,1.949,2.743,2.743,0,0,1-.807,1.951l-1.179,1.179a2.735,2.735,0,0,1-2.086.8,7.4,7.4,0,0,1-.718,1.375,17.455,17.455,0,0,1-1.3,1.754c4.921,4.219,11.668,10.345,12.821,11.5,1.308,1.308,1.912,2.571,1.793,3.756a3.293,3.293,0,0,1-1.074,2.043,3.323,3.323,0,0,1-2.362,1.094A5.116,5.116,0,0,1,979.767-657.874Zm-9.544-14.608c-.111.111-.223.221-.335.329,4.3,5.024,10.425,11.74,11.42,12.737a3.181,3.181,0,0,0,1.9,1.161,1.146,1.146,0,0,0,.816-.438l0-.005a1.248,1.248,0,0,0,.443-.716c.049-.488-.365-1.2-1.165-2-.979-.98-7.68-7.088-12.734-11.421Q970.4-672.658,970.223-672.482Zm-14.146-2.363-1.177,1.177a.575.575,0,0,0-.171.409.57.57,0,0,0,.172.41l5.9,5.9a.576.576,0,0,0,.409.167.577.577,0,0,0,.41-.168l1.179-1.179a.573.573,0,0,0,.168-.409.57.57,0,0,0-.168-.409l-5.9-5.9a.58.58,0,0,0-.409-.171A.581.581,0,0,0,956.077-674.845Zm5.9-5.9c-2.341,2.34-3.259,3.983-3.383,4.514l5.642,5.642a13.338,13.338,0,0,0,3.291-2.335,1.122,1.122,0,0,1,.145-.148,1.206,1.206,0,0,1,.108-.081c.3-.277.61-.571.914-.875s.593-.606.865-.9a1.25,1.25,0,0,1,.087-.117,1.016,1.016,0,0,1,.155-.149,10.555,10.555,0,0,0,2.273-3.343l-5.643-5.641A16.139,16.139,0,0,0,961.978-680.747Zm7.074-7.072-1.178,1.177a.579.579,0,0,0,0,.817l5.9,5.9a.577.577,0,0,0,.409.167.578.578,0,0,0,.409-.167l1.178-1.177a.577.577,0,0,0,.169-.41.57.57,0,0,0-.169-.408l-5.9-5.9a.572.572,0,0,0-.407-.168A.58.58,0,0,0,969.052-687.82Zm7.5,7.484h-.017Z" transform="translate(498.586 718.587)" fill="#0e1013"/>
  </g>
</svg>
