<svg xmlns="http://www.w3.org/2000/svg" width="44" height="44" viewBox="0 0 44 44">
  <g id="auc" transform="translate(-1442.829 -26.829)">
    <rect id="Rectangle_1879" data-name="Rectangle 1879" width="44" height="44" transform="translate(1442.829 26.829)" fill="none"/>
    <path id="Path_5699" data-name="Path 5699" d="M62.113-650.6a1.3,1.3,0,0,1-1.284-1.32l.071-3.3a1.261,1.261,0,0,1,.373-.879l13.863-13.842-.667-.666a1.285,1.285,0,0,1-.309-1.322l4.379-13a5.041,5.041,0,0,1,3.129-3.141l5.489-1.863a4.445,4.445,0,0,1,1.448-.242,4.412,4.412,0,0,1,3.156,1.314l8.848,8.848a4.474,4.474,0,0,1,1.071,4.6l-1.833,5.4a5.025,5.025,0,0,1-3.28,3.183L83.28-662.785a1.292,1.292,0,0,1-.377.057,1.28,1.28,0,0,1-.909-.377l-1.053-1.054-3.049,3.049a1.252,1.252,0,0,1-.5.309l-1.742.581-1.127,1.127.048,2.7a1.284,1.284,0,0,1-1.106,1.3l-2.911.411-.508,3.035a1.287,1.287,0,0,1-1.271,1.089Zm1.335-4.023-.032,1.474,4.255.009.482-2.882a1.3,1.3,0,0,1,1.092-1.066l2.718-.384-.037-2.106a1.254,1.254,0,0,1,.373-.937l1.731-1.732a1.282,1.282,0,0,1,.5-.309l1.742-.58,2.832-2.831L76.95-668.12Zm24.543-32.891L82.5-685.647a2.493,2.493,0,0,0-1.524,1.535l-4.132,12.243,6.408,6.419,12.555-3.812a2.461,2.461,0,0,0,1.6-1.552l1.832-5.425a1.911,1.911,0,0,0-.447-1.967l-8.846-8.847a1.858,1.858,0,0,0-1.336-.557A1.921,1.921,0,0,0,87.991-687.509ZM89.2-673.318l-4.134-4.134a3.418,3.418,0,0,1,0-4.828,3.392,3.392,0,0,1,2.414-1,3.39,3.39,0,0,1,2.414,1l4.134,4.134a3.417,3.417,0,0,1,0,4.828,3.393,3.393,0,0,1-2.414,1A3.4,3.4,0,0,1,89.2-673.318Zm-2.318-7.15a.845.845,0,0,0-.252.605.818.818,0,0,0,.247.584l4.137,4.137a.834.834,0,0,0,.594.246.837.837,0,0,0,.6-.246.844.844,0,0,0,.25-.6.815.815,0,0,0-.247-.583l-4.137-4.137a.843.843,0,0,0-.6-.25A.818.818,0,0,0,86.885-680.469Z" transform="translate(1383.453 719.197)" fill="#0e1013"/>
  </g>
</svg>
