<svg xmlns="http://www.w3.org/2000/svg" width="44" height="44" viewBox="0 0 44 44">
  <g id="auc" transform="translate(-1442.829 -26.829)">
    <rect id="Rectangle_1879" data-name="Rectangle 1879" width="44" height="44" transform="translate(1442.829 26.829)" fill="none"/>
    <g id="wallet" transform="translate(1445.631 29.519)">
      <path id="Path_5700" data-name="Path 5700" d="M36.146,18.5V13.976a4.129,4.129,0,0,0-3.975-4.121V7.077a2.628,2.628,0,0,0-2.625-2.625H22.321l-.933-2.594A2.625,2.625,0,0,0,18.02.281L4.908,5.053A2.625,2.625,0,0,0,3.341,8.422L3.868,9.86A4.129,4.129,0,0,0,0,13.976v20.4A4.129,4.129,0,0,0,4.125,38.5h27.9a4.129,4.129,0,0,0,4.125-4.125V29.7a2.628,2.628,0,0,0,2.25-2.6v-6A2.628,2.628,0,0,0,36.146,18.5Zm0,8.6a.375.375,0,0,1-.375.375h-6a3.375,3.375,0,1,1,0-6.749h6a.375.375,0,0,1,.375.375ZM5.453,7.649a.375.375,0,0,1,.224-.481L18.79,2.395a.375.375,0,0,1,.481.225l.659,1.832h-.507A2.628,2.628,0,0,0,16.8,7.077V9.852H6.26Zm24.469-.572V9.852H19.048V7.077a.375.375,0,0,1,.375-.375H29.547A.375.375,0,0,1,29.922,7.077Zm2.1,29.172H4.125A1.877,1.877,0,0,1,2.25,34.374v-20.4A1.877,1.877,0,0,1,4.125,12.1h27.9A1.877,1.877,0,0,1,33.9,13.976v4.5H29.772a5.624,5.624,0,1,0,0,11.249H33.9v4.65A1.877,1.877,0,0,1,32.022,36.249Z" transform="translate(0 0)" fill="#0e1013"/>
      <circle id="Ellipse_1" data-name="Ellipse 1" cx="1.125" cy="1.125" r="1.125" transform="translate(28.647 22.975)" fill="#0e1013"/>
    </g>
  </g>
</svg>
