<svg xmlns="http://www.w3.org/2000/svg" width="44" height="44" viewBox="0 0 44 44">
  <g id="auc" transform="translate(-1442.829 -26.829)">
    <rect id="Rectangle_1879" data-name="Rectangle 1879" width="44" height="44" transform="translate(1442.829 26.829)" fill="none"/>
    <g id="boat" transform="translate(1444.504 12.602)">
      <path id="Path_5696" data-name="Path 5696" d="M39.458,52.8a5.026,5.026,0,0,1-2.658-.669c-.31-.154-.635-.316-1.01-.46l4.022-10.582a3.108,3.108,0,0,0-2.119-4.111l-2.77-.724V27.947a3.165,3.165,0,0,0-3.162-3.162H26.3V21.712a4.443,4.443,0,0,0-4.438-4.438H18.791a4.443,4.443,0,0,0-4.438,4.438v3.074H8.887a3.165,3.165,0,0,0-3.162,3.162v8.307l-2.77.724A3.108,3.108,0,0,0,.837,41.088L4.859,51.67c-.375.144-.7.305-1.01.46a5.028,5.028,0,0,1-2.658.669,1.191,1.191,0,0,0,0,2.382,7.326,7.326,0,0,0,3.72-.919,5.028,5.028,0,0,1,2.658-.669,5.027,5.027,0,0,1,2.658.669,7.326,7.326,0,0,0,3.72.919,7.326,7.326,0,0,0,3.72-.919,5.027,5.027,0,0,1,2.658-.669,5.026,5.026,0,0,1,2.658.669,7.325,7.325,0,0,0,3.72.919,7.325,7.325,0,0,0,3.72-.919,5.614,5.614,0,0,1,5.316,0,7.325,7.325,0,0,0,3.72.919,1.191,1.191,0,0,0,0-2.382ZM16.735,21.712a2.058,2.058,0,0,1,2.056-2.056h3.068a2.058,2.058,0,0,1,2.056,2.056v3.074H16.735ZM8.107,27.947a.781.781,0,0,1,.78-.78H31.762a.781.781,0,0,1,.78.78v7.684L20.626,32.517a1.192,1.192,0,0,0-.6,0L8.107,35.631V27.947ZM29.361,52.129A5.027,5.027,0,0,1,26.7,52.8a5.026,5.026,0,0,1-2.658-.669,7.325,7.325,0,0,0-3.72-.919,7.326,7.326,0,0,0-3.72.919,5.027,5.027,0,0,1-2.658.669,5.027,5.027,0,0,1-2.658-.669,7.326,7.326,0,0,0-3.72-.919q-.172,0-.335.005L3.063,40.242a.726.726,0,0,1,.495-.96L20.325,34.9l16.767,4.381a.726.726,0,0,1,.495.96L33.415,51.216q-.162-.005-.334-.005a7.324,7.324,0,0,0-3.72.919Z" transform="translate(0 0)" fill="#0e1013"/>
      <path id="Path_5697" data-name="Path 5697" d="M129.021,283.161l-10.709-2.8a1.192,1.192,0,0,0-.6,0L107,283.161a1.191,1.191,0,1,0,.6,2.3l10.408-2.719,10.408,2.719a1.191,1.191,0,0,0,.6-2.3Z" transform="translate(-97.687 -242.166)" fill="#0e1013"/>
    </g>
  </g>
</svg>
