<svg xmlns="http://www.w3.org/2000/svg" width="16" height="16" viewBox="0 0 16 16">
  <g id="Group_4604" data-name="Group 4604" transform="translate(-711 -511)">
    <circle id="Ellipse_25" data-name="Ellipse 25" cx="8" cy="8" r="8" transform="translate(711 511)" fill="#0e1013"/>
    <g id="question-sign" transform="translate(665.16 514.795)">
      <g id="Group_4603" data-name="Group 4603" transform="translate(50.804 0)">
        <path id="Path_5760" data-name="Path 5760" d="M134.893,274.074h-1.577a.27.27,0,0,0-.263.263v1.577a.269.269,0,0,0,.263.263h1.577a.27.27,0,0,0,.263-.263v-1.577a.27.27,0,0,0-.263-.263Z" transform="translate(-131.16 -267.766)" fill="#fff"/>
        <path id="Path_5761" data-name="Path 5761" d="M56.607,1.587a2.724,2.724,0,0,0-.7-.838A3.562,3.562,0,0,0,54.951.2,2.945,2.945,0,0,0,53.893,0a3.356,3.356,0,0,0-3.049,1.748.259.259,0,0,0-.036.184.256.256,0,0,0,.1.164l1.078.821a.315.315,0,0,0,.164.052.256.256,0,0,0,.2-.105,4.482,4.482,0,0,1,.7-.756,1.242,1.242,0,0,1,.71-.19,1.217,1.217,0,0,1,.706.21.594.594,0,0,1,.305.486.738.738,0,0,1-.164.5,1.62,1.62,0,0,1-.552.368,2.775,2.775,0,0,0-.94.713A1.531,1.531,0,0,0,52.7,5.224v.3a.493.493,0,0,0,.069.246.2.2,0,0,0,.168.122H54.51a.229.229,0,0,0,.184-.1.344.344,0,0,0,.079-.213.9.9,0,0,1,.181-.44A1.288,1.288,0,0,1,55.4,4.7q.256-.145.4-.233a3.329,3.329,0,0,0,.378-.286,1.89,1.89,0,0,0,.361-.391,2.219,2.219,0,0,0,.332-1.166A2.153,2.153,0,0,0,56.607,1.587Z" transform="translate(-50.804 0)" fill="#fff"/>
      </g>
    </g>
  </g>
</svg>
