<svg xmlns="http://www.w3.org/2000/svg" xmlns:xlink="http://www.w3.org/1999/xlink" width="24" height="24" viewBox="0 0 24 24">
  <defs>
    <linearGradient id="linear-gradient" x1="0.5" x2="0.5" y2="1" gradientUnits="objectBoundingBox">
      <stop offset="0" stop-color="#4e58cd"/>
      <stop offset="0.515" stop-color="#d62977"/>
      <stop offset="1" stop-color="#f6d373"/>
    </linearGradient>
  </defs>
  <g id="ins" transform="translate(3.705 3.704)">
    <circle id="Ellipse_18" data-name="Ellipse 18" cx="12" cy="12" r="12" transform="translate(-3.705 -3.704)" fill="url(#linear-gradient)"/>
    <rect id="Rectangle_1784" data-name="Rectangle 1784" width="16" height="16" transform="translate(0.296 0.296)" fill="none"/>
    <g id="instagram_4_" data-name="instagram (4)" transform="translate(1.678 1.678)">
      <path id="Path_4902" data-name="Path 4902" d="M-1181.079-30.077c-1.253-1.254-1.11-2.929-1.11-5.5,0-2.515-.163-4.231,1.11-5.5a3.953,3.953,0,0,1,2.777-1.07c1.219-.054,4.235-.057,5.453,0A3.647,3.647,0,0,1-1169-38.307c.054,1.219.057,4.234,0,5.453a3.622,3.622,0,0,1-2.242,3.54c-.9.349-1.781.347-4.332.347-.516,0-1,.007-1.453.007C-1178.764-28.959-1180.067-29.064-1181.079-30.077Zm10.158-.842c.82-.824.768-1.936.769-4.662,0-1.766-.008-1.976-.039-2.673-.139-3.058-2.444-2.75-5.383-2.75l-.025-.016c-1.768,0-1.976.008-2.678.033-3.059.156-2.746,2.351-2.746,5.4,0,2.252-.168,3.737.761,4.661.806.809,1.912.769,4.67.769C-1172.914-30.158-1171.756-30.084-1170.921-30.918Zm-8.051-4.661a3.4,3.4,0,0,1,3.4-3.4,3.4,3.4,0,0,1,3.4,3.4,3.4,3.4,0,0,1-3.4,3.4A3.4,3.4,0,0,1-1178.972-35.58Zm1.192,0a2.2,2.2,0,0,0,2.2,2.2,2.2,2.2,0,0,0,2.2-2.2,2.2,2.2,0,0,0-2.2-2.2A2.2,2.2,0,0,0-1177.78-35.58Zm4.941-3.53a.794.794,0,0,1,.793-.794.794.794,0,0,1,.794.794.794.794,0,0,1-.794.794A.794.794,0,0,1-1172.839-39.11Z" transform="translate(1182.196 42.195)" fill="#fff"/>
    </g>
  </g>
</svg>
