<svg xmlns="http://www.w3.org/2000/svg" width="80" height="80" viewBox="0 0 80 80">
  <g id="sigorta" transform="translate(-371.514 -5438.771)">
    <rect id="Rectangle_66" data-name="Rectangle 66" width="80" height="80" transform="translate(371.514 5438.771)" fill="none"/>
    <g id="car-insurance" transform="translate(374.207 5443.087)">
      <path id="Path_5729" data-name="Path 5729" d="M-1386.025-3002.668a15.034,15.034,0,0,1-1.412-.587,33.745,33.745,0,0,1-3.4-1.829,30.8,30.8,0,0,1-8.518-7.577h-22.716v1.7a4.569,4.569,0,0,1-1.341,3.255,4.572,4.572,0,0,1-3.256,1.342h-4.314a4.57,4.57,0,0,1-3.255-1.342,4.57,4.57,0,0,1-1.342-3.255v-5.1a11.866,11.866,0,0,1-2.8-7.606v-6.995a10.108,10.108,0,0,1,1.492-5.43h-2.258a3.529,3.529,0,0,1-2.512-1.035,3.529,3.529,0,0,1-1.036-2.513v-1.282a3.529,3.529,0,0,1,1.036-2.513,3.528,3.528,0,0,1,2.512-1.035h1.983a6.074,6.074,0,0,1,4.583,2.094l4.261-8.85a6.511,6.511,0,0,1,6.08-4.086h27.281a6.57,6.57,0,0,1,6.078,4.2l1.14,2.281a13.4,13.4,0,0,1,2.307-.2,15.26,15.26,0,0,1,6.381,1.451l8.406,3.97a6.126,6.126,0,0,1,2.433,2.213,5.9,5.9,0,0,1,.937,3.158v13.057a20.3,20.3,0,0,1-2.454,9.752,24.932,24.932,0,0,1-5.529,6.806,35.1,35.1,0,0,1-9.426,5.87l-.129.054-.018.019-.09.03a1.8,1.8,0,0,1-.578.108A1.188,1.188,0,0,1-1386.025-3002.668Zm-4.329-42.094-8.393,3.964a2.806,2.806,0,0,0-1.641,2.555v13.057c0,9.777,7.715,16.411,14.99,19.388,2.875-1.176,15.222-6.95,15.222-19.264v-13.18a2.986,2.986,0,0,0-1.648-2.56l-8.383-3.957a11.589,11.589,0,0,0-5.075-1.186A11.6,11.6,0,0,0-1390.354-3044.762Zm-42.212,33.683a1.393,1.393,0,0,0,1.289,1.475,1.118,1.118,0,0,0,.133-.007l.044,0h4.43a1.45,1.45,0,0,0,1.465-1.466v-1.7h-3.1a9.623,9.623,0,0,1-4.264-1.012Zm-2.914-19.7v6.995c0,4.333,3.234,7.995,7.061,7.995h27.17a30.7,30.7,0,0,1-1.314-3.078l-.011-.028-.475-2.378-.354-2.257-.117-2.352v-9.86h-29.968A7.42,7.42,0,0,0-1435.48-3030.782Zm10-19.21-.013.029c-3.939,8.273-5.013,10.442-5.446,11.2h27.434a5.679,5.679,0,0,1,.925-2.706,6.228,6.228,0,0,1,2.429-2.149l.008,0,8.39-3.962a10.951,10.951,0,0,1,1.017-.465l-.859-1.815a3.621,3.621,0,0,0-3.363-2.323h-27.281A3.39,3.39,0,0,0-1425.48-3049.992Zm-14.08,9.067v1.282a.585.585,0,0,0,.47.533h4.676a2,2,0,0,0,.169-.189,3.3,3.3,0,0,0-2.917-2.042h-1.983A.4.4,0,0,0-1439.561-3040.926Zm10.093,16.722a5,5,0,0,1-2.595-.537,2.49,2.49,0,0,1-1.186-2.31v-2.449a3.005,3.005,0,0,1,.891-2.137,2.979,2.979,0,0,1,2.114-.886,3.021,3.021,0,0,1,.626.067l5.939,1.282a4.417,4.417,0,0,1,2.669,1.585,4.8,4.8,0,0,1,1.036,3.005v.349c0,2.032-2.232,2.032-2.965,2.032Zm-.766-3.2c.965.065,3.968.068,7,.069a1.722,1.722,0,0,0-1.087-.961l-5.915-1.275Z" transform="translate(1442.292 3064.616)" fill="#0e1013"/>
      <path id="Path_5728" data-name="Path 5728" d="M-1437.617-3044.016l-4.455-3.4-.019-.019a1.528,1.528,0,0,1-.233-2.2,1.841,1.841,0,0,1,1.283-.553,1.447,1.447,0,0,1,.872.282l3.184,2.442,5.6-7.283.018-.018a1.84,1.84,0,0,1,1.283-.554,1.441,1.441,0,0,1,.872.284l.022.017.02.02a1.673,1.673,0,0,1,.271,2.156l-6.547,8.535-.019.019a1.838,1.838,0,0,1-1.282.553A1.436,1.436,0,0,1-1437.617-3044.016Z" transform="translate(1492.755 3088.662)" fill="#1e88e5"/>
    </g>
  </g>
</svg>
