<svg xmlns="http://www.w3.org/2000/svg" width="285" height="285" viewBox="0 0 285 285">
  <g id="interscroller" transform="translate(-330 -1147)">
    <rect id="Rectangle_2293" data-name="Rectangle 2293" width="285" height="285" rx="20" transform="translate(330 1147)" fill="#fff"/>
    <g id="Group_4509" data-name="Group 4509" transform="translate(0 88)">
      <rect id="Rectangle_2410" data-name="Rectangle 2410" width="245" height="4" rx="2" transform="translate(350 1104)" fill="#f1f3f4"/>
      <rect id="Rectangle_2331" data-name="Rectangle 2331" width="245" height="4" rx="2" transform="translate(350 1284)" fill="#f1f3f4"/>
      <rect id="Rectangle_2333" data-name="Rectangle 2333" width="245" height="4" rx="2" transform="translate(350 1320)" fill="#f1f3f4"/>
      <rect id="Rectangle_2409" data-name="Rectangle 2409" width="190" height="4" rx="2" transform="translate(350 1122)" fill="#f1f3f4"/>
      <rect id="Rectangle_2411" data-name="Rectangle 2411" width="190" height="4" rx="2" transform="translate(350 1086)" fill="#f1f3f4"/>
      <rect id="Rectangle_2330" data-name="Rectangle 2330" width="190" height="4" rx="2" transform="translate(350 1302)" fill="#f1f3f4"/>
    </g>
    <g id="Group_4573" data-name="Group 4573" transform="translate(350.214 1260.75)">
      <g id="Rectangle_1674" data-name="Rectangle 1674" transform="translate(-0.214 -22.75)" fill="#fff" stroke="#0e1013" stroke-width="2">
        <rect width="245" height="111" rx="10" stroke="none"/>
        <rect x="1" y="1" width="243" height="109" rx="9" fill="none"/>
      </g>
      <rect id="Rectangle_1694" data-name="Rectangle 1694" width="225" height="57" rx="4" transform="translate(9.786 4.25)" fill="#aef2c9"/>
      <g id="move" transform="translate(116.415 18.788)">
        <path id="Path_6539" data-name="Path 6539" d="M47.243,194.367a2.262,2.262,0,1,1-2.262-2.262A2.262,2.262,0,0,1,47.243,194.367Zm0,0" transform="translate(-39.11 -180.402)" fill="#0e1013"/>
        <path id="Path_6540" data-name="Path 6540" d="M10.525,362.773H1.218a1.165,1.165,0,0,0-1.163,1.163,1.208,1.208,0,0,0,.179.631.855.855,0,0,0,.07.1l4.721,5.891a1.2,1.2,0,0,0,.847.358,1.255,1.255,0,0,0,.914-.432l4.653-5.817a.966.966,0,0,0,.07-.1,1.215,1.215,0,0,0,.179-.632A1.165,1.165,0,0,0,10.525,362.773Zm0,0" transform="translate(0 -342.991)" fill="#0e1013"/>
        <path id="Path_6541" data-name="Path 6541" d="M1.218,8.149h9.306a1.165,1.165,0,0,0,1.163-1.163,1.208,1.208,0,0,0-.179-.63.838.838,0,0,0-.07-.1L6.718.364A1.17,1.17,0,0,0,4.957.438L.3,6.255a.955.955,0,0,0-.07.1,1.208,1.208,0,0,0-.179.63A1.165,1.165,0,0,0,1.218,8.149Zm0,0" transform="translate(0 0)" fill="#0e1013"/>
      </g>
    </g>
  </g>
</svg>
