<svg xmlns="http://www.w3.org/2000/svg" width="18" height="18" viewBox="0 0 18 18">
  <g id="language" transform="translate(-1442.31 -26.31)">
    <rect id="Rectangle_1879" data-name="Rectangle 1879" width="18" height="18" transform="translate(1442.31 26.31)" fill="none"/>
    <g id="global" transform="translate(1442.818 26.818)">
      <g id="Group_3657" data-name="Group 3657">
        <path id="Path_5687" data-name="Path 5687" d="M8.492,0a8.492,8.492,0,1,0,8.492,8.492A8.5,8.5,0,0,0,8.492,0ZM14.5,4.143a15.974,15.974,0,0,1-2.82.84,12.006,12.006,0,0,0-1.954-3.81A7.435,7.435,0,0,1,14.5,4.143Zm-3.609,6.663a17.7,17.7,0,0,0-4.807,0,11.024,11.024,0,0,1,0-4.621,17.725,17.725,0,0,0,2.406.184A17.71,17.71,0,0,0,10.9,6.185,11.024,11.024,0,0,1,10.895,10.806ZM10.62,5.147a16.616,16.616,0,0,1-4.258,0A10.947,10.947,0,0,1,8.492,1.342,10.944,10.944,0,0,1,10.62,5.147ZM7.252,1.173A12,12,0,0,0,5.3,4.983a15.99,15.99,0,0,1-2.819-.84A7.43,7.43,0,0,1,7.252,1.173ZM1.061,8.492a7.384,7.384,0,0,1,.846-3.431,17.082,17.082,0,0,0,3.127.961,12.088,12.088,0,0,0,0,4.949,16.969,16.969,0,0,0-3.128.955A7.4,7.4,0,0,1,1.061,8.492ZM2.48,12.841A15.99,15.99,0,0,1,5.3,12a12.006,12.006,0,0,0,1.954,3.81A7.43,7.43,0,0,1,2.48,12.841Zm3.884-1a16.608,16.608,0,0,1,4.257,0,10.961,10.961,0,0,1-2.128,3.805A10.944,10.944,0,0,1,6.364,11.836Zm3.366,3.974A12.006,12.006,0,0,0,11.684,12a16.091,16.091,0,0,1,2.82.84A7.435,7.435,0,0,1,9.729,15.811Zm2.217-4.842a12.064,12.064,0,0,0,0-4.948,17.01,17.01,0,0,0,3.128-.961,7.383,7.383,0,0,1,0,6.863A17.118,17.118,0,0,0,11.947,10.968Z" fill="#80868b"/>
      </g>
    </g>
  </g>
</svg>
