<svg xmlns="http://www.w3.org/2000/svg" width="285" height="285" viewBox="0 0 285 285">
  <g id="mobilecatfish" transform="translate(-330 -1147)">
    <rect id="Rectangle_2293" data-name="Rectangle 2293" width="285" height="285" rx="20" transform="translate(330 1147)" fill="#fff"/>
    <g id="Group_4566" data-name="Group 4566" transform="translate(-82 83)">
      <g id="Rectangle_2312" data-name="Rectangle 2312" transform="translate(495 1091)" fill="#fff" stroke="#0e1013" stroke-width="2">
        <rect width="120" height="232" rx="10" stroke="none"/>
        <rect x="1" y="1" width="118" height="230" rx="9" fill="none"/>
      </g>
      <rect id="Rectangle_2412" data-name="Rectangle 2412" width="116" height="2" transform="translate(497 1105)" fill="#0e1013"/>
      <rect id="Rectangle_2413" data-name="Rectangle 2413" width="32" height="2" rx="1" transform="translate(539 1098)" fill="#0e1013"/>
      <g id="Group_4576" data-name="Group 4576" transform="translate(501.451 1292.679)">
        <g id="Rectangle_1694" data-name="Rectangle 1694" transform="translate(3.549 -9.679)" fill="none" stroke="#0e1013" stroke-width="2">
          <rect width="100" height="30" rx="8" stroke="none"/>
          <rect x="1" y="1" width="98" height="28" rx="7" fill="none"/>
        </g>
        <rect id="Rectangle_1693" data-name="Rectangle 1693" width="10" height="10" rx="1" transform="translate(83.549 0.321)" fill="#0e1013"/>
        <rect id="Rectangle_2340" data-name="Rectangle 2340" width="59" height="10" rx="4" transform="translate(13.549 0.321)" fill="#aef2c9"/>
      </g>
      <g id="Group_4577" data-name="Group 4577" transform="translate(155 50)">
        <rect id="Rectangle_2350" data-name="Rectangle 2350" width="80" height="4" rx="2" transform="translate(350 1107)" fill="#f1f3f4"/>
        <rect id="Rectangle_2400" data-name="Rectangle 2400" width="80" height="4" rx="2" transform="translate(350 1143)" fill="#f1f3f4"/>
        <rect id="Rectangle_2402" data-name="Rectangle 2402" width="80" height="4" rx="2" transform="translate(350 1179)" fill="#f1f3f4"/>
        <rect id="Rectangle_2354" data-name="Rectangle 2354" width="80" height="4" rx="2" transform="translate(350 1071)" fill="#f1f3f4"/>
        <rect id="Rectangle_2335" data-name="Rectangle 2335" width="80" height="4" rx="2" transform="translate(350 1215)" fill="#f1f3f4"/>
        <rect id="Rectangle_2355" data-name="Rectangle 2355" width="55" height="4" rx="2" transform="translate(350 1089)" fill="#f1f3f4"/>
        <rect id="Rectangle_2401" data-name="Rectangle 2401" width="55" height="4" rx="2" transform="translate(350 1125)" fill="#f1f3f4"/>
        <rect id="Rectangle_2403" data-name="Rectangle 2403" width="55" height="4" rx="2" transform="translate(350 1161)" fill="#f1f3f4"/>
        <rect id="Rectangle_2404" data-name="Rectangle 2404" width="55" height="4" rx="2" transform="translate(350 1197)" fill="#f1f3f4"/>
      </g>
    </g>
  </g>
</svg>
