<svg xmlns="http://www.w3.org/2000/svg" width="80" height="80" viewBox="0 0 80 80">
  <g id="hisshisse" transform="translate(-371.514 -5438.771)">
    <rect id="Rectangle_66" data-name="Rectangle 66" width="80" height="80" transform="translate(371.514 5438.771)" fill="none"/>
    <g id="money" transform="translate(374.462 5410.514)">
      <path id="Path_5711" data-name="Path 5711" d="M41.567,45.8c-.394.354-17.99,12.44-17.99,12.44L20.782,60.29,20.428,84.5l11.456,4.763-.591-17.557.591-6.968L43.221,56.55l8.346-6.141Z" fill="#1e88e5"/>
      <path id="Path_5708" data-name="Path 5708" d="M74.273,74.861a1.468,1.468,0,0,0-.716-.619l-5.341-2.186L73.748,68.8a1.467,1.467,0,0,0-.191-2.627l-5.341-2.186,5.532-3.258a1.488,1.488,0,0,0-.205-2.641L52.515,49.473l-10.36-4.4a1.468,1.468,0,0,0-.528-.1L24.752,38.1a1.467,1.467,0,0,0-1.277.073L.864,50.882a1.467,1.467,0,0,0,.147,2.685l5.459,2.26L.864,58.952a1.467,1.467,0,0,0,.147,2.627l5.459,2.26L.893,66.964a1.467,1.467,0,0,0,.117,2.744l5.459,2.245L.893,75.079a1.467,1.467,0,0,0,.147,2.627l18.973,8.056a1.455,1.455,0,0,0,.22.132l10.374,4.4L49.683,98.41A1.467,1.467,0,0,0,51,98.322L73.748,84.94a1.467,1.467,0,0,0-.191-2.627l-5.341-2.186,5.532-3.258A1.467,1.467,0,0,0,74.273,74.861ZM69.7,67.742,50.138,79.261,32.647,71.836V66.95l17.022,7.234a1.461,1.461,0,0,0,1.321-.088l14.043-8.261Zm.059-8.085L50.138,71.176l-15.892-6.75,17.9-11.959ZM19.294,82.3,4.9,76.179l4.945-2.773,9.465,4.021Zm0-8.071L4.9,68.109l4.945-2.8,9.465,4.021Zm0-8.071L4.9,60.053,9.844,57.28,19.308,61.3ZM4.9,51.982l19.4-10.9L38.37,46.847,20.644,58.674ZM30.358,63.516a1.467,1.467,0,0,0-.646,1.218V86.745l-7.469-3.17V61.139L41.686,48.182l7.234,2.935ZM69.7,83.883l-19.56,11.5L32.647,87.962V83.091l17.022,7.161a1.467,1.467,0,0,0,1.321-.088L65.032,81.9Zm-19.56,3.434L32.647,79.892V75.02l17.036,7.234A1.467,1.467,0,0,0,51,82.166l14.043-8.261L69.7,75.813Z" fill="#0e1013"/>
    </g>
  </g>
</svg>
