<svg xmlns="http://www.w3.org/2000/svg" width="80" height="80" viewBox="0 0 80 80">
  <g id="keyfiyyet" transform="translate(-371.514 -5438.771)">
    <rect id="Rectangle_66" data-name="Rectangle 66" width="80" height="80" transform="translate(371.514 5438.771)" fill="none"/>
    <g id="quality" transform="translate(374.923 5442.401)">
      <path id="Path_5763" data-name="Path 5763" d="M188.724,193.036l-10.93,10.323-5.245-5.4a1.512,1.512,0,1,0-2.168,2.107l6.291,6.458a1.539,1.539,0,0,0,2.138.045l12.022-11.339a1.51,1.51,0,0,0,.06-2.138,1.547,1.547,0,0,0-2.168-.06Zm0,0" transform="translate(-143.83 -163.423)" fill="#1e88e5"/>
      <path id="Path_5764" data-name="Path 5764" d="M113.523,90.551A22.648,22.648,0,1,0,136.171,113.2,22.67,22.67,0,0,0,113.523,90.551Zm0,42.265A19.616,19.616,0,1,1,133.139,113.2,19.639,19.639,0,0,1,113.523,132.815Zm0,0" transform="translate(-76.738 -76.825)" fill="#0e1013"/>
      <path id="Path_5765" data-name="Path 5765" d="M67.952,28.036l.5-8.99a1.512,1.512,0,0,0-.834-1.44l-8-4.047-4.047-8a1.538,1.538,0,0,0-1.44-.834l-9.005.486L37.618.249a1.515,1.515,0,0,0-1.668,0l-7.5,4.958-8.989-.5a1.51,1.51,0,0,0-1.44.834l-4.048,8-8,4.047a1.536,1.536,0,0,0-.834,1.44l.5,8.99-4.957,7.5a1.515,1.515,0,0,0,0,1.668l4.942,7.519-.5,8.99a1.511,1.511,0,0,0,.834,1.44l8,4.047,4.047,8a1.536,1.536,0,0,0,1.44.834l8.99-.5,7.5,4.957a1.476,1.476,0,0,0,1.668,0l7.5-4.957,8.99.5a1.513,1.513,0,0,0,1.44-.834l4.047-8,8-4.047a1.538,1.538,0,0,0,.834-1.44l-.5-8.99,4.957-7.5a1.515,1.515,0,0,0,0-1.668Zm-2.82,15.432a1.424,1.424,0,0,0-.242.925l.47,8.5L57.8,56.718a1.5,1.5,0,0,0-.667.667l-3.821,7.564-8.5-.47a1.656,1.656,0,0,0-.925.242l-7.095,4.685L29.69,64.722a1.5,1.5,0,0,0-.834-.258h-.076l-8.5.47-3.82-7.565a1.493,1.493,0,0,0-.667-.667L8.209,52.9l.47-8.5a1.657,1.657,0,0,0-.243-.925L3.752,36.374l4.684-7.095a1.419,1.419,0,0,0,.243-.924l-.47-8.5,7.565-3.82a1.5,1.5,0,0,0,.667-.667L20.261,7.8l8.5.47a1.664,1.664,0,0,0,.925-.243l7.094-4.684,7.095,4.684a1.421,1.421,0,0,0,.925.243l8.5-.47,3.821,7.565a1.5,1.5,0,0,0,.667.667l7.564,3.82-.47,8.5a1.66,1.66,0,0,0,.242.924l4.685,7.095Zm0,0" transform="translate(0 0)" fill="#0e1013"/>
    </g>
  </g>
</svg>
