<svg xmlns="http://www.w3.org/2000/svg" width="24" height="24" viewBox="0 0 24 24">
  <g id="axtar" transform="translate(-1425.121 -312.121)">
    <rect id="Rectangle_17" data-name="Rectangle 17" width="24" height="24" transform="translate(1425.121 312.121)" fill="none"/>
    <path id="Path_4933" data-name="Path 4933" d="M25.262-4021.149l-5.357-5.271a9.659,9.659,0,0,1-5.7,1.869,9.478,9.478,0,0,1-9.538-9.393,9.478,9.478,0,0,1,9.538-9.394,9.48,9.48,0,0,1,9.539,9.394,9.276,9.276,0,0,1-2.208,5.993l5.312,5.228a1.1,1.1,0,0,1,.331.788,1.1,1.1,0,0,1-.332.788,1.116,1.116,0,0,1-.79.323A1.114,1.114,0,0,1,25.262-4021.149ZM6.906-4033.944a7.243,7.243,0,0,0,7.3,7.172,7.242,7.242,0,0,0,7.3-7.172,7.243,7.243,0,0,0-7.3-7.173A7.243,7.243,0,0,0,6.906-4033.944Z" transform="translate(1421.202 4356.201)" fill="#0e1013"/>
  </g>
</svg>
