<svg xmlns="http://www.w3.org/2000/svg" width="20" height="20" viewBox="0 0 20 20">
  <g id="password" transform="translate(-594.868 -615.564)">
    <rect id="Rectangle_10" data-name="Rectangle 10" width="20" height="20" transform="translate(594.868 615.564)" fill="none"/>
    <path id="padlock" d="M14.688,6.679h-.557V4.453a4.453,4.453,0,0,0-8.905,0V6.679H4.67A1.672,1.672,0,0,0,3,8.349v7.792a1.672,1.672,0,0,0,1.67,1.67H14.688a1.672,1.672,0,0,0,1.67-1.67V8.349A1.672,1.672,0,0,0,14.688,6.679ZM6.711,4.453a2.968,2.968,0,1,1,5.937,0V6.679H6.711Zm3.711,7.957V14.1a.742.742,0,1,1-1.484,0V12.41a1.484,1.484,0,1,1,1.484,0Z" transform="translate(595.189 616.658)" fill="#0e1013"/>
  </g>
</svg>
