<svg xmlns="http://www.w3.org/2000/svg" width="20" height="20" viewBox="0 0 20 20">
  <g id="mail" transform="translate(-595.181 -615.877)">
    <rect id="Rectangle_10" data-name="Rectangle 10" width="20" height="20" transform="translate(595.181 615.877)" fill="none"/>
    <g id="Layer_29" data-name="Layer 29" transform="translate(596.123 618.631)">
      <path id="Path_8" data-name="Path 8" d="M11.107,10.223,19.675,5.2A2.717,2.717,0,0,0,17.447,4H4.766A2.717,2.717,0,0,0,2.52,5.187Z" transform="translate(-2.049 -4)" fill="#0e1013"/>
      <path id="Path_9" data-name="Path 9" d="M11.964,12.094a1.829,1.829,0,0,1-1.812.009L2,7.33v8.759a2.717,2.717,0,0,0,2.717,2.717H17.4a2.717,2.717,0,0,0,2.717-2.717V7.33Z" transform="translate(-2 -4.314)" fill="#0e1013"/>
    </g>
  </g>
</svg>
