<svg xmlns="http://www.w3.org/2000/svg" width="285" height="285" viewBox="0 0 285 285">
  <g id="slider" transform="translate(-330 -1147)">
    <rect id="Rectangle_2293" data-name="Rectangle 2293" width="285" height="285" rx="20" transform="translate(330 1147)" fill="#fff"/>
    <g id="Group_4509" data-name="Group 4509" transform="translate(0 -9)">
      <rect id="Rectangle_2310" data-name="Rectangle 2310" width="145" height="4" rx="2" transform="translate(350 1176)" fill="#f1f3f4"/>
      <rect id="Rectangle_2327" data-name="Rectangle 2327" width="145" height="4" rx="2" transform="translate(350 1212)" fill="#f1f3f4"/>
      <rect id="Rectangle_2329" data-name="Rectangle 2329" width="145" height="4" rx="2" transform="translate(350 1248)" fill="#f1f3f4"/>
      <rect id="Rectangle_2331" data-name="Rectangle 2331" width="145" height="4" rx="2" transform="translate(350 1284)" fill="#f1f3f4"/>
      <rect id="Rectangle_2343" data-name="Rectangle 2343" width="145" height="4" rx="2" transform="translate(350 1338)" fill="#f1f3f4"/>
      <rect id="Rectangle_2333" data-name="Rectangle 2333" width="145" height="4" rx="2" transform="translate(350 1320)" fill="#f1f3f4"/>
      <rect id="Rectangle_2341" data-name="Rectangle 2341" width="145" height="4" rx="2" transform="translate(350 1374)" fill="#f1f3f4"/>
      <rect id="Rectangle_2345" data-name="Rectangle 2345" width="145" height="4" rx="2" transform="translate(350 1410)" fill="#f1f3f4"/>
      <rect id="Rectangle_2311" data-name="Rectangle 2311" width="105" height="4" rx="2" transform="translate(350 1194)" fill="#f1f3f4"/>
      <rect id="Rectangle_2326" data-name="Rectangle 2326" width="105" height="4" rx="2" transform="translate(350 1230)" fill="#f1f3f4"/>
      <rect id="Rectangle_2328" data-name="Rectangle 2328" width="105" height="4" rx="2" transform="translate(350 1266)" fill="#f1f3f4"/>
      <rect id="Rectangle_2330" data-name="Rectangle 2330" width="105" height="4" rx="2" transform="translate(350 1302)" fill="#f1f3f4"/>
      <rect id="Rectangle_2342" data-name="Rectangle 2342" width="105" height="4" rx="2" transform="translate(350 1356)" fill="#f1f3f4"/>
      <rect id="Rectangle_2344" data-name="Rectangle 2344" width="105" height="4" rx="2" transform="translate(350 1392)" fill="#f1f3f4"/>
    </g>
    <g id="Group_4511" data-name="Group 4511" transform="translate(165 96)">
      <rect id="Rectangle_2350" data-name="Rectangle 2350" width="80" height="4" rx="2" transform="translate(350 1107)" fill="#f1f3f4"/>
      <rect id="Rectangle_2438" data-name="Rectangle 2438" width="80" height="4" rx="2" transform="translate(350 1143)" fill="#f1f3f4"/>
      <rect id="Rectangle_2354" data-name="Rectangle 2354" width="80" height="4" rx="2" transform="translate(350 1071)" fill="#f1f3f4"/>
      <rect id="Rectangle_2346" data-name="Rectangle 2346" width="80" height="4" rx="2" transform="translate(350 1287)" fill="#f1f3f4"/>
      <rect id="Rectangle_2355" data-name="Rectangle 2355" width="55" height="4" rx="2" transform="translate(350 1089)" fill="#f1f3f4"/>
      <rect id="Rectangle_2439" data-name="Rectangle 2439" width="55" height="4" rx="2" transform="translate(350 1125)" fill="#f1f3f4"/>
      <rect id="Rectangle_2441" data-name="Rectangle 2441" width="55" height="4" rx="2" transform="translate(350 1161)" fill="#f1f3f4"/>
      <rect id="Rectangle_2347" data-name="Rectangle 2347" width="55" height="4" rx="2" transform="translate(350 1305)" fill="#f1f3f4"/>
    </g>
    <g id="Group_4526" data-name="Group 4526" transform="translate(0 114)">
      <g id="Rectangle_2312" data-name="Rectangle 2312" transform="translate(515 1167)" fill="#fff" stroke="#0e1013" stroke-width="2">
        <rect width="80" height="80" rx="10" stroke="none"/>
        <rect x="1" y="1" width="78" height="78" rx="9" fill="none"/>
      </g>
      <rect id="Rectangle_2348" data-name="Rectangle 2348" width="60" height="60" rx="5" transform="translate(525 1177)" fill="#aef2c9"/>
      <g id="move" transform="translate(536.889 1213.364) rotate(-90)">
        <path id="Path_6540" data-name="Path 6540" d="M11.411,362.773H1.317a1.264,1.264,0,0,0-1.262,1.262,1.31,1.31,0,0,0,.194.684.932.932,0,0,0,.076.109l5.12,6.39a1.3,1.3,0,0,0,.919.389,1.361,1.361,0,0,0,.992-.468l5.047-6.309a1.055,1.055,0,0,0,.076-.108,1.318,1.318,0,0,0,.194-.685A1.264,1.264,0,0,0,11.411,362.773Zm0,0" transform="translate(0 -330.383)" fill="#0e1013"/>
        <path id="Path_6541" data-name="Path 6541" d="M1.316,8.839H11.411a1.264,1.264,0,0,0,1.262-1.262,1.31,1.31,0,0,0-.194-.684.909.909,0,0,0-.076-.108L7.282.395a1.269,1.269,0,0,0-1.91.081L.325,6.785a1.035,1.035,0,0,0-.076.108,1.31,1.31,0,0,0-.194.684A1.264,1.264,0,0,0,1.316,8.839Zm0,0" transform="translate(0 -5)" fill="#0e1013"/>
      </g>
    </g>
  </g>
</svg>
