<svg xmlns="http://www.w3.org/2000/svg" width="80" height="80" viewBox="0 0 80 80">
  <g id="kadr" transform="translate(-371.514 -5438.771)">
    <rect id="Rectangle_66" data-name="Rectangle 66" width="80" height="80" transform="translate(371.514 5438.771)" fill="none"/>
    <path id="Path_5781" data-name="Path 5781" d="M5194.736,1718.178a.5.5,0,0,1-.5-.5v-18.531h-6.223a.5.5,0,0,1-.5-.5v-20.152a10.581,10.581,0,0,1,10.569-10.569h11.2a10.581,10.581,0,0,1,10.569,10.45.5.5,0,0,1,.015.119v20.152a.5.5,0,0,1-.5.5h-6.221v18.531a.5.5,0,0,1-.5.5Zm10.056-18.994a.5.5,0,0,1,.5.5v15.253h4.6v-31.962a.5.5,0,0,1,.5-.5h2.241a.5.5,0,0,1,.5.5v12.93h3.5v-17.411a7.35,7.35,0,0,0-7.343-7.343H5198.07a7.351,7.351,0,0,0-7.342,7.343V1695.9h3.482v-12.93a.5.5,0,0,1,.5-.5h2.242a.5.5,0,0,1,.5.5v31.962h4.6v-15.253a.5.5,0,0,1,.5-.5Zm-10.555-41.964a9.448,9.448,0,1,1,9.448,9.464A9.458,9.458,0,0,1,5194.237,1657.22Zm3.227.014a6.222,6.222,0,1,0,6.221-6.223A6.228,6.228,0,0,0,5197.464,1657.235Z" transform="translate(-4792.171 3795.797)" fill="#1e88e5"/>
    <path id="Path_5782" data-name="Path 5782" d="M5238.935,1709.215a5.548,5.548,0,0,1-5.541-5.542v-7.281a.5.5,0,0,1,.5-.5h2.241a.5.5,0,0,1,.5.5v7.281a2.3,2.3,0,0,0,2.3,2.3h2.3v-13.026a.5.5,0,0,1,.5-.5h2.241a.5.5,0,0,1,.5.5v13.026h2.3a2.3,2.3,0,0,0,2.3-2.3V1681.84a.5.5,0,0,1,.5-.5h2.24a.5.5,0,0,1,.5.5v7.342h2.374v-10.688a7.351,7.351,0,0,0-7.342-7.343h-7.842a.5.5,0,0,1-.5-.5v-2.241a.5.5,0,0,1,.5-.5h7.842a10.581,10.581,0,0,1,10.57,10.568v13.444a.5.5,0,0,1-.5.5h-5.1v11.249a5.549,5.549,0,0,1-5.542,5.542Zm-40.277-.015a5.548,5.548,0,0,1-5.542-5.541V1692.41h-5.1a.5.5,0,0,1-.5-.5v-13.431a10.606,10.606,0,0,1,10.568-10.583h7.858a.5.5,0,0,1,.5.5v2.241a.5.5,0,0,1-.5.5H5198.1a7.351,7.351,0,0,0-7.343,7.342v10.7h2.361v-7.342a.5.5,0,0,1,.5-.5h2.228a.5.5,0,0,1,.5.5v21.832a2.3,2.3,0,0,0,2.3,2.3h2.3v-13.027a.5.5,0,0,1,.5-.5h2.24a.5.5,0,0,1,.5.5v13.027h2.3a2.3,2.3,0,0,0,2.3-2.3.481.481,0,0,1,.015-.116v-7.18a.5.5,0,0,1,.5-.5h2.241a.5.5,0,0,1,.5.5v7.283a5.548,5.548,0,0,1-5.542,5.541Zm37.515-45.311a9.351,9.351,0,0,1-2.752-6.669,9.445,9.445,0,1,1,2.752,6.669Zm.475-6.668a6.222,6.222,0,1,0,6.222-6.222A6.229,6.229,0,0,0,5236.648,1657.221Zm-43.531-.015a9.439,9.439,0,0,1,9.423-9.435h.026a9.449,9.449,0,1,1-9.45,9.435Zm3.227.015a6.222,6.222,0,1,0,6.222-6.223A6.229,6.229,0,0,0,5196.343,1657.221Z" transform="translate(-4811.203 3800.292)" fill="#0e1013"/>
  </g>
</svg>
