<svg xmlns="http://www.w3.org/2000/svg" width="20" height="20" viewBox="0 0 20 20">
  <g id="arrow" transform="translate(-26.38 1462.381) rotate(-90)">
    <rect id="Rectangle_1879" data-name="Rectangle 1879" width="20" height="20" transform="translate(1442.381 26.38)" fill="none"/>
    <g id="location" transform="translate(1444.155 28.155)">
      <path id="Path_6139" data-name="Path 6139" d="M15.97,7.744h-.53A7.23,7.23,0,0,0,8.708,1.012V.482a.482.482,0,1,0-.964,0v.53A7.23,7.23,0,0,0,1.012,7.744H.482a.482.482,0,1,0,0,.964h.53A7.23,7.23,0,0,0,7.744,15.44v.53a.482.482,0,1,0,.964,0v-.53A7.23,7.23,0,0,0,15.44,8.708h.53a.482.482,0,1,0,0-.964Zm-7.262,6.73v-.5a.482.482,0,0,0-.964,0v.5A6.276,6.276,0,0,1,1.978,8.708h.5a.482.482,0,1,0,0-.964h-.5A6.276,6.276,0,0,1,7.744,1.978v.5a.482.482,0,1,0,.964,0v-.5a6.276,6.276,0,0,1,5.766,5.766h-.5a.482.482,0,0,0,0,.964h.5A6.276,6.276,0,0,1,8.708,14.474Z" transform="translate(0 0)" fill="#0e1013"/>
      <ellipse id="Ellipse_50" data-name="Ellipse 50" cy="0.5" ry="0.5" transform="translate(8.226 7.225)" fill="#0e1013"/>
      <path id="Path_6140" data-name="Path 6140" d="M154.439,121a3.369,3.369,0,0,0-2.7,5.384l2.313,3.1a.482.482,0,0,0,.772,0l2.313-3.1a3.369,3.369,0,0,0-2.7-5.384Zm0,4.82a1.446,1.446,0,1,1,1.446-1.446A1.448,1.448,0,0,1,154.439,125.82Z" transform="translate(-146.213 -117.112)" fill="#0e1013"/>
    </g>
  </g>
</svg>
