<svg xmlns="http://www.w3.org/2000/svg" width="80" height="80" viewBox="0 0 80 80">
  <g id="izleme" transform="translate(-371.514 -5438.771)">
    <rect id="Rectangle_66" data-name="Rectangle 66" width="80" height="80" transform="translate(371.514 5438.771)" fill="none"/>
    <path id="Path_5774" data-name="Path 5774" d="M4657.109,1717.151h-34.994a10.028,10.028,0,0,1,0-20.057h20.738a5.1,5.1,0,1,0,0-10.209h-23.54a1.621,1.621,0,1,1,0-3.243h23.54a8.347,8.347,0,0,1,0,16.694h-20.738a6.786,6.786,0,0,0,0,13.572h34.994a7.226,7.226,0,1,1,0,3.242Zm3.059-1.621a3.984,3.984,0,1,0,3.983-3.984A3.988,3.988,0,0,0,4660.167,1715.529Zm-47.392-28.939a52.049,52.049,0,0,1-7.837-7.036,35.123,35.123,0,0,1-5.1-7.1,18.3,18.3,0,0,1-2.321-8.489,16.193,16.193,0,1,1,32.387,0,18.3,18.3,0,0,1-2.323,8.489,35.1,35.1,0,0,1-5.1,7.1,52.042,52.042,0,0,1-7.836,7.035,1.624,1.624,0,0,1-1.866,0Zm-12.019-22.625c0,3.722,1.875,7.835,5.571,12.223a51.225,51.225,0,0,0,7.38,7.047,51.2,51.2,0,0,0,7.38-7.047c3.7-4.388,5.572-8.5,5.572-12.223a12.952,12.952,0,1,0-25.9,0Z" transform="translate(-4222.932 3793.508)" fill="#0e1013"/>
    <path id="Path_5773" data-name="Path 5773" d="M4597.515,1655a7.226,7.226,0,1,1,7.226,7.226A7.234,7.234,0,0,1,4597.515,1655Zm3.242,0a3.984,3.984,0,1,0,3.984-3.984A3.989,3.989,0,0,0,4600.757,1655Z" transform="translate(-4213.964 3800.233)" fill="#1e88e5"/>
  </g>
</svg>
