<svg xmlns="http://www.w3.org/2000/svg" width="20" height="20" viewBox="0 0 20 20">
  <g id="user" transform="translate(-1442.31 -26.31)">
    <rect id="Rectangle_1879" data-name="Rectangle 1879" width="20" height="20" transform="translate(1442.31 26.31)" fill="none"/>
    <g id="user-2" data-name="user" transform="translate(1442.875 26.864)">
      <g id="Group_3658" data-name="Group 3658" transform="translate(0 0.011)">
        <path id="Path_5688" data-name="Path 5688" d="M16.252,2.914A9.431,9.431,0,1,0,2.9,16.234c.005.005.007.013.013.018.055.053.114.1.169.148.152.135.3.274.463.4.086.067.174.135.262.2.151.113.3.225.459.329.107.067.218.135.327.2.146.088.29.176.441.256.127.067.257.125.387.187s.281.135.426.2.29.108.437.16.274.1.414.144c.159.048.322.085.484.125.135.033.265.071.4.1.186.037.375.061.563.086.117.016.23.039.348.051.309.03.62.047.934.047s.625-.017.934-.047c.118-.011.232-.034.348-.051.189-.026.377-.049.563-.086.135-.027.27-.067.4-.1.162-.04.325-.077.484-.125.141-.043.277-.1.414-.144s.294-.1.437-.16.284-.129.426-.2.259-.119.387-.187c.15-.08.3-.168.441-.256.11-.067.22-.129.327-.2.158-.1.309-.216.459-.329.088-.067.176-.128.262-.2.16-.128.311-.264.463-.4.055-.051.115-.095.169-.148.005,0,.007-.013.013-.018A9.421,9.421,0,0,0,16.252,2.914ZM14.738,15.529c-.123.108-.249.21-.377.309-.075.058-.151.115-.228.17-.122.088-.246.172-.372.252-.092.059-.185.115-.28.17q-.178.1-.361.2c-.108.055-.218.107-.328.158s-.232.106-.352.154-.246.093-.371.135-.228.08-.343.114c-.135.04-.276.073-.415.107-.109.026-.217.055-.327.076-.16.031-.323.053-.486.075-.093.012-.185.029-.279.038-.259.025-.521.04-.786.04s-.527-.015-.786-.04c-.094-.009-.186-.026-.279-.038-.164-.022-.327-.044-.486-.075-.11-.022-.218-.051-.327-.076-.139-.034-.278-.067-.415-.107-.115-.034-.229-.075-.343-.114s-.249-.087-.371-.135-.236-.1-.352-.154-.22-.1-.328-.158-.243-.13-.361-.2c-.094-.055-.188-.112-.28-.17-.126-.08-.25-.164-.372-.252-.077-.055-.153-.113-.228-.17-.128-.1-.255-.2-.377-.309-.03-.022-.057-.051-.086-.076A5.405,5.405,0,0,1,7.716,10.4a4,4,0,0,0,3.432,0,5.405,5.405,0,0,1,3.674,5.05C14.794,15.478,14.767,15.5,14.738,15.529ZM7.083,5.412a2.695,2.695,0,1,1,3.67,3.67.014.014,0,0,0-.011,0,2.854,2.854,0,0,1-.563.239c-.035.01-.067.024-.1.032-.067.018-.138.03-.208.042a2.729,2.729,0,0,1-.4.04H9.394A2.729,2.729,0,0,1,9,9.4c-.067-.012-.139-.024-.207-.042-.036-.009-.067-.022-.1-.032a2.852,2.852,0,0,1-.563-.239l-.012,0A2.7,2.7,0,0,1,7.083,5.412Zm8.934,8.7h0A6.771,6.771,0,0,0,12.41,9.472a4.042,4.042,0,1,0-5.956,0,6.771,6.771,0,0,0-3.607,4.644,8.085,8.085,0,1,1,13.17,0Z" transform="translate(0 -0.011)" fill="#fff"/>
      </g>
    </g>
  </g>
</svg>
