<svg xmlns="http://www.w3.org/2000/svg" width="20" height="20" viewBox="0 0 20 20">
  <g id="user" transform="translate(-1442.31 -26.31)">
    <rect id="Rectangle_1879" data-name="Rectangle 1879" width="20" height="20" transform="translate(1442.31 26.31)" fill="none"/>
    <g id="whatsapp" transform="translate(1443.534 27.534)">
      <g id="Group_4622" data-name="Group 4622">
        <path id="Path_5783" data-name="Path 5783" d="M8.778,0h0a8.771,8.771,0,0,0-7.1,13.92L.577,17.18,3.95,16.1A8.774,8.774,0,1,0,8.778,0Zm5.107,12.393a2.476,2.476,0,0,1-1.722,1.239c-.459.1-1.058.176-3.074-.66A10.994,10.994,0,0,1,4.719,9.112,5.012,5.012,0,0,1,3.677,6.465a2.8,2.8,0,0,1,.9-2.136,1.275,1.275,0,0,1,.9-.315c.109,0,.206.005.294.01.258.011.387.026.557.433.212.51.727,1.769.789,1.9a.522.522,0,0,1,.037.475,1.517,1.517,0,0,1-.284.4c-.129.149-.252.263-.382.423-.118.139-.252.289-.1.546A7.79,7.79,0,0,0,7.8,9.973a6.452,6.452,0,0,0,2.058,1.269.555.555,0,0,0,.619-.1,10.618,10.618,0,0,0,.686-.908.49.49,0,0,1,.63-.191c.237.082,1.491.7,1.749.83s.428.191.49.3A2.186,2.186,0,0,1,13.885,12.393Z" fill="#fff"/>
      </g>
    </g>
  </g>
</svg>
